<svg width="2480" height="2480" version="1.1" xmlns="http://www.w3.org/2000/svg" desc="Created with imagetracer.js version 1.2.6" ><path fill="rgb(2,2,2)" stroke="rgb(2,2,2)" stroke-width="1" opacity="0.9647058823529412" d="M 1626.5 202 L 1645.5 202 L 1663.5 207 L 1677.5 215 L 1687 223.5 L 1698 240.5 L 1701 260.5 L 1700 261.5 L 1700 271.5 L 1695 285.5 L 1683.5 301 L 1680.5 303 L 1669.5 311 L 1656.5 316 L 1652.5 316 Q 1649.5 319 1643.5 319 L 1632.5 324 L 1623 332.5 L 1618 340.5 L 1615 351.5 L 1611.5 356 L 1603.5 357 L 1599 354.5 L 1596 348.5 L 1604 327.5 L 1616.5 313 L 1631.5 305 L 1657.5 297 L 1663.5 294 L 1673 285.5 L 1681 271.5 L 1683 255.5 Q 1680.4 252.6 1681 246.5 L 1678 240 Q 1675 241.3 1676 237.5 Q 1668.4 228.6 1657.5 223 L 1642.5 219 L 1629.5 219 L 1624.5 220 L 1610 228 L 1610 230 Q 1607.3 228.9 1608 231.5 L 1602 240 L 1594.5 244 Q 1588.8 242.8 1586 238.5 L 1585 234.5 L 1591 222 Q 1593.7 223.1 1593 220.5 L 1599 216 Q 1597.9 213.3 1600.5 214 L 1612.5 206 L 1626.5 202 Z " /><path fill="rgb(2,2,2)" stroke="rgb(2,2,2)" stroke-width="1" opacity="0.9647058823529412" d="M 698.5 252 Q 717.7 249.3 725 258.5 L 726 266.5 Q 723.8 273.3 712.5 271 Q 709.6 268.4 703.5 269 L 681.5 274 L 679.5 276 L 668.5 279 L 658.5 284 L 627.5 305 L 603 325 Q 604.1 327.7 601.5 327 L 598 332 L 595 333.5 L 593 336.5 L 590 338 L 590 339.5 L 574 356.5 L 571 362 Q 568.3 360.9 569 363.5 Q 558.2 374.6 552 389 Q 549 387.8 550 391.5 L 542 404.5 L 542 407.5 L 540 409.5 L 534 426.5 Q 535.4 433.9 532 436.5 L 532 455.5 Q 534.6 456.9 534 461.5 L 540.5 470 L 553.5 477 L 571.5 478 L 573.5 479 L 574.5 478 Q 584.8 479.3 591.5 477 L 595 473.5 L 597 466.5 L 597 458.5 L 600 453.5 L 600 449.5 Q 602.8 448.8 602 444.5 L 605 440.5 L 605 437.5 L 621 407.5 L 632 392 Q 634.7 393.1 634 390.5 L 657.5 366 L 677.5 351 L 698.5 340 L 725.5 331 L 746.5 329 L 759.5 332 L 768 338.5 L 773 346.5 L 773 361.5 L 765 380.5 Q 758.5 385.3 757 393 Q 754.3 391.9 755 394.5 L 749 403 Q 746.3 401.9 747 404.5 L 741 412 Q 738.3 410.9 739 413.5 L 736 415 L 736 417 Q 733.3 415.9 734 418.5 L 731 420 L 729.5 423 L 726.5 425 L 703.5 444 L 679.5 460 L 651.5 475 L 624.5 486 L 621.5 486 L 613 490.5 L 612 492.5 Q 614.7 494.8 614 500.5 L 624.5 514 L 640.5 523 L 656.5 525 L 663.5 523 L 670.5 523 L 680.5 520 L 692.5 515 L 695 512.5 L 695 507.5 L 698 500.5 L 698 495.5 L 701 491.5 L 701 488.5 L 704 482 Q 707 483.3 706 479.5 Q 715.2 464.2 728.5 453 L 752.5 438 L 762.5 435 L 776.5 435 L 784 438 L 784 440 Q 786.7 438.9 786 441.5 L 789 447.5 L 789 451.5 Q 786.3 453.8 787 459.5 L 783 467.5 L 773 481 Q 770.3 479.9 771 482.5 L 761.5 492 L 760 492 Q 761.1 494.7 758.5 494 L 739.5 510 L 712 526.5 L 712 532.5 L 715 538 L 727.5 543 L 736.5 543 L 756.5 536 L 776.5 520 L 781.5 520 L 787 523.5 L 788 530.5 L 779 546.5 Q 779 552.5 776 555.5 L 776 561.5 L 779 569.5 L 784.5 576 L 802 585.5 L 803 594.5 L 802 597 Q 799.4 599.7 792.5 599 L 781.5 595 L 767 582.5 L 762 575.5 L 762 572.5 L 759 566.5 L 759 556.5 L 757.5 555 L 742.5 560 L 726.5 561 L 714.5 558 L 704 552 L 693.5 534 L 689.5 534 L 676.5 539 L 669.5 539 L 662.5 541 L 643.5 541 L 628.5 537 L 620.5 533 L 608 522.5 L 605 517 Q 602.3 518.1 603 515.5 L 600 511.5 L 600 508.5 L 597 504.5 L 597 500.5 L 593.5 494 L 587.5 494 L 580.5 496 L 563.5 496 Q 558.9 493.1 550.5 494 Q 547.5 491 541.5 491 L 529.5 484 L 525 479.5 L 520 472.5 L 515 460.5 L 515 431.5 L 517 428.5 L 518 419.5 L 520 417.5 L 520 412.5 L 523 408.5 L 523 404.5 L 539 374.5 L 555 351 Q 557.7 352.1 557 349.5 L 571 332 Q 573.7 333.1 573 330.5 L 584 319.5 L 584 318 L 585.5 318 L 608.5 297 L 638.5 275 L 669.5 260 L 698.5 252 Z M 739 347 L 720 351 L 706 356 L 686 367 L 671 378 L 654 396 L 651 397 L 645 406 Q 646 408 643 407 L 640 413 Q 641 415 638 414 L 638 417 L 627 433 L 619 449 L 619 453 L 617 455 L 616 462 L 614 464 L 614 469 L 617 470 L 644 459 L 665 448 L 686 435 L 710 416 Q 712 417 711 415 L 725 403 L 733 394 Q 732 391 735 392 L 744 380 Q 743 377 746 378 L 746 376 L 749 372 Q 748 369 751 370 L 756 358 L 756 352 L 754 351 L 754 350 Q 749 345 739 347 Z M 766 452 L 754 457 L 739 468 L 722 488 Q 723 490 720 489 Q 721 494 717 496 L 717 501 L 721 501 L 729 496 L 748 480 L 751 478 L 754 473 L 757 472 Q 756 469 759 470 L 762 466 Q 761 463 764 464 L 769 457 Q 771 450 766 452 Z " /><path fill="rgb(2,2,2)" stroke="rgb(2,2,2)" stroke-width="1" opacity="0.9647058823529412" d="M 1229.5 358 L 1260.5 358 L 1268.5 360 L 1284.5 361 L 1288.5 363 L 1295.5 363 L 1302.5 366 L 1308.5 366 L 1321.5 371 L 1325.5 371 L 1351.5 382 L 1354.5 382 L 1396.5 403 L 1448.5 438 L 1450.5 438 L 1471.5 451 L 1499.5 461 L 1522.5 464 L 1527 468.5 L 1528 474.5 L 1522.5 481 L 1509.5 481 L 1500.5 478 L 1493.5 478 Q 1490.3 474.7 1483.5 475 L 1481.5 473 L 1477.5 473 L 1473.5 470 L 1470.5 470 L 1440.5 454 L 1418.5 438 L 1416.5 438 L 1384.5 417 L 1353.5 401 L 1334.5 393 L 1290.5 380 L 1284.5 380 L 1273.5 377 L 1253.5 376 L 1252.5 375 L 1235.5 375 L 1226.5 377 L 1216.5 377 L 1206.5 380 L 1199.5 380 L 1170.5 388 L 1151.5 396 L 1135.5 405 L 1113 423.5 Q 1113.8 425.8 1111.5 425 L 1110 428 Q 1107.3 426.9 1108 429.5 L 1105 434 Q 1102.3 432.9 1103 435.5 L 1097 444 Q 1094.7 446.6 1088.5 446 L 1083 442.5 L 1081 436.5 Q 1090.3 417.8 1105.5 405 L 1134.5 385 L 1157.5 374 L 1195.5 363 L 1202.5 363 L 1206.5 361 L 1214.5 361 L 1229.5 358 Z " /><path fill="rgb(2,2,2)" stroke="rgb(2,2,2)" stroke-width="1" opacity="0.9647058823529412" d="M 1816.5 360 L 1832.5 361 Q 1834.8 363.7 1840.5 363 L 1845.5 366 L 1848.5 366 L 1867.5 377 L 1884 392.5 L 1892 403.5 L 1892 406.5 L 1895 410.5 L 1897 415.5 L 1897 419.5 L 1900 425.5 L 1900 451.5 L 1895 467.5 L 1882.5 487 Q 1879.9 486.3 1881 489 L 1879 489 L 1879 490.5 Q 1867.5 501.4 1850.5 507 L 1836.5 510 L 1792.5 510 L 1785.5 512 Q 1769.4 516.9 1761 529.5 L 1759 532.5 L 1750.5 542 Q 1743 543 1740 541 L 1737 536.5 L 1737 531.5 Q 1740.6 529.6 1740 525 Q 1742.7 526.1 1742 523.5 L 1751 512 L 1753 512 Q 1751.9 509.3 1754.5 510 L 1763.5 502 L 1780.5 494 L 1791.5 492 L 1814.5 492 L 1815.5 493 L 1827.5 493 L 1834.5 491 L 1841.5 491 L 1849.5 488 Q 1862.1 482.6 1870 472.5 L 1880 455.5 Q 1879.7 448.7 1883 445.5 L 1883 432.5 L 1881 428.5 L 1880 421.5 L 1878 419.5 L 1878 416.5 Q 1874.4 414.6 1875 410 Q 1872.3 411.1 1873 408.5 L 1872 406 Q 1869.3 407.1 1870 404.5 L 1867 400 Q 1864.3 401.1 1865 398.5 Q 1854.5 388.5 1840.5 382 L 1825.5 378 L 1814.5 378 L 1799.5 382 L 1780.5 395 L 1773.5 396 L 1769 392.5 Q 1766 390.5 1767 384.5 L 1772.5 377 Q 1781.6 368.6 1794.5 364 L 1801.5 363 L 1805.5 361 L 1815.5 361 L 1816.5 360 Z " /><path fill="rgb(2,2,2)" stroke="rgb(2,2,2)" stroke-width="1" opacity="0.9647058823529412" d="M 1588.5 382 L 1592.5 382 L 1602 388.5 L 1604 397.5 Q 1602.6 405.6 1596.5 409 L 1589.5 410 Q 1588.2 407.7 1583.5 409 L 1578 404.5 L 1576 398.5 L 1576 393.5 Q 1577.3 387.8 1581.5 385 L 1588.5 382 Z " /><path fill="rgb(2,2,2)" stroke="rgb(2,2,2)" stroke-width="1" opacity="0.9647058823529412" d="M 1044.5 445 Q 1056.8 442.8 1060 449.5 L 1060 456.5 L 1056.5 461 Q 1052.7 463.7 1044.5 462 L 1017.5 470 Q 993.3 481.3 975 498.5 Q 975.8 500.8 973.5 500 L 959 514.5 L 959 516 Q 956.3 514.9 957 517.5 L 954 519 L 935 543 Q 932.3 541.9 933 544.5 L 928.5 548 L 922.5 548 L 916 542.5 L 916 537.5 L 922 528 Q 924.7 529.1 924 526.5 L 943 505.5 L 943 504 Q 945.7 505.1 945 502.5 Q 960.2 485.7 978.5 472 L 999.5 459 L 1026.5 448 L 1031.5 448 L 1044.5 445 Z " /><path fill="rgb(2,2,2)" stroke="rgb(2,2,2)" stroke-width="1" opacity="0.9647058823529412" d="M 1228.5 488 Q 1235.8 487.8 1238 492.5 L 1239 498.5 L 1234.5 505 L 1217.5 510 L 1190 526 Q 1191.1 528.7 1188.5 528 L 1174 543.5 L 1161 567.5 L 1161 572.5 L 1159 575.5 L 1158 585.5 L 1156 590.5 L 1156 609.5 L 1154.5 611 Q 1151.9 614.4 1144.5 613 L 1139 608.5 L 1139 583.5 L 1142 575.5 L 1142 569.5 Q 1145 566.5 1145 560.5 L 1147 558.5 L 1147 554.5 L 1150 551.5 L 1150 548.5 L 1155 541.5 L 1155 539.5 L 1163 528.5 L 1177.5 514 L 1180.5 512 L 1198.5 499 L 1217.5 491 L 1221.5 491 L 1228.5 488 Z " /><path fill="rgb(2,2,2)" stroke="rgb(2,2,2)" stroke-width="1" opacity="0.9647058823529412" d="M 1499.5 497 L 1503.5 497 L 1508.5 499 L 1517 504 Q 1515.9 506.7 1518.5 506 L 1543 528.5 L 1552 541 Q 1554.7 539.9 1554 542.5 L 1560 549.5 L 1573 570.5 L 1589 607.5 L 1589 611.5 L 1591 613.5 Q 1591 619.5 1594 622.5 L 1594 626.5 L 1597 632.5 L 1597 637.5 L 1600 643.5 L 1602 656.5 L 1605 662.5 L 1605 670.5 L 1608 678.5 L 1609 693.5 L 1607 702 Q 1604.3 700.9 1605 703.5 L 1602 705 L 1601 721.5 L 1602 722.5 L 1602 740.5 L 1600 750.5 L 1599 773.5 L 1597 778.5 L 1597 789.5 L 1594 799.5 L 1594 808.5 L 1592 812.5 L 1592 818.5 L 1589 827.5 L 1589 835.5 L 1586 843.5 L 1586 849.5 L 1584 852.5 L 1584 858.5 L 1581 865.5 L 1581 872.5 L 1578 879.5 L 1578 887 L 1589 895.5 L 1597 907.5 L 1597 910.5 L 1599 912.5 Q 1599 918.5 1602 921.5 L 1602 927.5 L 1605 935.5 L 1605 981.5 L 1602 990.5 L 1602 998.5 L 1600 1001.5 L 1599 1009.5 L 1597 1011.5 L 1597 1016.5 L 1595 1018.5 L 1592 1028.5 Q 1580.4 1052.6 1565 1072 Q 1562.3 1070.9 1563 1073.5 L 1557 1081 L 1554 1082.5 Q 1554.8 1084.8 1552.5 1084 L 1536.5 1097 L 1525.5 1102 L 1513.5 1104 L 1510 1106.5 L 1509 1118.5 L 1507 1121.5 L 1506 1133.5 L 1504 1136.5 L 1504 1145.5 L 1501 1152.5 L 1501 1159.5 L 1499 1162.5 L 1498 1171.5 L 1496 1173.5 L 1496 1179.5 L 1493 1185.5 L 1491 1195.5 L 1475 1227.5 L 1456 1255 Q 1453.3 1253.9 1454 1256.5 L 1450 1262 Q 1447.3 1260.9 1448 1263.5 L 1446 1268.5 L 1447 1270.5 L 1446 1271.5 L 1444 1335.5 L 1445 1339.5 L 1453 1348.5 L 1454 1357.5 L 1456 1359.5 L 1456 1364.5 L 1459 1370.5 L 1459 1377.5 L 1462.5 1381 L 1483 1394 Q 1481.9 1396.7 1484.5 1396 L 1493 1402 Q 1491.9 1404.7 1494.5 1404 L 1510.5 1419 L 1512 1419 Q 1510.9 1421.7 1513.5 1421 L 1520 1426 Q 1518.9 1428.7 1521.5 1428 L 1547 1450.5 Q 1546.3 1452.8 1548.5 1452 L 1560.5 1464 L 1570.5 1469 L 1577.5 1471 L 1581.5 1474 L 1637.5 1498 L 1639.5 1500 L 1656.5 1506 L 1658.5 1508 L 1674.5 1514 L 1694.5 1524 L 1715.5 1532 L 1737.5 1543 L 1740.5 1543 L 1767.5 1556 L 1770.5 1556 L 1774.5 1559 L 1813.5 1575 L 1817.5 1578 L 1824.5 1580 L 1828.5 1583 L 1865.5 1599 L 1891.5 1612 L 1911.5 1624 L 1921.5 1625 L 1926.5 1628 L 1929.5 1628 Q 1943.9 1634.6 1953 1646.5 L 1966 1668.5 L 1969 1678.5 L 1972 1683.5 L 1972 1687.5 L 1974 1689.5 L 1974 1694.5 L 1977 1699.5 L 1977 1705.5 L 1979 1707.5 L 1980 1716.5 L 1982 1719.5 L 1982 1726.5 L 1985 1734.5 L 1985 1741.5 L 1987 1744.5 L 1988 1755.5 L 1990 1759.5 L 1990 1767.5 L 1993 1775.5 L 1993 1784.5 L 1995 1787.5 L 1996 1801.5 L 1998 1805.5 L 1998 1815.5 L 2001 1824.5 L 2001 1834.5 L 2003 1839.5 L 2003 1848.5 L 2006 1859.5 L 2006 1870.5 L 2009 1881.5 L 2009 1893.5 L 2011 1897.5 L 2011 1907.5 L 2014 1921.5 L 2014 1934.5 L 2017 1947.5 L 2017 1960.5 L 2019 1965.5 L 2019 1978.5 L 2022 1991.5 L 2022 2005.5 L 2025 2018.5 L 2025 2031.5 Q 2028.9 2037.6 2027 2049.5 L 2030 2062.5 L 2030 2077.5 L 2033 2092.5 L 2033 2106.5 L 2035 2111.5 L 2035 2126.5 L 2038 2140.5 L 2038 2159.5 L 2040 2166.5 L 2040 2175.5 L 2041 2181 L 2023.5 2181 L 2023 2179.5 L 2021 2169.5 L 2021 2153.5 L 2019 2147.5 L 2019 2132.5 L 2016 2116.5 L 2016 2099.5 L 2014 2094.5 L 2013 2072.5 L 2011 2066.5 L 2011 2052.5 L 2008 2038.5 L 2008 2025.5 L 2006 2019.5 L 2005 2000.5 L 2003 1995.5 L 2003 1982.5 L 2000 1968.5 L 2000 1954.5 L 1998 1950.5 L 1997 1932.5 L 1995 1927.5 L 1995 1914.5 L 1992 1903.5 L 1992 1890.5 L 1990 1885.5 L 1989 1869.5 L 1987 1865.5 L 1987 1853.5 L 1984 1844.5 L 1984 1832.5 L 1981 1822.5 Q 1982.5 1813.5 1979 1809.5 L 1979 1798.5 L 1976 1790.5 L 1976 1781.5 L 1974 1778.5 L 1973 1764.5 L 1971 1761.5 L 1971 1752.5 L 1968 1744.5 L 1968 1737.5 L 1966 1734.5 L 1965 1725.5 L 1963 1722.5 L 1963 1715.5 L 1960 1710.5 L 1960 1705.5 L 1958 1702.5 L 1957 1695.5 L 1955 1693.5 L 1955 1689.5 Q 1951.4 1687.6 1952 1681.5 L 1942 1663.5 L 1930.5 1650 L 1927.5 1648 L 1924.5 1645 L 1916.5 1642 L 1908.5 1642 L 1885.5 1629 L 1830.5 1602 L 1823.5 1600 L 1819.5 1597 L 1791.5 1586 L 1787.5 1583 L 1784.5 1583 L 1764.5 1573 L 1761.5 1573 L 1757.5 1570 L 1721.5 1554 L 1681.5 1538 L 1673.5 1533 L 1670.5 1533 L 1661.5 1528 L 1658.5 1528 L 1654.5 1525 L 1627.5 1514 L 1625.5 1512 L 1620.5 1511 L 1618.5 1509 L 1608.5 1506 L 1588.5 1496 L 1581.5 1493 L 1577.5 1493 L 1576 1496.5 L 1581 1504.5 L 1581 1507 Q 1583.7 1505.9 1583 1508.5 L 1597 1534.5 L 1597 1537 Q 1599.7 1535.9 1599 1538.5 L 1629 1594.5 L 1631 1603.5 L 1624.5 1612 L 1558 1653 L 1557 1657.5 L 1573.5 1671 L 1578 1673 Q 1576.9 1675.7 1579.5 1675 Q 1584.1 1681.3 1591 1684 Q 1589.9 1686.7 1592.5 1686 L 1597 1689 Q 1595.9 1691.7 1598.5 1691 L 1613 1702 Q 1611.9 1704.7 1614.5 1704 L 1637 1723.5 Q 1640.6 1726.4 1639 1734.5 L 1637 1736.5 L 1637 1739.5 L 1629 1758.5 L 1626 1762.5 L 1626 1765.5 L 1618 1782.5 L 1615 1792.5 L 1613 1794.5 L 1613 1797.5 L 1610 1801.5 L 1607 1811.5 L 1605 1813.5 L 1605 1816.5 L 1602 1820.5 L 1602 1823.5 L 1597 1831.5 L 1594 1841.5 L 1586 1856.5 L 1586 1859.5 L 1573 1884.5 L 1573 1887.5 L 1568 1895.5 L 1554 1928.5 L 1544 1946.5 L 1544 1949.5 L 1528 1979.5 L 1528 1982.5 L 1520 1998.5 L 1517 2001.5 L 1517 2004.5 L 1512 2011.5 L 1512 2014.5 L 1509 2017.5 L 1488 2061.5 L 1483 2068.5 L 1467 2100.5 L 1464 2103.5 L 1459 2115.5 L 1456 2118.5 L 1456 2121.5 Q 1447.9 2131.4 1443 2144.5 L 1440 2147.5 L 1437 2155.5 L 1424 2176.5 L 1419 2187.5 L 1415.5 2191 L 1404.5 2181 L 1402 2181 L 1402 2178.5 L 1413 2161.5 L 1413 2158 Q 1416 2159.3 1415 2155.5 L 1426 2137.5 L 1426 2135.5 L 1429 2132.5 L 1432 2124 Q 1435 2125.3 1434 2121.5 L 1439 2113.5 L 1440 2109 Q 1443.3 2110.3 1442 2105.5 L 1455 2084.5 L 1461 2070 Q 1464 2071.3 1463 2067.5 L 1471 2051.5 L 1474 2048.5 L 1474 2045.5 Q 1480 2039.5 1482 2029.5 L 1495 2007.5 L 1511 1975.5 L 1511 1972.5 L 1514 1969.5 L 1514 1966.5 L 1530 1935.5 L 1530 1932 Q 1533 1933.3 1532 1929.5 L 1551 1891.5 L 1551 1888.5 L 1559 1874.5 L 1559 1871.5 L 1567 1856.5 L 1567 1853.5 L 1575 1839.5 L 1575 1836.5 L 1583 1821.5 L 1583 1818.5 L 1588 1809.5 L 1588 1806.5 L 1596 1791.5 L 1596 1788.5 L 1599 1784.5 L 1599 1781.5 L 1604 1772.5 L 1604 1769.5 L 1607 1765.5 L 1607 1761.5 L 1609 1759.5 L 1612 1749.5 L 1620 1733.5 L 1618 1730 L 1593 1711 Q 1594.1 1708.3 1591.5 1709 L 1583 1703 Q 1584.1 1700.3 1581.5 1701 L 1532 1660.5 L 1531 1654.5 L 1532 1650.5 L 1536.5 1646 L 1609 1599.5 L 1609 1596.5 L 1599 1579.5 L 1599 1576.5 L 1596 1573.5 L 1588 1555.5 L 1583 1548.5 L 1583 1545.5 L 1580 1542.5 L 1572 1525.5 L 1567 1518.5 L 1567 1515.5 L 1564 1512.5 L 1559 1500.5 L 1554 1493.5 L 1546 1475.5 L 1540.5 1469 L 1532 1464 Q 1533.1 1461.3 1530.5 1462 L 1504.5 1437 L 1503 1437 Q 1504.1 1434.3 1501.5 1435 L 1475.5 1412 L 1470 1411 Q 1468.9 1418.9 1472 1423.5 L 1472 1448.5 L 1469 1461.5 L 1469 1471.5 L 1467 1475.5 L 1467 1485.5 L 1464 1493.5 L 1464 1504.5 L 1462 1508.5 L 1461 1521.5 L 1459 1525.5 L 1459 1533.5 L 1456 1541.5 L 1456 1550.5 L 1454 1554.5 L 1453 1565.5 L 1451 1569.5 L 1451 1577.5 L 1448 1584.5 L 1448 1592.5 L 1446 1596.5 L 1445 1607.5 L 1443 1610.5 L 1443 1618.5 L 1440 1625.5 L 1440 1634.5 L 1438 1637.5 L 1437 1648.5 L 1435 1651.5 L 1435 1658.5 L 1432 1665.5 L 1432 1672.5 L 1430 1675.5 L 1430 1680.5 L 1427 1689.5 L 1427 1696.5 L 1424 1703.5 L 1422 1718.5 L 1419 1725.5 L 1419 1732.5 Q 1415 1737 1416 1746.5 L 1414 1749.5 L 1414 1754.5 L 1411 1761.5 L 1411 1768.5 L 1408 1774.5 L 1408 1781.5 L 1406 1784.5 L 1406 1789.5 L 1403 1796.5 L 1403 1803.5 L 1400 1810.5 L 1400 1816.5 L 1398 1819.5 L 1397 1828.5 L 1395 1831.5 L 1395 1838.5 L 1393 1841.5 L 1392 1850.5 L 1390 1853.5 L 1390 1858.5 L 1387 1865.5 L 1387 1871.5 L 1384 1877.5 L 1384 1883.5 L 1382 1885.5 L 1382 1891.5 L 1379 1897.5 L 1379 1903.5 Q 1375.8 1907.8 1376 1915.5 L 1374 1918.5 L 1374 1924.5 L 1371 1930.5 L 1371 1936.5 L 1369 1939.5 L 1368 1947.5 L 1366 1950.5 L 1366 1955.5 L 1363 1962.5 L 1363 1968.5 L 1361 1970.5 L 1360 1979.5 L 1358 1981.5 L 1358 1987.5 L 1355 1993.5 L 1355 1999.5 L 1350 2013.5 L 1350 2018.5 L 1347 2024.5 L 1347 2030.5 L 1345 2032.5 Q 1345.5 2040 1342 2043.5 L 1342 2049.5 Q 1338.2 2052.7 1339 2060.5 L 1337 2062.5 Q 1337.5 2070 1334 2073.5 L 1334 2079.5 L 1332 2082.5 L 1331 2090.5 L 1326 2103.5 L 1326 2108.5 L 1323 2114.5 L 1323 2119.5 L 1321 2122.5 L 1320 2130.5 L 1318 2132.5 L 1318 2138.5 L 1315 2144.5 L 1315 2149.5 L 1310 2162.5 L 1310 2167.5 L 1307 2173.5 Q 1307.6 2178.9 1306 2181 L 1288.5 2181 Q 1287.4 2180.9 1288 2175.5 L 1291 2169.5 Q 1290.2 2164.2 1293 2162.5 L 1293 2157.5 L 1296 2151.5 L 1296 2146.5 L 1301 2132.5 L 1301 2127.5 L 1304 2121.5 L 1304 2116.5 Q 1307.5 2113 1307 2105.5 L 1309 2103.5 Q 1308.2 2095.7 1312 2092.5 L 1312 2087.5 L 1317 2073.5 L 1317 2068.5 L 1320 2063.5 L 1320 2057.5 L 1325 2044.5 L 1325 2038.5 L 1323 2035.5 L 1322 2019.5 L 1320 2014.5 L 1320 2002.5 L 1317 1990.5 L 1317 1978.5 L 1315 1974.5 L 1314 1957.5 L 1312 1952.5 L 1312 1940.5 L 1309 1930.5 L 1309 1920.5 L 1307 1916.5 L 1306 1901.5 L 1304 1897.5 L 1304 1886.5 L 1302 1883.5 L 1301 1869.5 L 1299 1865.5 L 1299 1858.5 L 1296 1849.5 L 1296 1839.5 L 1293 1831.5 L 1293 1824.5 L 1291 1820.5 L 1291 1814.5 L 1288 1805.5 L 1288 1797.5 L 1286 1794.5 L 1285 1783.5 L 1283 1780.5 L 1283 1774.5 L 1280 1766.5 L 1280 1759.5 L 1278 1756.5 L 1277 1746.5 L 1275 1743.5 L 1275 1736.5 L 1272 1729.5 L 1272 1724.5 L 1270.5 1723 L 1268.5 1722 L 1215.5 1722 L 1212 1724.5 L 1211 1733.5 L 1209 1736.5 L 1209 1743.5 L 1206 1750.5 L 1206 1757.5 L 1204 1760.5 L 1204 1767.5 L 1201 1774.5 L 1201 1782.5 L 1198 1790.5 L 1198 1795.5 L 1196 1798.5 L 1195 1809.5 L 1193 1812.5 L 1193 1820.5 L 1190 1829.5 L 1190 1836.5 L 1188 1839.5 L 1188 1848.5 L 1185 1855.5 L 1185 1865.5 L 1183 1869.5 L 1182 1883.5 L 1180 1886.5 L 1180 1895.5 L 1177 1904.5 L 1177 1915.5 L 1175 1918.5 L 1174 1933.5 L 1172 1937.5 L 1172 1948.5 L 1169 1958.5 L 1169 1971.5 L 1167 1975.5 L 1166 1993.5 L 1164 1997.5 L 1164 2010.5 L 1161 2021.5 L 1161 2035.5 L 1159 2041.5 Q 1162 2043.5 1161 2049.5 L 1164 2054.5 L 1164 2060.5 L 1166 2062.5 Q 1165.5 2070 1169 2073.5 L 1169 2078.5 L 1172 2084.5 L 1172 2089.5 L 1174 2091.5 Q 1173.7 2098.3 1177 2101.5 L 1177 2106.5 L 1180 2112.5 L 1180 2117.5 L 1182 2119.5 Q 1181.3 2126.7 1185 2129.5 L 1185 2135.5 L 1188 2140.5 L 1188 2145.5 L 1193 2158.5 L 1193 2164.5 L 1196 2170.5 L 1198 2181 L 1179.5 2181 Q 1178.4 2180.9 1179 2175.5 L 1174 2162.5 L 1174 2157.5 L 1171 2151.5 L 1171 2146.5 Q 1167.2 2143.3 1168 2135.5 L 1166 2133.5 L 1166 2128.5 L 1163 2122.5 L 1163 2117.5 Q 1159.5 2114 1160 2106.5 L 1158 2104.5 L 1158 2099.5 Q 1154.2 2096.3 1155 2088.5 L 1153 2086.5 L 1152 2078.5 L 1150 2075.5 L 1150 2070.5 L 1147 2065.5 L 1147 2059.5 L 1145 2057.5 L 1144 2048.5 L 1142 2046.5 L 1142 2040.5 L 1139 2034.5 L 1139 2029.5 L 1134 2015.5 L 1134 2009.5 L 1131 2004.5 L 1131 1998.5 L 1129 1996.5 Q 1129.5 1989 1126 1985.5 L 1126 1979.5 L 1123 1973.5 L 1123 1968.5 L 1121 1965.5 L 1120 1956.5 L 1118 1953.5 L 1118 1947.5 L 1116 1945.5 L 1115 1936.5 L 1113 1933.5 Q 1113.5 1926 1110 1922.5 L 1110 1917.5 L 1107 1910.5 L 1107 1905.5 L 1105 1902.5 L 1105 1897.5 L 1102 1890.5 L 1102 1884.5 L 1099 1878.5 L 1099 1872.5 L 1097 1870.5 L 1097 1864.5 L 1094 1858.5 L 1094 1851.5 L 1092 1848.5 L 1091 1839.5 L 1089 1836.5 L 1089 1830.5 L 1086 1824.5 L 1086 1817.5 L 1084 1814.5 L 1083 1805.5 L 1081 1802.5 L 1081 1796.5 L 1078 1790.5 L 1078 1783.5 L 1076 1780.5 L 1075 1770.5 L 1073 1767.5 L 1073 1761.5 L 1070 1754.5 L 1070 1748.5 Q 1066.1 1744.4 1067 1735.5 L 1065 1732.5 L 1065 1726.5 L 1062 1719.5 L 1062 1713.5 L 1060 1710.5 L 1059 1700.5 L 1057 1697.5 L 1057 1689.5 L 1054 1682.5 L 1054 1675.5 L 1052 1672.5 L 1051 1662.5 L 1049 1659.5 L 1049 1651.5 L 1047 1648.5 L 1046 1637.5 L 1044 1634.5 L 1043 1623.5 L 1041 1620.5 L 1041 1611.5 L 1038 1604.5 L 1038 1596.5 L 1036 1593.5 L 1035 1581.5 L 1033 1577.5 L 1033 1569.5 L 1030 1561.5 L 1030 1553.5 L 1028 1550.5 L 1028 1543.5 L 1025 1534.5 L 1025 1524.5 L 1022 1516.5 L 1022 1507.5 L 1020 1504.5 L 1020 1496.5 L 1017 1486.5 L 1017 1475.5 L 1015 1472.5 L 1014 1455.5 L 1012 1451.5 L 1012 1420.5 Q 1015 1417.3 1014 1411 L 1009.5 1411 L 982.5 1435 L 981 1435 L 979.5 1438 L 976.5 1440 L 975 1443 L 973.5 1443 L 938 1474.5 L 935 1483.5 L 917 1515.5 L 911 1530 Q 908 1528.8 909 1532.5 L 885 1575.5 L 885 1578.5 L 882 1581.5 L 879 1589.5 L 874 1596.5 L 874 1599.5 L 929.5 1636 L 941.5 1642 L 951 1649.5 Q 953.7 1651.8 953 1657.5 L 949.5 1663 L 946.5 1665 L 901 1701 Q 902.1 1703.7 899.5 1703 L 865 1731.5 L 864 1735.5 L 874 1754.5 L 874 1757.5 L 882 1773.5 L 882 1777.5 L 890 1792.5 L 890 1795.5 L 898 1811.5 L 898 1814.5 L 901 1818.5 L 901 1821.5 L 906 1830.5 L 906 1833.5 L 911 1841.5 L 914 1851.5 L 922 1865.5 L 922 1868.5 L 930 1882.5 L 930 1885.5 L 938 1899.5 L 938 1902.5 L 943 1910.5 L 943 1913.5 L 946 1916.5 L 946 1919.5 L 954 1933.5 L 954 1936.5 L 1002 2032.5 L 1007 2039.5 L 1007 2042.5 L 1010 2045.5 L 1018 2063.5 L 1023 2070.5 L 1028 2082.5 L 1031 2085.5 L 1034 2093.5 L 1039 2100.5 L 1042 2108.5 L 1057 2133.5 L 1068 2155.5 L 1071 2158.5 L 1082 2181 L 1062.5 2181 L 1062 2179.5 L 1054 2167.5 L 1046 2150.5 L 1038 2138.5 L 1025 2112.5 L 1022 2109.5 L 1020 2103.5 L 1017 2100.5 Q 1014.7 2091.3 1009 2085.5 L 998 2061.5 L 980 2029.5 L 956 1981.5 L 956 1978.5 L 932 1932.5 L 932 1929.5 L 924 1915.5 L 924 1912.5 L 921 1909.5 L 921 1906.5 L 916 1898.5 L 913 1888.5 L 908 1880.5 L 908 1877.5 L 900 1863.5 L 900 1860.5 L 895 1852.5 L 895 1849.5 L 890 1841.5 L 889 1836.5 L 879 1816.5 Q 879.6 1810.9 876 1809.5 L 876 1805.5 L 871 1797.5 L 871 1794.5 L 863 1778.5 L 863 1774.5 L 858 1766.5 L 855 1756.5 L 852 1752.5 L 852 1749.5 L 847 1741.5 L 847 1737.5 L 844 1732.5 L 844 1727.5 L 852.5 1718 L 927 1657.5 L 923.5 1652 L 868.5 1618 L 854 1606.5 L 852 1602.5 L 855 1596.5 L 855 1593.5 L 863 1581.5 L 863 1578.5 L 876 1556.5 L 876 1553.5 L 879 1550.5 L 882 1542 Q 885 1543.3 884 1539.5 L 908 1496.5 L 908 1493.5 L 905.5 1492 L 853.5 1514 L 849.5 1517 L 846.5 1517 L 831.5 1525 L 828.5 1525 L 826.5 1527 L 803.5 1536 L 801.5 1538 L 796.5 1539 L 794.5 1541 L 791.5 1541 L 775.5 1549 L 772.5 1549 L 763.5 1554 L 760.5 1554 L 738.5 1565 L 735.5 1565 L 727.5 1570 L 724.5 1570 L 709.5 1578 L 706.5 1578 L 702.5 1581 L 652.5 1602 L 579.5 1639 L 559.5 1645 L 545 1657.5 L 534 1673.5 L 534 1676.5 L 532 1678.5 Q 532.2 1683.7 529 1685.5 L 529 1689.5 L 526 1694.5 L 526 1698.5 L 524 1701.5 Q 524.3 1708.3 521 1711.5 L 521 1716.5 L 518 1723.5 L 518 1729.5 L 516 1733.5 L 515 1743.5 L 513 1746.5 L 513 1754.5 L 510 1762.5 L 510 1770.5 L 508 1774.5 L 507 1786.5 L 505 1789.5 L 505 1799.5 L 502 1808.5 L 502 1818.5 L 500 1821.5 L 500 1830.5 L 497 1840.5 L 497 1852.5 L 494 1862.5 L 494 1872.5 Q 490.6 1877.6 492 1887.5 L 489 1899.5 L 489 1912.5 L 486 1924.5 L 486 1936.5 L 484 1941.5 L 483 1960.5 L 481 1965.5 L 481 1979.5 L 478 1992.5 L 478 2005.5 L 476 2009.5 L 475 2029.5 L 473 2034.5 L 473 2048.5 L 470 2062.5 L 470 2074.5 L 468 2079.5 L 468 2093.5 L 465 2107.5 L 465 2124.5 L 462 2139.5 L 462 2152.5 L 460 2158.5 L 460 2173.5 L 459 2174.5 L 459 2181 L 441 2181 L 441 2172.5 L 443 2167.5 L 443 2149.5 L 446 2135.5 L 446 2121.5 Q 449.6 2114.6 448 2102.5 L 449 2101.5 L 449 2093.5 L 451 2088.5 L 451 2071.5 L 454 2057.5 Q 452.5 2046 456 2039.5 L 456 2026.5 L 459 2014.5 L 459 2000.5 L 462 1987.5 L 462 1975.5 Q 465.7 1969.7 464 1958.5 L 467 1945.5 L 467 1932.5 L 469 1927.5 L 470 1908.5 L 472 1904.5 L 472 1892.5 L 475 1882.5 L 475 1872.5 L 477 1867.5 L 478 1851.5 L 480 1847.5 L 480 1837.5 L 483 1827.5 L 483 1816.5 L 485 1811.5 L 486 1798.5 L 488 1795.5 L 488 1786.5 L 491 1777.5 L 491 1767.5 L 493 1764.5 L 494 1751.5 L 496 1748.5 L 496 1739.5 L 499 1732.5 L 499 1725.5 L 501 1722.5 L 502 1712.5 L 504 1710.5 L 504 1704.5 L 507 1699.5 L 507 1694.5 L 509 1692.5 L 509 1688.5 L 512 1683.5 L 512 1679.5 L 515 1675.5 L 515 1672.5 L 523 1658.5 L 523 1656 Q 526 1657.3 525 1653.5 L 534 1641 L 552.5 1628 L 561.5 1625 L 568.5 1625 L 600.5 1607 L 627.5 1594 L 661.5 1580 L 663.5 1578 L 723.5 1551 L 740.5 1545 L 760.5 1535 L 770.5 1532 L 796.5 1519 L 799.5 1519 L 801.5 1517 L 841.5 1501 L 884.5 1482 L 888.5 1479 L 902.5 1474 L 920.5 1465 L 929 1458.5 L 937.5 1449 L 951 1439 Q 949.9 1436.3 952.5 1437 L 975.5 1416 L 977 1416 Q 975.9 1413.3 978.5 1414 L 1004.5 1391 L 1022 1380 L 1025 1372.5 L 1025 1367.5 Q 1028.7 1364.7 1028 1357.5 L 1030 1354.5 L 1030 1349.5 L 1036.5 1341 Q 1038.8 1341.8 1038 1339.5 Q 1041.6 1336.6 1040 1328.5 L 1039 1327.5 L 1039 1307.5 L 1038 1306.5 L 1038 1284.5 L 1036 1277.5 L 1036 1270.5 L 1030 1262 Q 1027.3 1263.1 1028 1260.5 L 1022 1252 Q 1019.3 1253.1 1020 1250.5 L 1009 1236.5 L 1009 1234 Q 1006.3 1235.1 1007 1232.5 L 996 1214.5 L 996 1211.5 L 993 1208.5 L 993 1205.5 L 991 1203.5 Q 991.2 1198.3 988 1196.5 L 988 1192.5 L 985 1187.5 L 985 1183.5 L 982 1177.5 L 982 1172.5 L 980 1169.5 L 980 1163.5 L 977 1156.5 L 977 1149.5 L 975 1146.5 L 974 1135.5 L 972 1132.5 L 972 1124.5 L 969 1116.5 L 969 1108.5 L 966.5 1105 Q 934.3 1098.7 918 1076.5 L 916 1073.5 L 913 1069 Q 910.3 1070.1 911 1067.5 L 903 1057.5 L 892 1039.5 L 881 1014.5 Q 881.8 1009.2 879 1007.5 L 879 1002.5 L 876 996.5 L 876 988.5 L 874 985.5 Q 875.8 979.3 873 977.5 L 873 937.5 Q 875.5 936 874 930.5 L 876 927.5 L 876 921.5 L 879 916.5 L 879 912.5 L 884 902.5 L 893.5 891 L 902 886 L 903 880.5 L 900 875.5 L 900 870.5 L 897 864.5 L 897 859.5 L 895 856.5 L 895 851.5 L 892 844.5 L 892 837.5 L 890 834.5 L 889 825.5 L 887 822.5 L 887 815.5 L 884 807.5 L 884 799.5 L 881 789.5 L 881 781.5 L 879 777.5 L 879 765.5 L 876 754.5 L 875 695.5 L 876 694.5 L 876 674.5 L 879 665.5 L 879 656.5 L 881 653.5 L 881 648.5 L 884 641.5 L 884 636.5 L 886 633.5 L 890 618.5 L 892 616.5 L 892 613.5 L 900 597.5 L 911 579.5 L 929 557 L 932 555.5 L 934 552.5 L 937 551 Q 935.9 548.3 938.5 549 Q 944.9 539.9 956.5 536 L 964 540.5 L 965 548.5 L 964 551 L 962 551 Q 963.1 553.7 960.5 553 L 948 564.5 L 948 566 L 946 566 Q 947.1 568.7 944.5 568 L 943 571 Q 940.3 569.9 941 572.5 L 938 574 L 922 595.5 L 922 597.5 L 914 609.5 L 906 627.5 L 906 630.5 L 901 642.5 L 901 646.5 L 898 652.5 L 898 659.5 L 896 663.5 L 895 677.5 L 893 681.5 L 893 745.5 L 895 750.5 L 896 769.5 L 898 774.5 L 898 784.5 L 901 792.5 L 901 800.5 L 903 803.5 L 904 815.5 L 906 818.5 L 906 825.5 L 909 832.5 L 909 839.5 L 911 842.5 L 911 847.5 L 914 854.5 L 914 860.5 L 917 866.5 L 917 871.5 L 919 873.5 Q 918.4 878.9 920 881 L 928.5 881 L 936.5 884 L 942 884 L 943 877.5 L 942 876.5 L 942 865.5 L 941 864.5 L 941 847.5 L 943 840.5 L 945 838.5 L 945 835.5 L 961 803.5 L 961 800.5 L 964 795.5 L 964 791.5 L 966 789.5 Q 965.3 782.3 969 779.5 L 969 774.5 L 972 767.5 L 972 759.5 L 974 755.5 L 975 742.5 L 977 739.5 L 977 730.5 L 980 723.5 L 980 716.5 L 985 703.5 L 985 698.5 L 988 694.5 L 988 690.5 L 993 682.5 L 993 679.5 L 996 673.5 L 1003 662.5 L 1021.5 642 Q 1037.5 628 1057.5 618 L 1083.5 610 L 1097.5 609 L 1098.5 608 L 1106 611.5 Q 1108.7 613.8 1108 619.5 L 1104.5 624 L 1097.5 626 L 1084.5 627 L 1057.5 638 Q 1036.3 650.3 1021 668.5 L 1017 676 Q 1014 674.8 1015 678.5 L 1007 690.5 L 1007 693.5 L 1002 703.5 L 1002 707.5 L 999 712.5 L 999 718.5 L 997 721.5 L 996 732.5 L 994 735.5 L 994 743.5 L 991 751.5 L 991 761.5 L 989 765.5 L 988 775.5 L 986 778.5 L 986 784.5 L 983 789.5 L 983 794.5 Q 980 797.5 980 803.5 L 978 805.5 L 978 809.5 L 970 825.5 L 970 828.5 L 967 831.5 L 959 847.5 L 958 852.5 L 959 853.5 L 959 883.5 L 962 900.5 L 962 917.5 L 964 924.5 L 965 948.5 L 964 951 Q 961 953.7 954.5 954 L 948 948.5 L 948 937.5 L 945 925.5 L 945 909.5 L 941.5 906 L 924.5 898 L 916.5 898 Q 906 901 901 909.5 L 896 918.5 L 895 924.5 L 893 926.5 L 893 932.5 L 890 941.5 L 890 972.5 L 893 982.5 L 893 990.5 L 895 993.5 L 896 1001.5 L 903 1021.5 Q 912.6 1041.6 925 1058 Q 927.7 1056.9 927 1059.5 L 933.5 1067 Q 935.8 1066.3 935 1068.5 L 948.5 1080 L 961.5 1086 Q 964.6 1084.6 964 1079.5 L 961 1069.5 L 961 1058.5 L 959 1055.5 L 958 1040.5 L 956 1035.5 L 955 1018.5 L 956 1014 L 959.5 1012 L 966.5 1012 L 970 1014.5 L 972 1017.5 L 973 1029.5 L 975 1032.5 L 975 1043.5 L 978 1052.5 L 978 1062.5 L 980 1065.5 L 981 1079.5 L 983 1083.5 L 983 1093.5 L 986 1101.5 L 986 1110.5 L 988 1114.5 L 989 1126.5 L 991 1129.5 L 991 1138.5 L 994 1145.5 L 994 1152.5 L 996 1154.5 L 997 1164.5 L 999 1167.5 L 999 1173.5 Q 1002.7 1176.3 1002 1183.5 L 1004 1185.5 L 1007 1196.5 L 1010 1199.5 L 1010 1202.5 L 1028 1232.5 Q 1043.5 1254.5 1063 1272.5 L 1063 1274 L 1071 1280.5 Q 1070.3 1282.8 1072.5 1282 Q 1084.8 1296 1100 1306 Q 1098.9 1308.7 1101.5 1308 L 1142.5 1341 L 1163.5 1354 L 1176.5 1360 L 1188.5 1363 L 1191.5 1365 L 1197.5 1365 L 1206.5 1368 L 1214.5 1368 L 1222.5 1370 L 1255.5 1370 L 1262.5 1368 L 1271.5 1368 L 1280.5 1365 L 1286.5 1365 L 1309.5 1357 L 1328.5 1346 L 1365 1319 Q 1363.9 1316.3 1366.5 1317 Q 1391.6 1297.1 1413.5 1274 L 1415 1274 L 1416.5 1271 Q 1418.8 1271.8 1418 1269.5 L 1432 1254.5 L 1432 1253 Q 1434.7 1254.1 1434 1251.5 L 1437 1247 Q 1439.7 1248.1 1439 1245.5 L 1448 1233 Q 1450.7 1234.1 1450 1231.5 L 1466 1206.5 L 1474 1189.5 L 1474 1186.5 L 1477 1180.5 L 1477 1176.5 L 1479 1174.5 L 1479 1168.5 L 1482 1162.5 L 1482 1155.5 L 1484 1152.5 L 1485 1141.5 L 1487 1138.5 L 1487 1131.5 L 1490 1123.5 L 1490 1115.5 L 1492 1111.5 L 1493 1099.5 L 1495 1096.5 L 1495 1088.5 L 1498 1079.5 L 1498 1069.5 L 1500 1065.5 L 1501 1050.5 L 1503 1046.5 L 1503 1036.5 L 1506 1027.5 L 1506 1020.5 L 1509 1014 L 1517.5 1013 L 1522 1015 L 1523 1017.5 L 1523 1030.5 Q 1520.5 1032 1522 1037.5 L 1520 1040.5 L 1520 1052.5 L 1517 1061.5 Q 1518.1 1070.1 1515 1074.5 L 1515 1085 L 1524.5 1083 L 1535.5 1076 L 1551 1060.5 L 1562 1045.5 L 1562 1043 Q 1564.7 1044.1 1564 1041.5 L 1577 1018.5 L 1578 1012.5 L 1583 1002.5 L 1583 997.5 L 1586 988.5 L 1586 981.5 L 1588 976.5 L 1588 937.5 L 1586 934.5 L 1586 928.5 L 1583 922.5 L 1583 919.5 L 1572.5 904 L 1560.5 898 L 1555.5 898 L 1541.5 904 L 1535 910.5 L 1533 920.5 L 1532 946.5 Q 1529.5 948 1531 953.5 L 1528.5 956 Q 1525.3 958.3 1518.5 957 L 1516 956 Q 1512.3 952.6 1514 942.5 L 1516 931.5 L 1517 905.5 L 1519 900.5 L 1520 855.5 L 1506 828.5 L 1506 825.5 L 1503 821.5 L 1503 818.5 L 1498 809.5 L 1498 804.5 L 1495 799.5 L 1492 783.5 L 1490 780.5 L 1490 771.5 L 1487 761.5 L 1487 742.5 L 1488 740 L 1491.5 738 L 1498.5 738 L 1501 739 L 1504 743.5 L 1504 756.5 L 1506 760.5 L 1507 773.5 L 1509 776.5 L 1509 783.5 L 1512 789.5 L 1512 795.5 L 1514 797.5 L 1515 803.5 L 1517 805.5 L 1517 809.5 L 1520 813.5 L 1520 816.5 L 1536 848.5 L 1537 864.5 L 1536 865.5 L 1536 882.5 Q 1536.5 885.5 1540.5 885 L 1551.5 881 L 1558.5 881 L 1561 878.5 L 1562 869.5 L 1564 866.5 L 1564 860.5 L 1567 853.5 L 1567 845.5 L 1569 842.5 L 1570 832.5 L 1572 829.5 L 1572 822.5 L 1575 814.5 L 1575 806.5 L 1577 802.5 L 1578 789.5 L 1580 786.5 L 1580 776.5 L 1583 765.5 L 1583 750.5 L 1585 741.5 L 1585 693.5 L 1586.5 692 L 1593 693 Q 1594.4 686.3 1591 683.5 L 1591 676.5 L 1588 672.5 L 1585 654.5 L 1583 651.5 L 1583 646.5 L 1580 640.5 L 1577 626.5 L 1575 624.5 L 1575 620.5 L 1570 610.5 L 1570 607.5 L 1567 603.5 L 1564 593.5 L 1551 570.5 L 1551 568 Q 1548.3 569.1 1549 566.5 L 1535 546 L 1532 544.5 L 1530 541.5 L 1514.5 526 L 1509 523 Q 1510.1 520.3 1507.5 521 L 1495 511.5 L 1495 510 L 1493 509.5 L 1493 503.5 L 1496.5 499 L 1499.5 497 Z M 1426 1288 L 1422 1289 L 1422 1291 L 1405 1308 L 1402 1310 L 1400 1313 L 1365 1342 L 1339 1361 L 1322 1371 L 1294 1381 L 1260 1387 L 1220 1387 L 1205 1384 L 1197 1384 L 1193 1382 L 1184 1381 L 1181 1379 L 1177 1379 L 1172 1376 L 1162 1373 L 1143 1363 L 1098 1328 Q 1095 1329 1096 1326 L 1083 1315 Q 1080 1316 1081 1313 L 1072 1305 Q 1069 1306 1070 1303 L 1069 1303 L 1059 1293 L 1055 1295 L 1055 1310 L 1057 1318 L 1057 1336 L 1058 1337 L 1058 1368 Q 1061 1370 1060 1377 L 1066 1386 Q 1065 1388 1068 1387 L 1068 1390 L 1079 1403 Q 1078 1405 1081 1404 L 1081 1406 L 1107 1431 L 1110 1433 L 1111 1436 L 1120 1443 Q 1122 1442 1121 1445 L 1155 1471 Q 1157 1470 1156 1473 L 1200 1505 L 1241 1532 L 1245 1531 L 1256 1524 L 1299 1495 L 1357 1450 L 1372 1436 Q 1374 1437 1373 1434 L 1389 1421 L 1389 1420 L 1400 1409 Q 1399 1406 1402 1407 L 1408 1400 Q 1407 1397 1410 1398 L 1423 1379 Q 1423 1373 1426 1372 L 1426 1318 L 1427 1317 L 1427 1295 L 1428 1290 L 1426 1288 Z M 1041 1381 L 1036 1394 L 1036 1400 L 1034 1402 L 1034 1408 L 1031 1415 L 1031 1425 L 1030 1426 L 1031 1461 L 1034 1471 L 1034 1481 Q 1038 1485 1036 1494 L 1039 1502 L 1039 1512 L 1041 1515 L 1042 1528 L 1044 1532 L 1044 1540 L 1047 1548 L 1047 1557 L 1050 1565 L 1050 1572 L 1052 1575 L 1052 1583 L 1055 1590 L 1055 1599 L 1057 1602 L 1058 1613 L 1060 1616 L 1060 1624 L 1063 1631 L 1063 1639 L 1065 1642 L 1066 1652 L 1068 1656 L 1068 1663 L 1071 1670 L 1071 1677 L 1073 1680 L 1074 1690 L 1076 1693 L 1076 1700 L 1079 1707 L 1079 1714 L 1081 1717 L 1082 1727 L 1084 1730 L 1084 1737 L 1087 1744 L 1087 1750 L 1089 1753 L 1090 1763 L 1092 1765 L 1092 1772 L 1095 1778 L 1095 1785 L 1097 1787 Q 1096 1795 1100 1800 L 1100 1807 L 1103 1813 L 1103 1819 L 1105 1822 L 1106 1831 L 1108 1834 L 1108 1840 L 1111 1846 L 1111 1852 L 1113 1855 L 1114 1864 L 1116 1867 L 1116 1874 L 1118 1876 L 1119 1885 L 1121 1888 L 1121 1894 L 1124 1900 L 1124 1907 L 1127 1913 L 1127 1919 L 1129 1921 L 1129 1926 L 1132 1932 L 1132 1937 L 1137 1951 L 1137 1957 L 1143 1974 L 1144 1983 L 1148 1985 L 1150 1983 L 1150 1969 L 1152 1964 L 1153 1947 L 1155 1943 L 1155 1933 L 1158 1924 L 1158 1913 Q 1161 1909 1160 1901 L 1163 1892 L 1163 1882 L 1166 1873 L 1166 1863 L 1168 1859 L 1169 1846 L 1171 1843 L 1171 1834 L 1174 1827 L 1174 1819 L 1176 1816 L 1176 1809 L 1179 1801 L 1179 1794 L 1182 1787 L 1182 1780 Q 1185 1777 1184 1771 L 1187 1764 L 1187 1756 L 1190 1749 L 1192 1734 L 1195 1727 L 1195 1714 L 1192 1710 L 1192 1707 L 1185 1693 L 1184 1687 L 1182 1685 L 1182 1682 L 1179 1678 L 1179 1675 L 1174 1666 L 1174 1663 L 1171 1659 L 1171 1655 L 1166 1646 L 1163 1635 L 1158 1626 Q 1159 1622 1155 1624 L 1132 1649 Q 1133 1651 1130 1650 L 1116 1668 Q 1117 1670 1114 1669 L 1105 1681 Q 1106 1683 1103 1682 L 1102 1685 Q 1099 1684 1100 1687 L 1094 1690 L 1088 1688 L 1083 1681 L 1089 1672 Q 1088 1669 1091 1670 L 1094 1666 Q 1093 1663 1096 1664 L 1100 1659 Q 1099 1656 1102 1657 L 1105 1653 Q 1104 1650 1107 1651 L 1118 1638 Q 1117 1635 1120 1636 L 1126 1629 Q 1125 1626 1128 1627 L 1142 1609 L 1145 1608 Q 1144 1605 1147 1606 L 1149 1603 Q 1151 1604 1150 1601 L 1152 1601 L 1154 1598 L 1157 1596 L 1158 1593 L 1160 1593 L 1193 1561 L 1218 1543 Q 1221 1544 1219 1540 L 1172 1507 L 1133 1477 Q 1130 1478 1131 1475 Q 1113 1464 1099 1448 Q 1096 1449 1097 1446 L 1096 1446 L 1075 1426 Q 1076 1423 1073 1424 L 1073 1423 L 1059 1408 Q 1060 1405 1057 1406 L 1043 1383 Q 1044 1380 1041 1381 Z M 1443 1382 L 1441 1383 L 1438 1386 L 1435 1394 L 1421 1412 Q 1422 1414 1419 1413 L 1416 1418 L 1414 1421 L 1411 1422 L 1411 1424 L 1384 1451 Q 1381 1450 1382 1453 L 1365 1467 Q 1362 1466 1363 1469 L 1301 1515 Q 1298 1514 1299 1517 L 1297 1517 L 1268 1537 Q 1265 1538 1265 1542 L 1284 1554 L 1290 1560 Q 1292 1559 1291 1562 L 1298 1567 Q 1300 1566 1299 1569 L 1301 1569 L 1317 1585 Q 1319 1584 1318 1587 L 1321 1589 Q 1320 1591 1323 1590 L 1325 1593 Q 1327 1592 1326 1595 L 1331 1598 L 1331 1600 L 1355 1625 Q 1354 1627 1357 1626 L 1366 1637 Q 1365 1639 1368 1638 L 1371 1643 Q 1370 1645 1373 1644 L 1377 1650 Q 1376 1652 1379 1651 L 1382 1656 Q 1381 1658 1384 1657 L 1387 1663 L 1398 1675 L 1400 1679 L 1400 1685 L 1394 1690 Q 1387 1691 1385 1687 L 1360 1658 L 1357 1656 L 1346 1643 Q 1347 1640 1344 1641 L 1344 1640 L 1330 1626 Q 1331 1622 1326 1624 Q 1322 1626 1323 1633 L 1321 1635 L 1318 1645 L 1315 1649 L 1315 1652 L 1310 1662 L 1310 1665 L 1305 1674 L 1305 1677 L 1299 1688 L 1297 1696 L 1294 1700 L 1294 1704 L 1291 1708 L 1288 1718 L 1289 1727 L 1291 1730 L 1292 1741 L 1294 1744 L 1294 1751 L 1297 1758 L 1297 1765 L 1299 1768 L 1299 1774 L 1302 1782 L 1302 1790 Q 1306 1794 1305 1804 L 1307 1807 L 1307 1814 L 1310 1822 L 1310 1830 L 1313 1838 L 1313 1846 L 1315 1849 L 1315 1857 L 1318 1866 L 1318 1875 L 1320 1879 L 1321 1892 L 1323 1896 L 1323 1906 L 1326 1915 L 1326 1926 L 1328 1930 L 1329 1946 L 1331 1950 L 1331 1961 L 1334 1972 L 1334 1986 L 1338 1987 L 1341 1983 L 1341 1976 L 1344 1970 L 1344 1964 L 1349 1950 L 1349 1944 L 1352 1938 L 1352 1933 L 1354 1930 L 1355 1921 L 1357 1919 L 1357 1913 L 1360 1907 L 1360 1901 L 1362 1898 L 1362 1893 L 1365 1887 L 1365 1881 L 1368 1875 L 1368 1870 L 1370 1867 L 1371 1858 L 1373 1855 L 1373 1849 L 1376 1842 L 1376 1837 L 1378 1834 L 1379 1824 L 1381 1821 L 1381 1814 Q 1385 1809 1384 1801 L 1386 1799 L 1386 1792 L 1389 1786 L 1389 1779 L 1392 1771 L 1392 1766 L 1394 1763 L 1395 1754 L 1397 1751 L 1397 1744 L 1399 1741 L 1400 1731 L 1402 1728 L 1402 1722 L 1405 1715 L 1405 1708 L 1407 1705 L 1408 1694 L 1410 1691 L 1410 1684 L 1413 1678 L 1413 1670 L 1415 1667 L 1416 1656 L 1418 1653 L 1418 1645 L 1421 1638 L 1421 1631 L 1423 1627 L 1424 1617 L 1426 1614 L 1426 1606 L 1429 1598 L 1429 1590 L 1431 1586 L 1432 1575 L 1434 1572 L 1434 1563 L 1437 1555 L 1437 1547 L 1439 1544 L 1440 1531 L 1442 1528 L 1442 1519 L 1445 1510 L 1445 1501 L 1447 1497 L 1448 1484 L 1450 1480 L 1450 1470 L 1453 1459 L 1453 1447 L 1455 1442 L 1455 1426 Q 1452 1422 1453 1415 L 1450 1408 L 1450 1402 L 1448 1400 L 1447 1392 L 1445 1390 Q 1446 1384 1443 1382 Z M 1241 1549 L 1219 1563 L 1190 1589 Q 1187 1588 1188 1591 L 1171 1607 L 1172 1613 L 1177 1622 L 1177 1625 L 1182 1635 L 1183 1640 L 1185 1642 L 1185 1645 L 1188 1649 L 1188 1652 L 1190 1654 L 1193 1665 L 1196 1669 L 1196 1672 L 1198 1674 L 1198 1677 L 1201 1681 L 1201 1685 L 1204 1689 L 1204 1692 L 1206 1694 L 1209 1704 L 1211 1705 L 1273 1705 L 1280 1691 L 1280 1687 L 1288 1672 L 1288 1669 L 1299 1644 L 1299 1641 L 1301 1639 L 1301 1636 L 1304 1632 L 1304 1629 L 1309 1619 L 1309 1616 L 1312 1612 L 1312 1605 L 1311 1605 L 1290 1584 L 1288 1584 L 1287 1581 Q 1284 1582 1285 1579 L 1260 1559 L 1241 1549 Z " /><path fill="rgb(2,2,2)" stroke="rgb(2,2,2)" stroke-width="1" opacity="0.9647058823529412" d="M 1288.5 533 L 1305.5 533 L 1316.5 536 L 1322.5 536 L 1330.5 539 L 1357.5 555 L 1379 575.5 L 1380.5 578 Q 1382.8 577.3 1382 579.5 L 1385 584 Q 1387.7 582.9 1387 585.5 L 1398 601 Q 1400.7 599.9 1400 602.5 L 1427 640.5 L 1461.5 677 L 1474.5 687 L 1476.5 687 L 1488.5 695 Q 1496.7 696.3 1501.5 701 L 1504.5 701 L 1516.5 706 L 1521.5 706 L 1528 709.5 L 1530 714.5 L 1530 718.5 L 1526.5 723 L 1520.5 725 L 1488.5 714 L 1464.5 701 L 1450 691 Q 1451.1 688.3 1448.5 689 L 1429 670.5 L 1423 662 Q 1420.3 663.1 1421 660.5 L 1407 644.5 L 1397 630.5 L 1397 628 Q 1394.3 629.1 1395 626.5 L 1380.5 608 L 1371.5 603 L 1367.5 603 L 1359.5 600 L 1334.5 599 L 1316.5 603 L 1301.5 611 L 1292.5 611 Q 1286.5 609.5 1288 600.5 L 1291 596 L 1303.5 589 L 1317.5 584 L 1323.5 584 L 1334.5 581 L 1351.5 581 L 1355.5 582 L 1357 578.5 Q 1342.9 563.6 1322.5 555 L 1311.5 552 L 1294.5 550 L 1272.5 555 L 1262.5 560 L 1246 572 L 1246 574 Q 1243.3 572.9 1244 575.5 L 1241 577 L 1233 588.5 L 1227 602.5 L 1222.5 608 L 1215.5 609 L 1211 605.5 L 1209 599.5 Q 1211.8 597.8 1211 592.5 L 1222 572 Q 1224.7 573.1 1224 570.5 L 1236.5 557 L 1239.5 555 L 1259.5 541 L 1272.5 536 L 1277.5 536 L 1281.5 534 Q 1287 535.5 1288.5 533 Z " /><path fill="rgb(2,2,2)" stroke="rgb(2,2,2)" stroke-width="1" opacity="0.9647058823529412" d="M 1707.5 570 L 1715.5 571 L 1724 577.5 L 1727 584.5 L 1727 589.5 L 1722 600 L 1717.5 603 L 1705.5 604 Q 1698.1 602.9 1695 597.5 L 1692 586.5 L 1694 579.5 L 1698.5 574 L 1707.5 570 Z " /><path fill="rgb(2,2,2)" stroke="rgb(2,2,2)" stroke-width="1" opacity="0.9647058823529412" d="M 1262.5 778 Q 1270.2 776.3 1272 780.5 L 1273 782.5 L 1272 783.5 L 1271 799.5 Q 1273.7 802.8 1273 809.5 L 1281 820.5 L 1283 824.5 L 1283 829.5 Q 1280.8 833.3 1273.5 832 L 1269 828.5 L 1264 821.5 L 1264 818.5 L 1261 814.5 Q 1261.8 809.2 1259 807.5 L 1259 782.5 L 1262.5 778 Z " /><path fill="rgb(2,2,2)" stroke="rgb(2,2,2)" stroke-width="1" opacity="0.9647058823529412" d="M 1305.5 796 L 1313.5 799 L 1334.5 812 L 1358.5 820 L 1367.5 821 L 1371.5 823 L 1380.5 823 L 1386.5 825 L 1433.5 827 L 1440 831.5 L 1440 840.5 L 1438.5 842 Q 1435.9 841.3 1437 844 L 1434.5 844 Q 1432.8 846.8 1426.5 845 L 1425.5 844 L 1383.5 842 L 1376.5 840 L 1364.5 839 L 1360.5 837 L 1355.5 837 L 1323.5 826 L 1301 813 Q 1302 810 1299 811 L 1299 808.5 Q 1296.7 807.3 1298 802.5 L 1302.5 797 L 1305.5 796 Z " /><path fill="rgb(2,2,2)" stroke="rgb(2,2,2)" stroke-width="1" opacity="0.9647058823529412" d="M 1166.5 802 Q 1173.4 801.1 1175 805.5 Q 1178.2 807.8 1177 814.5 L 1173.5 819 L 1150.5 834 L 1124.5 845 L 1120.5 845 L 1117.5 847 L 1113.5 847 L 1105.5 850 L 1098.5 850 L 1086.5 853 L 1064.5 853 L 1061.5 854 L 1060.5 853 L 1036.5 853 L 1033 851 L 1031 843.5 L 1034.5 837 L 1036.5 836 L 1080.5 836 L 1086.5 834 L 1099.5 833 L 1103.5 831 L 1109.5 831 L 1112.5 829 L 1125.5 826 L 1138.5 820 L 1166.5 802 Z " /><path fill="rgb(2,2,2)" stroke="rgb(2,2,2)" stroke-width="1" opacity="0.9647058823529412" d="M 1209.5 873 L 1211.5 874 L 1213.5 874 L 1217 876.5 L 1222 886.5 L 1222 890.5 L 1225 895.5 L 1225 900.5 L 1228 906.5 L 1228 912.5 L 1230 915.5 L 1231 954.5 L 1230 955.5 L 1230 996.5 L 1225.5 1001 L 1220.5 1002 L 1216 998.5 L 1215 992.5 L 1216 991.5 L 1216 922.5 L 1214 917.5 L 1213 907.5 L 1211 904.5 L 1211 899.5 L 1208 895.5 L 1208 891.5 L 1203 881.5 L 1203 877.5 L 1209.5 873 Z " /><path fill="rgb(2,2,2)" stroke="rgb(2,2,2)" stroke-width="1" opacity="0.9647058823529412" d="M 1109.5 897 L 1119.5 898 L 1129 904.5 L 1135 915.5 L 1135 933.5 L 1132 940.5 L 1126.5 946 L 1117.5 950 L 1109.5 950 L 1097 944 L 1091 932.5 L 1091 914.5 L 1094 910.5 L 1094 907.5 L 1100.5 901 L 1109.5 897 Z " /><path fill="rgb(2,2,2)" stroke="rgb(2,2,2)" stroke-width="1" opacity="0.9647058823529412" d="M 1363.5 897 Q 1378.1 897.9 1384 907.5 L 1387 913.5 L 1388 927.5 Q 1385.5 929 1387 934.5 L 1384 940.5 L 1378.5 946 L 1369.5 950 L 1362.5 950 L 1355.5 948 L 1349 942.5 L 1344 934.5 L 1343 922.5 L 1344 921.5 L 1344 913.5 L 1347 907 Q 1349.7 908.1 1349 905.5 Q 1353.8 898.8 1363.5 897 Z " /><path fill="rgb(2,2,2)" stroke="rgb(2,2,2)" stroke-width="1" opacity="0.9647058823529412" d="M 1206.5 1070 L 1213.5 1070 L 1240.5 1080 L 1265.5 1070 L 1272.5 1070 Q 1277.9 1071.6 1277 1079.5 L 1273.5 1084 L 1260.5 1089 L 1257.5 1089 L 1245.5 1095 L 1233.5 1095 L 1221.5 1089 L 1212.5 1087 L 1203 1081.5 L 1203 1072.5 L 1204.5 1071 L 1206.5 1070 Z " /><path fill="rgb(2,2,2)" stroke="rgb(2,2,2)" stroke-width="1" opacity="0.9647058823529412" d="M 1363.5 1154 L 1366.5 1154 L 1373 1158 L 1379 1165.5 L 1379 1168 Q 1381.7 1166.9 1381 1169.5 L 1382 1173 Q 1385 1171.8 1384 1175.5 L 1389 1185.5 L 1390 1193.5 L 1392 1196.5 L 1392 1214.5 Q 1390.3 1218.8 1382.5 1217 L 1380 1211.5 L 1380 1203.5 L 1376 1187.5 Q 1370.4 1173.1 1360 1163.5 L 1359 1158.5 L 1361.5 1155 L 1363.5 1154 Z " /><path fill="rgb(2,2,2)" stroke="rgb(2,2,2)" stroke-width="1" opacity="0.9647058823529412" d="M 1118.5 1155 Q 1125.8 1153.8 1127 1158.5 L 1127 1162.5 L 1119 1172.5 L 1118 1176 Q 1114.7 1174.7 1116 1179.5 L 1113 1183.5 L 1110 1196.5 L 1108 1199.5 L 1108 1216.5 L 1104.5 1220 Q 1098.7 1220.8 1097 1217.5 L 1096 1203.5 L 1097 1202.5 L 1097 1192.5 L 1099 1189.5 L 1099 1184.5 Q 1102.6 1182.6 1102 1176.5 L 1110 1162.5 L 1116.5 1156 L 1118.5 1155 Z " /><path fill="rgb(2,2,2)" stroke="rgb(2,2,2)" stroke-width="1" opacity="0.9647058823529412" d="M 1218.5 1171 L 1271.5 1171 L 1284.5 1174 L 1290.5 1174 L 1293.5 1176 L 1298.5 1176 L 1304.5 1179 L 1308.5 1179 L 1316.5 1182 L 1334 1192 L 1337 1197.5 L 1337 1203.5 L 1336 1206 L 1332.5 1208 L 1326.5 1208 L 1310.5 1198 L 1286.5 1190 L 1278.5 1190 L 1273.5 1188 L 1264.5 1188 L 1263.5 1187 L 1226.5 1187 L 1225.5 1188 L 1215.5 1188 L 1210.5 1190 L 1203.5 1190 L 1195.5 1193 L 1190.5 1193 L 1177.5 1198 L 1174.5 1198 L 1159.5 1206 L 1151.5 1207 L 1147 1203.5 L 1146 1197.5 L 1150.5 1191 L 1178.5 1179 L 1183.5 1179 L 1186.5 1177 L 1194.5 1176 L 1198.5 1174 L 1205.5 1174 L 1218.5 1171 Z " /><path fill="rgb(2,2,2)" stroke="rgb(2,2,2)" stroke-width="1" opacity="0.9647058823529412" d="M 1236.5 1220 L 1248.5 1220 L 1249.5 1221 L 1263.5 1222 L 1277.5 1227 L 1283 1231 L 1283 1237.5 L 1281 1238 L 1281 1239.5 Q 1279.5 1242.5 1273.5 1241 L 1268.5 1238 L 1258.5 1235 L 1253.5 1235 L 1247.5 1233 L 1237.5 1233 L 1231.5 1235 L 1225.5 1235 L 1219.5 1238 L 1207.5 1241 L 1203 1237.5 Q 1201.3 1230.8 1204.5 1229 L 1214.5 1224 L 1236.5 1220 Z " /><path fill="rgb(2,2,2)" stroke="rgb(2,2,2)" stroke-width="1" opacity="0.9647058823529412" d="M 582.5 1707 L 584.5 1708 L 586.5 1708 L 590 1710.5 L 595 1724.5 L 595 1728.5 L 598 1734.5 L 601 1748.5 L 603 1751.5 L 603 1756.5 L 606 1761.5 L 606 1766.5 L 611 1779.5 L 611 1785.5 L 614 1790.5 L 614 1796.5 L 616 1798.5 L 617 1807.5 L 619 1810.5 L 619 1815.5 L 622 1821.5 L 622 1827.5 L 624 1830.5 L 625 1839.5 L 627 1842.5 L 627 1849.5 L 630 1855.5 L 630 1861.5 L 632 1864.5 L 633 1874.5 L 635 1877.5 L 635 1884.5 L 638 1891.5 L 640 1907.5 L 643 1915.5 L 643 1922.5 L 646 1929.5 L 648 1947.5 L 651 1955.5 L 651 1964.5 L 653 1967.5 L 654 1979.5 L 656 1983.5 L 656 1991.5 L 659 1999.5 L 659 2008.5 L 662 2017.5 L 662 2025.5 L 664 2029.5 L 664 2038.5 L 667 2047.5 L 667 2057.5 L 669 2061.5 L 670 2075.5 L 672 2079.5 L 672 2089.5 L 675 2099.5 L 675 2111.5 L 677 2115.5 L 678 2132.5 L 680 2137.5 L 680 2149.5 L 683 2160.5 L 683 2172.5 L 685 2181 L 667.5 2181 L 667 2179.5 L 666 2178.5 L 666 2166.5 L 664 2162.5 L 663 2144.5 L 661 2139.5 L 661 2127.5 L 658 2116.5 L 658 2105.5 L 656 2101.5 L 656 2091.5 L 653 2081.5 L 653 2070.5 L 650 2060.5 L 650 2051.5 Q 646.7 2047.8 648 2039.5 L 645 2030.5 L 645 2021.5 L 642 2013.5 L 642 2005.5 L 640 2002.5 L 640 1994.5 L 637 1985.5 L 637 1977.5 L 635 1974.5 L 634 1962.5 L 632 1959.5 L 632 1952.5 L 629 1944.5 L 629 1936.5 L 627 1933.5 L 626 1923.5 L 624 1920.5 L 624 1913.5 L 621 1905.5 L 621 1897.5 L 619 1894.5 L 618 1884.5 L 616 1881.5 L 616 1874.5 L 613 1867.5 L 613 1860.5 L 611 1857.5 L 610 1847.5 L 608 1843.5 L 608 1837.5 L 605 1831.5 L 605 1826.5 L 600 1812.5 L 600 1806.5 L 597 1801.5 L 597 1795.5 L 595 1793.5 L 594 1785.5 L 592 1783.5 L 592 1777.5 L 589 1772.5 L 589 1767.5 L 584 1754.5 L 584 1750.5 L 581 1745.5 L 581 1740.5 L 579 1738.5 L 579 1734.5 L 573 1714.5 L 578.5 1708 L 582.5 1707 Z " /><path fill="rgb(2,2,2)" stroke="rgb(2,2,2)" stroke-width="1" opacity="0.9647058823529412" d="M 1895.5 1708 Q 1905.8 1705.8 1908 1711.5 L 1909 1715.5 Q 1906.3 1717.3 1908 1723.5 L 1905 1728.5 L 1905 1733.5 Q 1901.7 1736.7 1902 1743.5 L 1900 1745.5 L 1900 1750.5 L 1897 1756.5 L 1897 1761.5 L 1895 1763.5 Q 1895.5 1771 1892 1774.5 L 1892 1779.5 L 1889 1784.5 L 1889 1790.5 L 1887 1792.5 L 1887 1797.5 L 1884 1804.5 L 1884 1810.5 L 1881 1816.5 L 1881 1822.5 L 1879 1825.5 L 1878 1834.5 L 1876 1837.5 L 1876 1843.5 L 1873 1849.5 L 1873 1855.5 L 1871 1858.5 L 1870 1868.5 L 1868 1871.5 L 1868 1878.5 L 1865 1885.5 L 1865 1891.5 L 1860 1908.5 L 1860 1915.5 L 1857 1923.5 L 1857 1930.5 L 1855 1933.5 L 1855 1939.5 L 1852 1948.5 L 1852 1956.5 L 1849 1964.5 L 1849 1972.5 L 1847 1975.5 L 1847 1983.5 L 1844 1991.5 L 1844 2000.5 L 1842 2004.5 L 1841 2016.5 L 1839 2020.5 L 1838 2034.5 L 1836 2038.5 L 1836 2048.5 L 1833 2057.5 Q 1834.3 2065.8 1831 2069.5 L 1831 2078.5 L 1828 2087.5 L 1828 2098.5 L 1826 2103.5 L 1825 2118.5 L 1823 2122.5 L 1823 2134.5 L 1820 2145.5 L 1820 2157.5 L 1818 2162.5 L 1817 2181 L 1798.5 2181 L 1798 2179.5 L 1801 2167.5 L 1801 2154.5 L 1803 2150.5 L 1804 2133.5 L 1806 2129.5 L 1806 2116.5 L 1809 2106.5 L 1809 2096.5 L 1811 2092.5 L 1812 2076.5 L 1814 2072.5 L 1814 2062.5 L 1817 2053.5 L 1817 2044.5 L 1819 2040.5 L 1820 2027.5 L 1822 2023.5 L 1822 2013.5 L 1825 2004.5 L 1825 1996.5 L 1827 1992.5 L 1827 1984.5 L 1830 1976.5 L 1830 1967.5 L 1832 1964.5 L 1833 1952.5 L 1835 1949.5 L 1836 1938.5 L 1838 1935.5 L 1838 1927.5 L 1840 1924.5 L 1841 1912.5 L 1843 1909.5 L 1843 1902.5 L 1846 1895.5 L 1846 1887.5 L 1848 1884.5 L 1849 1874.5 L 1851 1871.5 L 1851 1865.5 L 1854 1858.5 L 1854 1851.5 L 1856 1848.5 L 1857 1839.5 L 1859 1836.5 L 1859 1830.5 L 1862 1824.5 L 1862 1818.5 L 1864 1815.5 L 1865 1806.5 L 1867 1804.5 L 1867 1798.5 L 1870 1792.5 L 1870 1786.5 L 1872 1784.5 Q 1871.5 1777 1875 1773.5 L 1875 1768.5 L 1878 1763.5 L 1878 1758.5 L 1880 1756.5 Q 1879.3 1749.3 1883 1746.5 L 1883 1741.5 L 1886 1736.5 L 1886 1730.5 L 1888 1728.5 L 1889 1720.5 L 1891 1718.5 L 1891 1713.5 L 1895.5 1708 Z " /><path fill="rgb(0,0,0)" stroke="rgb(0,0,0)" stroke-width="1" opacity="0" d="M 0 0 L 2480 0 L 2480 2480 L 0 2480 L 0 0 Z M 1627 202 L 1613 206 L 1601 214 Q 1598 213 1599 216 L 1593 221 Q 1594 223 1591 222 L 1585 235 L 1586 239 Q 1589 243 1595 244 L 1602 240 L 1608 232 Q 1607 229 1610 230 L 1610 228 L 1625 220 L 1630 219 L 1643 219 L 1658 223 Q 1668 229 1676 238 Q 1675 241 1678 240 L 1681 247 Q 1680 253 1683 256 L 1681 272 L 1673 286 L 1664 294 L 1658 297 L 1632 305 L 1617 313 L 1604 328 L 1596 349 L 1599 355 L 1604 357 L 1612 356 L 1615 352 L 1618 341 L 1623 333 L 1633 324 L 1644 319 Q 1650 319 1653 316 L 1657 316 L 1670 311 L 1681 303 L 1684 301 L 1695 286 L 1700 272 L 1700 262 L 1701 261 L 1698 241 L 1687 224 L 1678 215 L 1664 207 L 1646 202 L 1627 202 Z M 699 252 L 670 260 L 639 275 L 609 297 L 586 318 L 584 318 L 584 320 L 573 331 Q 574 333 571 332 L 557 350 Q 558 352 555 351 L 539 375 L 523 405 L 523 409 L 520 413 L 520 418 L 518 420 L 517 429 L 515 432 L 515 461 L 520 473 L 525 480 L 530 484 L 542 491 Q 548 491 551 494 Q 559 493 564 496 L 581 496 L 588 494 L 594 494 L 597 501 L 597 505 L 600 509 L 600 512 L 603 516 Q 602 518 605 517 L 608 523 L 621 533 L 629 537 L 644 541 L 663 541 L 670 539 L 677 539 L 690 534 L 694 534 L 704 552 L 715 558 L 727 561 L 743 560 L 758 555 L 759 557 L 759 567 L 762 573 L 762 576 L 767 583 L 782 595 L 793 599 Q 799 600 802 597 L 803 595 L 802 586 L 785 576 L 779 570 L 776 562 L 776 556 Q 779 553 779 547 L 788 531 L 787 524 L 782 520 L 777 520 L 757 536 L 737 543 L 728 543 L 715 538 L 712 533 L 712 527 L 740 510 L 759 494 Q 761 495 760 492 L 762 492 L 771 483 Q 770 480 773 481 L 783 468 L 787 460 Q 786 454 789 452 L 789 448 L 786 442 Q 787 439 784 440 L 784 438 L 777 435 L 763 435 L 753 438 L 729 453 Q 715 464 706 480 Q 707 483 704 482 L 701 489 L 701 492 L 698 496 L 698 501 L 695 508 L 695 513 L 693 515 L 681 520 L 671 523 L 664 523 L 657 525 L 641 523 L 625 514 L 614 501 Q 615 495 612 493 L 613 491 L 622 486 L 625 486 L 652 475 L 680 460 L 704 444 L 727 425 L 730 423 L 731 420 L 734 419 Q 733 416 736 417 L 736 415 L 739 414 Q 738 411 741 412 L 747 405 Q 746 402 749 403 L 755 395 Q 754 392 757 393 Q 759 385 765 381 L 773 362 L 773 347 L 768 339 L 760 332 L 747 329 L 726 331 L 699 340 L 678 351 L 658 366 L 634 391 Q 635 393 632 392 L 621 408 L 605 438 L 605 441 L 602 445 Q 603 449 600 450 L 600 454 L 597 459 L 597 467 L 595 474 L 592 477 Q 585 479 575 478 L 574 479 L 572 478 L 554 477 L 541 470 L 534 462 Q 535 457 532 456 L 532 437 Q 535 434 534 427 L 540 410 L 542 408 L 542 405 L 550 392 Q 549 388 552 389 Q 558 375 569 364 Q 568 361 571 362 L 574 357 L 590 340 L 590 338 L 593 337 L 595 334 L 598 332 L 602 327 Q 604 328 603 325 L 628 305 L 659 284 L 669 279 L 680 276 L 682 274 L 704 269 Q 710 268 713 271 Q 724 273 726 267 L 725 259 Q 718 249 699 252 Z M 1230 358 L 1215 361 L 1207 361 L 1203 363 L 1196 363 L 1158 374 L 1135 385 L 1106 405 Q 1090 418 1081 437 L 1083 443 L 1089 446 Q 1095 447 1097 444 L 1103 436 Q 1102 433 1105 434 L 1108 430 Q 1107 427 1110 428 L 1112 425 Q 1114 426 1113 424 L 1136 405 L 1152 396 L 1171 388 L 1200 380 L 1207 380 L 1217 377 L 1227 377 L 1236 375 L 1253 375 L 1254 376 L 1274 377 L 1285 380 L 1291 380 L 1335 393 L 1354 401 L 1385 417 L 1417 438 L 1419 438 L 1441 454 L 1471 470 L 1474 470 L 1478 473 L 1482 473 L 1484 475 Q 1490 475 1494 478 L 1501 478 L 1510 481 L 1523 481 L 1528 475 L 1527 469 L 1523 464 L 1500 461 L 1472 451 L 1451 438 L 1449 438 L 1397 403 L 1355 382 L 1352 382 L 1326 371 L 1322 371 L 1309 366 L 1303 366 L 1296 363 L 1289 363 L 1285 361 L 1269 360 L 1261 358 L 1230 358 Z M 1817 360 L 1816 361 L 1806 361 L 1802 363 L 1795 364 Q 1782 369 1773 377 L 1767 385 Q 1766 391 1769 393 L 1774 396 L 1781 395 L 1800 382 L 1815 378 L 1826 378 L 1841 382 Q 1854 389 1865 399 Q 1864 401 1867 400 L 1870 405 Q 1869 407 1872 406 L 1873 409 Q 1872 411 1875 410 Q 1874 415 1878 417 L 1878 420 L 1880 422 L 1881 429 L 1883 433 L 1883 446 Q 1880 449 1880 456 L 1870 473 Q 1862 483 1850 488 L 1842 491 L 1835 491 L 1828 493 L 1816 493 L 1815 492 L 1792 492 L 1781 494 L 1764 502 L 1755 510 Q 1752 509 1753 512 L 1751 512 L 1742 524 Q 1743 526 1740 525 Q 1741 530 1737 532 L 1737 537 L 1740 541 Q 1743 543 1751 542 L 1759 533 L 1761 530 Q 1769 517 1786 512 L 1793 510 L 1837 510 L 1851 507 Q 1867 501 1879 491 L 1879 489 L 1881 489 Q 1880 486 1883 487 L 1895 468 L 1900 452 L 1900 426 L 1897 420 L 1897 416 L 1895 411 L 1892 407 L 1892 404 L 1884 393 L 1868 377 L 1849 366 L 1846 366 L 1841 363 Q 1835 364 1833 361 L 1817 360 Z M 1589 382 L 1582 385 Q 1577 388 1576 394 L 1576 399 L 1578 405 L 1584 409 Q 1588 408 1590 410 L 1597 409 Q 1603 406 1604 398 L 1602 389 L 1593 382 L 1589 382 Z M 1045 445 L 1032 448 L 1027 448 L 1000 459 L 979 472 Q 960 486 945 503 Q 946 505 943 504 L 943 506 L 924 527 Q 925 529 922 528 L 916 538 L 916 543 L 923 548 L 929 548 L 933 545 Q 932 542 935 543 L 954 519 L 957 518 Q 956 515 959 516 L 959 515 L 974 500 Q 976 501 975 499 Q 993 481 1018 470 L 1045 462 Q 1053 464 1057 461 L 1060 457 L 1060 450 Q 1057 443 1045 445 Z M 1229 488 L 1222 491 L 1218 491 L 1199 499 L 1181 512 L 1178 514 L 1163 529 L 1155 540 L 1155 542 L 1150 549 L 1150 552 L 1147 555 L 1147 559 L 1145 561 Q 1145 567 1142 570 L 1142 576 L 1139 584 L 1139 609 L 1145 613 Q 1152 614 1155 611 L 1156 610 L 1156 591 L 1158 586 L 1159 576 L 1161 573 L 1161 568 L 1174 544 L 1189 528 Q 1191 529 1190 526 L 1218 510 L 1235 505 L 1239 499 L 1238 493 Q 1236 488 1229 488 Z M 1500 497 L 1497 499 L 1493 504 L 1493 510 L 1495 510 L 1495 512 L 1508 521 Q 1510 520 1509 523 L 1515 526 L 1530 542 L 1532 545 L 1535 546 L 1549 567 Q 1548 569 1551 568 L 1551 571 L 1564 594 L 1567 604 L 1570 608 L 1570 611 L 1575 621 L 1575 625 L 1577 627 L 1580 641 L 1583 647 L 1583 652 L 1585 655 L 1588 673 L 1591 677 L 1591 684 Q 1594 686 1593 693 L 1587 692 L 1585 694 L 1585 742 L 1583 751 L 1583 766 L 1580 777 L 1580 787 L 1578 790 L 1577 803 L 1575 807 L 1575 815 L 1572 823 L 1572 830 L 1570 833 L 1569 843 L 1567 846 L 1567 854 L 1564 861 L 1564 867 L 1562 870 L 1561 879 L 1559 881 L 1552 881 L 1541 885 Q 1536 886 1536 883 L 1536 866 L 1537 865 L 1536 849 L 1520 817 L 1520 814 L 1517 810 L 1517 806 L 1515 804 L 1514 798 L 1512 796 L 1512 790 L 1509 784 L 1509 777 L 1507 774 L 1506 761 L 1504 757 L 1504 744 L 1501 739 L 1499 738 L 1492 738 L 1488 740 L 1487 743 L 1487 762 L 1490 772 L 1490 781 L 1492 784 L 1495 800 L 1498 805 L 1498 810 L 1503 819 L 1503 822 L 1506 826 L 1506 829 L 1520 856 L 1519 901 L 1517 906 L 1516 932 L 1514 943 Q 1512 953 1516 956 L 1519 957 Q 1525 958 1529 956 L 1531 954 Q 1530 948 1532 947 L 1533 921 L 1535 911 L 1542 904 L 1556 898 L 1561 898 L 1573 904 L 1583 920 L 1583 923 L 1586 929 L 1586 935 L 1588 938 L 1588 977 L 1586 982 L 1586 989 L 1583 998 L 1583 1003 L 1578 1013 L 1577 1019 L 1564 1042 Q 1565 1044 1562 1043 L 1562 1046 L 1551 1061 L 1536 1076 L 1525 1083 L 1515 1085 L 1515 1075 Q 1518 1070 1517 1062 L 1520 1053 L 1520 1041 L 1522 1038 Q 1521 1032 1523 1031 L 1523 1018 L 1522 1015 L 1518 1013 L 1509 1014 L 1506 1021 L 1506 1028 L 1503 1037 L 1503 1047 L 1501 1051 L 1500 1066 L 1498 1070 L 1498 1080 L 1495 1089 L 1495 1097 L 1493 1100 L 1492 1112 L 1490 1116 L 1490 1124 L 1487 1132 L 1487 1139 L 1485 1142 L 1484 1153 L 1482 1156 L 1482 1163 L 1479 1169 L 1479 1175 L 1477 1177 L 1477 1181 L 1474 1187 L 1474 1190 L 1466 1207 L 1450 1232 Q 1451 1234 1448 1233 L 1439 1246 Q 1440 1248 1437 1247 L 1434 1252 Q 1435 1254 1432 1253 L 1432 1255 L 1418 1270 Q 1419 1272 1417 1271 L 1415 1274 L 1414 1274 Q 1392 1297 1367 1317 Q 1364 1316 1365 1319 L 1329 1346 L 1310 1357 L 1287 1365 L 1281 1365 L 1272 1368 L 1263 1368 L 1256 1370 L 1223 1370 L 1215 1368 L 1207 1368 L 1198 1365 L 1192 1365 L 1189 1363 L 1177 1360 L 1164 1354 L 1143 1341 L 1102 1308 Q 1099 1309 1100 1306 Q 1085 1296 1073 1282 Q 1070 1283 1071 1281 L 1063 1274 L 1063 1273 Q 1044 1254 1028 1233 L 1010 1203 L 1010 1200 L 1007 1197 L 1004 1186 L 1002 1184 Q 1003 1176 999 1174 L 999 1168 L 997 1165 L 996 1155 L 994 1153 L 994 1146 L 991 1139 L 991 1130 L 989 1127 L 988 1115 L 986 1111 L 986 1102 L 983 1094 L 983 1084 L 981 1080 L 980 1066 L 978 1063 L 978 1053 L 975 1044 L 975 1033 L 973 1030 L 972 1018 L 970 1015 L 967 1012 L 960 1012 L 956 1014 L 955 1019 L 956 1036 L 958 1041 L 959 1056 L 961 1059 L 961 1070 L 964 1080 Q 965 1085 962 1086 L 949 1080 L 935 1069 Q 936 1066 934 1067 L 927 1060 Q 928 1057 925 1058 Q 913 1042 903 1022 L 896 1002 L 895 994 L 893 991 L 893 983 L 890 973 L 890 942 L 893 933 L 893 927 L 895 925 L 896 919 L 901 910 Q 906 901 917 898 L 925 898 L 942 906 L 945 910 L 945 926 L 948 938 L 948 949 L 955 954 Q 961 954 964 951 L 965 949 L 964 925 L 962 918 L 962 901 L 959 884 L 959 854 L 958 853 L 959 848 L 967 832 L 970 829 L 970 826 L 978 810 L 978 806 L 980 804 Q 980 797 983 795 L 983 790 L 986 785 L 986 779 L 988 776 L 989 766 L 991 762 L 991 752 L 994 744 L 994 736 L 996 733 L 997 722 L 999 719 L 999 713 L 1002 708 L 1002 704 L 1007 694 L 1007 691 L 1015 679 Q 1014 675 1017 676 L 1021 669 Q 1036 650 1058 638 L 1085 627 L 1098 626 L 1105 624 L 1108 620 Q 1109 614 1106 612 L 1099 608 L 1098 609 L 1084 610 L 1058 618 Q 1038 628 1022 642 L 1003 663 L 996 674 L 993 680 L 993 683 L 988 691 L 988 695 L 985 699 L 985 704 L 980 717 L 980 724 L 977 731 L 977 740 L 975 743 L 974 756 L 972 760 L 972 768 L 969 775 L 969 780 Q 965 782 966 790 L 964 792 L 964 796 L 961 801 L 961 804 L 945 836 L 945 839 L 943 841 L 941 848 L 941 865 L 942 866 L 942 877 L 943 878 L 942 884 L 937 884 L 929 881 L 920 881 Q 918 879 919 874 L 917 872 L 917 867 L 914 861 L 914 855 L 911 848 L 911 843 L 909 840 L 909 833 L 906 826 L 906 819 L 904 816 L 903 804 L 901 801 L 901 793 L 898 785 L 898 775 L 896 770 L 895 751 L 893 746 L 893 682 L 895 678 L 896 664 L 898 660 L 898 653 L 901 647 L 901 643 L 906 631 L 906 628 L 914 610 L 922 598 L 922 596 L 938 574 L 941 573 Q 940 570 943 571 L 945 568 Q 947 569 946 566 L 948 566 L 948 565 L 961 553 Q 963 554 962 551 L 964 551 L 965 549 L 964 541 L 957 536 Q 945 540 939 549 Q 936 548 937 551 L 934 553 L 932 556 L 929 557 L 911 580 L 900 598 L 892 614 L 892 617 L 890 619 L 886 634 L 884 637 L 884 642 L 881 649 L 881 654 L 879 657 L 879 666 L 876 675 L 876 695 L 875 696 L 876 755 L 879 766 L 879 778 L 881 782 L 881 790 L 884 800 L 884 808 L 887 816 L 887 823 L 889 826 L 890 835 L 892 838 L 892 845 L 895 852 L 895 857 L 897 860 L 897 865 L 900 871 L 900 876 L 903 881 L 902 886 L 894 891 L 884 903 L 879 913 L 879 917 L 876 922 L 876 928 L 874 931 Q 876 936 873 938 L 873 978 Q 876 979 874 986 L 876 989 L 876 997 L 879 1003 L 879 1008 Q 882 1009 881 1015 L 892 1040 L 903 1058 L 911 1068 Q 910 1070 913 1069 L 916 1074 L 918 1077 Q 934 1099 967 1105 L 969 1109 L 969 1117 L 972 1125 L 972 1133 L 974 1136 L 975 1147 L 977 1150 L 977 1157 L 980 1164 L 980 1170 L 982 1173 L 982 1178 L 985 1184 L 985 1188 L 988 1193 L 988 1197 Q 991 1198 991 1204 L 993 1206 L 993 1209 L 996 1212 L 996 1215 L 1007 1233 Q 1006 1235 1009 1234 L 1009 1237 L 1020 1251 Q 1019 1253 1022 1252 L 1028 1261 Q 1027 1263 1030 1262 L 1036 1271 L 1036 1278 L 1038 1285 L 1038 1307 L 1039 1308 L 1039 1328 L 1040 1329 Q 1042 1337 1038 1340 Q 1039 1342 1037 1341 L 1030 1350 L 1030 1355 L 1028 1358 Q 1029 1365 1025 1368 L 1025 1373 L 1022 1380 L 1005 1391 L 979 1414 Q 976 1413 977 1416 L 976 1416 L 953 1437 Q 950 1436 951 1439 L 938 1449 L 929 1459 L 921 1465 L 903 1474 L 889 1479 L 885 1482 L 842 1501 L 802 1517 L 800 1519 L 797 1519 L 771 1532 L 761 1535 L 741 1545 L 724 1551 L 664 1578 L 662 1580 L 628 1594 L 601 1607 L 569 1625 L 562 1625 L 553 1628 L 534 1641 L 525 1654 Q 526 1657 523 1656 L 523 1659 L 515 1673 L 515 1676 L 512 1680 L 512 1684 L 509 1689 L 509 1693 L 507 1695 L 507 1700 L 504 1705 L 504 1711 L 502 1713 L 501 1723 L 499 1726 L 499 1733 L 496 1740 L 496 1749 L 494 1752 L 493 1765 L 491 1768 L 491 1778 L 488 1787 L 488 1796 L 486 1799 L 485 1812 L 483 1817 L 483 1828 L 480 1838 L 480 1848 L 478 1852 L 477 1868 L 475 1873 L 475 1883 L 472 1893 L 472 1905 L 470 1909 L 469 1928 L 467 1933 L 467 1946 L 464 1959 Q 466 1970 462 1976 L 462 1988 L 459 2001 L 459 2015 L 456 2027 L 456 2040 Q 453 2046 454 2058 L 451 2072 L 451 2089 L 449 2094 L 449 2102 L 448 2103 Q 450 2115 446 2122 L 446 2136 L 443 2150 L 443 2168 L 441 2173 L 441 2181 L 459 2181 L 459 2175 L 460 2174 L 460 2159 L 462 2153 L 462 2140 L 465 2125 L 465 2108 L 468 2094 L 468 2080 L 470 2075 L 470 2063 L 473 2049 L 473 2035 L 475 2030 L 476 2010 L 478 2006 L 478 1993 L 481 1980 L 481 1966 L 483 1961 L 484 1942 L 486 1937 L 486 1925 L 489 1913 L 489 1900 L 492 1888 Q 491 1878 494 1873 L 494 1863 L 497 1853 L 497 1841 L 500 1831 L 500 1822 L 502 1819 L 502 1809 L 505 1800 L 505 1790 L 507 1787 L 508 1775 L 510 1771 L 510 1763 L 513 1755 L 513 1747 L 515 1744 L 516 1734 L 518 1730 L 518 1724 L 521 1717 L 521 1712 Q 524 1708 524 1702 L 526 1699 L 526 1695 L 529 1690 L 529 1686 Q 532 1684 532 1679 L 534 1677 L 534 1674 L 545 1658 L 560 1645 L 580 1639 L 653 1602 L 703 1581 L 707 1578 L 710 1578 L 725 1570 L 728 1570 L 736 1565 L 739 1565 L 761 1554 L 764 1554 L 773 1549 L 776 1549 L 792 1541 L 795 1541 L 797 1539 L 802 1538 L 804 1536 L 827 1527 L 829 1525 L 832 1525 L 847 1517 L 850 1517 L 854 1514 L 906 1492 L 908 1494 L 908 1497 L 884 1540 Q 885 1543 882 1542 L 879 1551 L 876 1554 L 876 1557 L 863 1579 L 863 1582 L 855 1594 L 855 1597 L 852 1603 L 854 1607 L 869 1618 L 924 1652 L 927 1658 L 853 1718 L 844 1728 L 844 1733 L 847 1738 L 847 1742 L 852 1750 L 852 1753 L 855 1757 L 858 1767 L 863 1775 L 863 1779 L 871 1795 L 871 1798 L 876 1806 L 876 1810 Q 880 1811 879 1817 L 889 1837 L 890 1842 L 895 1850 L 895 1853 L 900 1861 L 900 1864 L 908 1878 L 908 1881 L 913 1889 L 916 1899 L 921 1907 L 921 1910 L 924 1913 L 924 1916 L 932 1930 L 932 1933 L 956 1979 L 956 1982 L 980 2030 L 998 2062 L 1009 2086 Q 1015 2091 1017 2101 L 1020 2104 L 1022 2110 L 1025 2113 L 1038 2139 L 1046 2151 L 1054 2168 L 1062 2180 L 1063 2181 L 1082 2181 L 1071 2159 L 1068 2156 L 1057 2134 L 1042 2109 L 1039 2101 L 1034 2094 L 1031 2086 L 1028 2083 L 1023 2071 L 1018 2064 L 1010 2046 L 1007 2043 L 1007 2040 L 1002 2033 L 954 1937 L 954 1934 L 946 1920 L 946 1917 L 943 1914 L 943 1911 L 938 1903 L 938 1900 L 930 1886 L 930 1883 L 922 1869 L 922 1866 L 914 1852 L 911 1842 L 906 1834 L 906 1831 L 901 1822 L 901 1819 L 898 1815 L 898 1812 L 890 1796 L 890 1793 L 882 1778 L 882 1774 L 874 1758 L 874 1755 L 864 1736 L 865 1732 L 900 1703 Q 902 1704 901 1701 L 947 1665 L 950 1663 L 953 1658 Q 954 1652 951 1650 L 942 1642 L 930 1636 L 874 1600 L 874 1597 L 879 1590 L 882 1582 L 885 1579 L 885 1576 L 909 1533 Q 908 1529 911 1530 L 917 1516 L 935 1484 L 938 1475 L 974 1443 L 975 1443 L 977 1440 L 980 1438 L 981 1435 L 983 1435 L 1010 1411 L 1014 1411 Q 1015 1417 1012 1421 L 1012 1452 L 1014 1456 L 1015 1473 L 1017 1476 L 1017 1487 L 1020 1497 L 1020 1505 L 1022 1508 L 1022 1517 L 1025 1525 L 1025 1535 L 1028 1544 L 1028 1551 L 1030 1554 L 1030 1562 L 1033 1570 L 1033 1578 L 1035 1582 L 1036 1594 L 1038 1597 L 1038 1605 L 1041 1612 L 1041 1621 L 1043 1624 L 1044 1635 L 1046 1638 L 1047 1649 L 1049 1652 L 1049 1660 L 1051 1663 L 1052 1673 L 1054 1676 L 1054 1683 L 1057 1690 L 1057 1698 L 1059 1701 L 1060 1711 L 1062 1714 L 1062 1720 L 1065 1727 L 1065 1733 L 1067 1736 Q 1066 1744 1070 1749 L 1070 1755 L 1073 1762 L 1073 1768 L 1075 1771 L 1076 1781 L 1078 1784 L 1078 1791 L 1081 1797 L 1081 1803 L 1083 1806 L 1084 1815 L 1086 1818 L 1086 1825 L 1089 1831 L 1089 1837 L 1091 1840 L 1092 1849 L 1094 1852 L 1094 1859 L 1097 1865 L 1097 1871 L 1099 1873 L 1099 1879 L 1102 1885 L 1102 1891 L 1105 1898 L 1105 1903 L 1107 1906 L 1107 1911 L 1110 1918 L 1110 1923 Q 1114 1926 1113 1934 L 1115 1937 L 1116 1946 L 1118 1948 L 1118 1954 L 1120 1957 L 1121 1966 L 1123 1969 L 1123 1974 L 1126 1980 L 1126 1986 Q 1130 1989 1129 1997 L 1131 1999 L 1131 2005 L 1134 2010 L 1134 2016 L 1139 2030 L 1139 2035 L 1142 2041 L 1142 2047 L 1144 2049 L 1145 2058 L 1147 2060 L 1147 2066 L 1150 2071 L 1150 2076 L 1152 2079 L 1153 2087 L 1155 2089 Q 1154 2096 1158 2100 L 1158 2105 L 1160 2107 Q 1159 2114 1163 2118 L 1163 2123 L 1166 2129 L 1166 2134 L 1168 2136 Q 1167 2143 1171 2147 L 1171 2152 L 1174 2158 L 1174 2163 L 1179 2176 Q 1178 2181 1180 2181 L 1198 2181 L 1196 2171 L 1193 2165 L 1193 2159 L 1188 2146 L 1188 2141 L 1185 2136 L 1185 2130 Q 1181 2127 1182 2120 L 1180 2118 L 1180 2113 L 1177 2107 L 1177 2102 Q 1174 2098 1174 2092 L 1172 2090 L 1172 2085 L 1169 2079 L 1169 2074 Q 1165 2070 1166 2063 L 1164 2061 L 1164 2055 L 1161 2050 Q 1162 2044 1159 2042 L 1161 2036 L 1161 2022 L 1164 2011 L 1164 1998 L 1166 1994 L 1167 1976 L 1169 1972 L 1169 1959 L 1172 1949 L 1172 1938 L 1174 1934 L 1175 1919 L 1177 1916 L 1177 1905 L 1180 1896 L 1180 1887 L 1182 1884 L 1183 1870 L 1185 1866 L 1185 1856 L 1188 1849 L 1188 1840 L 1190 1837 L 1190 1830 L 1193 1821 L 1193 1813 L 1195 1810 L 1196 1799 L 1198 1796 L 1198 1791 L 1201 1783 L 1201 1775 L 1204 1768 L 1204 1761 L 1206 1758 L 1206 1751 L 1209 1744 L 1209 1737 L 1211 1734 L 1212 1725 L 1216 1722 L 1269 1722 L 1271 1723 L 1272 1725 L 1272 1730 L 1275 1737 L 1275 1744 L 1277 1747 L 1278 1757 L 1280 1760 L 1280 1767 L 1283 1775 L 1283 1781 L 1285 1784 L 1286 1795 L 1288 1798 L 1288 1806 L 1291 1815 L 1291 1821 L 1293 1825 L 1293 1832 L 1296 1840 L 1296 1850 L 1299 1859 L 1299 1866 L 1301 1870 L 1302 1884 L 1304 1887 L 1304 1898 L 1306 1902 L 1307 1917 L 1309 1921 L 1309 1931 L 1312 1941 L 1312 1953 L 1314 1958 L 1315 1975 L 1317 1979 L 1317 1991 L 1320 2003 L 1320 2015 L 1322 2020 L 1323 2036 L 1325 2039 L 1325 2045 L 1320 2058 L 1320 2064 L 1317 2069 L 1317 2074 L 1312 2088 L 1312 2093 Q 1308 2096 1309 2104 L 1307 2106 Q 1308 2113 1304 2117 L 1304 2122 L 1301 2128 L 1301 2133 L 1296 2147 L 1296 2152 L 1293 2158 L 1293 2163 Q 1290 2164 1291 2170 L 1288 2176 Q 1287 2181 1289 2181 L 1306 2181 Q 1308 2179 1307 2174 L 1310 2168 L 1310 2163 L 1315 2150 L 1315 2145 L 1318 2139 L 1318 2133 L 1320 2131 L 1321 2123 L 1323 2120 L 1323 2115 L 1326 2109 L 1326 2104 L 1331 2091 L 1332 2083 L 1334 2080 L 1334 2074 Q 1338 2070 1337 2063 L 1339 2061 Q 1338 2053 1342 2050 L 1342 2044 Q 1346 2040 1345 2033 L 1347 2031 L 1347 2025 L 1350 2019 L 1350 2014 L 1355 2000 L 1355 1994 L 1358 1988 L 1358 1982 L 1360 1980 L 1361 1971 L 1363 1969 L 1363 1963 L 1366 1956 L 1366 1951 L 1368 1948 L 1369 1940 L 1371 1937 L 1371 1931 L 1374 1925 L 1374 1919 L 1376 1916 Q 1376 1908 1379 1904 L 1379 1898 L 1382 1892 L 1382 1886 L 1384 1884 L 1384 1878 L 1387 1872 L 1387 1866 L 1390 1859 L 1390 1854 L 1392 1851 L 1393 1842 L 1395 1839 L 1395 1832 L 1397 1829 L 1398 1820 L 1400 1817 L 1400 1811 L 1403 1804 L 1403 1797 L 1406 1790 L 1406 1785 L 1408 1782 L 1408 1775 L 1411 1769 L 1411 1762 L 1414 1755 L 1414 1750 L 1416 1747 Q 1415 1737 1419 1733 L 1419 1726 L 1422 1719 L 1424 1704 L 1427 1697 L 1427 1690 L 1430 1681 L 1430 1676 L 1432 1673 L 1432 1666 L 1435 1659 L 1435 1652 L 1437 1649 L 1438 1638 L 1440 1635 L 1440 1626 L 1443 1619 L 1443 1611 L 1445 1608 L 1446 1597 L 1448 1593 L 1448 1585 L 1451 1578 L 1451 1570 L 1453 1566 L 1454 1555 L 1456 1551 L 1456 1542 L 1459 1534 L 1459 1526 L 1461 1522 L 1462 1509 L 1464 1505 L 1464 1494 L 1467 1486 L 1467 1476 L 1469 1472 L 1469 1462 L 1472 1449 L 1472 1424 Q 1469 1419 1470 1411 L 1476 1412 L 1502 1435 Q 1504 1434 1503 1437 L 1505 1437 L 1531 1462 Q 1533 1461 1532 1464 L 1541 1469 L 1546 1476 L 1554 1494 L 1559 1501 L 1564 1513 L 1567 1516 L 1567 1519 L 1572 1526 L 1580 1543 L 1583 1546 L 1583 1549 L 1588 1556 L 1596 1574 L 1599 1577 L 1599 1580 L 1609 1597 L 1609 1600 L 1537 1646 L 1532 1651 L 1531 1655 L 1532 1661 L 1582 1701 Q 1584 1700 1583 1703 L 1592 1709 Q 1594 1708 1593 1711 L 1618 1730 L 1620 1734 L 1612 1750 L 1609 1760 L 1607 1762 L 1607 1766 L 1604 1770 L 1604 1773 L 1599 1782 L 1599 1785 L 1596 1789 L 1596 1792 L 1588 1807 L 1588 1810 L 1583 1819 L 1583 1822 L 1575 1837 L 1575 1840 L 1567 1854 L 1567 1857 L 1559 1872 L 1559 1875 L 1551 1889 L 1551 1892 L 1532 1930 Q 1533 1933 1530 1932 L 1530 1936 L 1514 1967 L 1514 1970 L 1511 1973 L 1511 1976 L 1495 2008 L 1482 2030 Q 1480 2040 1474 2046 L 1474 2049 L 1471 2052 L 1463 2068 Q 1464 2071 1461 2070 L 1455 2085 L 1442 2106 Q 1443 2110 1440 2109 L 1439 2114 L 1434 2122 Q 1435 2125 1432 2124 L 1429 2133 L 1426 2136 L 1426 2138 L 1415 2156 Q 1416 2159 1413 2158 L 1413 2162 L 1402 2179 L 1402 2181 L 1405 2181 L 1416 2191 L 1419 2188 L 1424 2177 L 1437 2156 L 1440 2148 L 1443 2145 Q 1448 2131 1456 2122 L 1456 2119 L 1459 2116 L 1464 2104 L 1467 2101 L 1483 2069 L 1488 2062 L 1509 2018 L 1512 2015 L 1512 2012 L 1517 2005 L 1517 2002 L 1520 1999 L 1528 1983 L 1528 1980 L 1544 1950 L 1544 1947 L 1554 1929 L 1568 1896 L 1573 1888 L 1573 1885 L 1586 1860 L 1586 1857 L 1594 1842 L 1597 1832 L 1602 1824 L 1602 1821 L 1605 1817 L 1605 1814 L 1607 1812 L 1610 1802 L 1613 1798 L 1613 1795 L 1615 1793 L 1618 1783 L 1626 1766 L 1626 1763 L 1629 1759 L 1637 1740 L 1637 1737 L 1639 1735 Q 1641 1726 1637 1724 L 1615 1704 Q 1612 1705 1613 1702 L 1599 1691 Q 1596 1692 1597 1689 L 1593 1686 Q 1590 1687 1591 1684 Q 1584 1681 1580 1675 Q 1577 1676 1578 1673 L 1574 1671 L 1557 1658 L 1558 1653 L 1625 1612 L 1631 1604 L 1629 1595 L 1599 1539 Q 1600 1536 1597 1537 L 1597 1535 L 1583 1509 Q 1584 1506 1581 1507 L 1581 1505 L 1576 1497 L 1578 1493 L 1582 1493 L 1589 1496 L 1609 1506 L 1619 1509 L 1621 1511 L 1626 1512 L 1628 1514 L 1655 1525 L 1659 1528 L 1662 1528 L 1671 1533 L 1674 1533 L 1682 1538 L 1722 1554 L 1758 1570 L 1762 1573 L 1765 1573 L 1785 1583 L 1788 1583 L 1792 1586 L 1820 1597 L 1824 1600 L 1831 1602 L 1886 1629 L 1909 1642 L 1917 1642 L 1925 1645 L 1928 1648 L 1931 1650 L 1942 1664 L 1952 1682 Q 1951 1688 1955 1690 L 1955 1694 L 1957 1696 L 1958 1703 L 1960 1706 L 1960 1711 L 1963 1716 L 1963 1723 L 1965 1726 L 1966 1735 L 1968 1738 L 1968 1745 L 1971 1753 L 1971 1762 L 1973 1765 L 1974 1779 L 1976 1782 L 1976 1791 L 1979 1799 L 1979 1810 Q 1982 1814 1981 1823 L 1984 1833 L 1984 1845 L 1987 1854 L 1987 1866 L 1989 1870 L 1990 1886 L 1992 1891 L 1992 1904 L 1995 1915 L 1995 1928 L 1997 1933 L 1998 1951 L 2000 1955 L 2000 1969 L 2003 1983 L 2003 1996 L 2005 2001 L 2006 2020 L 2008 2026 L 2008 2039 L 2011 2053 L 2011 2067 L 2013 2073 L 2014 2095 L 2016 2100 L 2016 2117 L 2019 2133 L 2019 2148 L 2021 2154 L 2021 2170 L 2023 2180 L 2024 2181 L 2041 2181 L 2040 2176 L 2040 2167 L 2038 2160 L 2038 2141 L 2035 2127 L 2035 2112 L 2033 2107 L 2033 2093 L 2030 2078 L 2030 2063 L 2027 2050 Q 2029 2038 2025 2032 L 2025 2019 L 2022 2006 L 2022 1992 L 2019 1979 L 2019 1966 L 2017 1961 L 2017 1948 L 2014 1935 L 2014 1922 L 2011 1908 L 2011 1898 L 2009 1894 L 2009 1882 L 2006 1871 L 2006 1860 L 2003 1849 L 2003 1840 L 2001 1835 L 2001 1825 L 1998 1816 L 1998 1806 L 1996 1802 L 1995 1788 L 1993 1785 L 1993 1776 L 1990 1768 L 1990 1760 L 1988 1756 L 1987 1745 L 1985 1742 L 1985 1735 L 1982 1727 L 1982 1720 L 1980 1717 L 1979 1708 L 1977 1706 L 1977 1700 L 1974 1695 L 1974 1690 L 1972 1688 L 1972 1684 L 1969 1679 L 1966 1669 L 1953 1647 Q 1944 1635 1930 1628 L 1927 1628 L 1922 1625 L 1912 1624 L 1892 1612 L 1866 1599 L 1829 1583 L 1825 1580 L 1818 1578 L 1814 1575 L 1775 1559 L 1771 1556 L 1768 1556 L 1741 1543 L 1738 1543 L 1716 1532 L 1695 1524 L 1675 1514 L 1659 1508 L 1657 1506 L 1640 1500 L 1638 1498 L 1582 1474 L 1578 1471 L 1571 1469 L 1561 1464 L 1549 1452 Q 1546 1453 1547 1451 L 1522 1428 Q 1519 1429 1520 1426 L 1514 1421 Q 1511 1422 1512 1419 L 1511 1419 L 1495 1404 Q 1492 1405 1493 1402 L 1485 1396 Q 1482 1397 1483 1394 L 1463 1381 L 1459 1378 L 1459 1371 L 1456 1365 L 1456 1360 L 1454 1358 L 1453 1349 L 1445 1340 L 1444 1336 L 1446 1272 L 1447 1271 L 1446 1269 L 1448 1264 Q 1447 1261 1450 1262 L 1454 1257 Q 1453 1254 1456 1255 L 1475 1228 L 1491 1196 L 1493 1186 L 1496 1180 L 1496 1174 L 1498 1172 L 1499 1163 L 1501 1160 L 1501 1153 L 1504 1146 L 1504 1137 L 1506 1134 L 1507 1122 L 1509 1119 L 1510 1107 L 1514 1104 L 1526 1102 L 1537 1097 L 1553 1084 Q 1555 1085 1554 1083 L 1557 1081 L 1563 1074 Q 1562 1071 1565 1072 Q 1580 1053 1592 1029 L 1595 1019 L 1597 1017 L 1597 1012 L 1599 1010 L 1600 1002 L 1602 999 L 1602 991 L 1605 982 L 1605 936 L 1602 928 L 1602 922 Q 1599 919 1599 913 L 1597 911 L 1597 908 L 1589 896 L 1578 887 L 1578 880 L 1581 873 L 1581 866 L 1584 859 L 1584 853 L 1586 850 L 1586 844 L 1589 836 L 1589 828 L 1592 819 L 1592 813 L 1594 809 L 1594 800 L 1597 790 L 1597 779 L 1599 774 L 1600 751 L 1602 741 L 1602 723 L 1601 722 L 1602 705 L 1605 704 Q 1604 701 1607 702 L 1609 694 L 1608 679 L 1605 671 L 1605 663 L 1602 657 L 1600 644 L 1597 638 L 1597 633 L 1594 627 L 1594 623 Q 1591 620 1591 614 L 1589 612 L 1589 608 L 1573 571 L 1560 550 L 1554 543 Q 1555 540 1552 541 L 1543 529 L 1519 506 Q 1516 507 1517 504 L 1509 499 L 1504 497 L 1500 497 Z M 1289 533 Q 1287 536 1282 534 L 1278 536 L 1273 536 L 1260 541 L 1240 555 L 1237 557 L 1224 571 Q 1225 573 1222 572 L 1211 593 Q 1212 598 1209 600 L 1211 606 L 1216 609 L 1223 608 L 1227 603 L 1233 589 L 1241 577 L 1244 576 Q 1243 573 1246 574 L 1246 572 L 1263 560 L 1273 555 L 1295 550 L 1312 552 L 1323 555 Q 1343 564 1357 579 L 1356 582 L 1352 581 L 1335 581 L 1324 584 L 1318 584 L 1304 589 L 1291 596 L 1288 601 Q 1287 610 1293 611 L 1302 611 L 1317 603 L 1335 599 L 1360 600 L 1368 603 L 1372 603 L 1381 608 L 1395 627 Q 1394 629 1397 628 L 1397 631 L 1407 645 L 1421 661 Q 1420 663 1423 662 L 1429 671 L 1449 689 Q 1451 688 1450 691 L 1465 701 L 1489 714 L 1521 725 L 1527 723 L 1530 719 L 1530 715 L 1528 710 L 1522 706 L 1517 706 L 1505 701 L 1502 701 Q 1497 696 1489 695 L 1477 687 L 1475 687 L 1462 677 L 1427 641 L 1400 603 Q 1401 600 1398 601 L 1387 586 Q 1388 583 1385 584 L 1382 580 Q 1383 577 1381 578 L 1379 576 L 1358 555 L 1331 539 L 1323 536 L 1317 536 L 1306 533 L 1289 533 Z M 1708 570 L 1699 574 L 1694 580 L 1692 587 L 1695 598 Q 1698 603 1706 604 L 1718 603 L 1722 600 L 1727 590 L 1727 585 L 1724 578 L 1716 571 L 1708 570 Z M 1263 778 L 1259 783 L 1259 808 Q 1262 809 1261 815 L 1264 819 L 1264 822 L 1269 829 L 1274 832 Q 1281 833 1283 830 L 1283 825 L 1281 821 L 1273 810 Q 1274 803 1271 800 L 1272 784 L 1273 783 L 1272 781 Q 1270 776 1263 778 Z M 1306 796 L 1303 797 L 1298 803 Q 1297 807 1299 809 L 1299 811 Q 1302 810 1301 813 L 1324 826 L 1356 837 L 1361 837 L 1365 839 L 1377 840 L 1384 842 L 1426 844 L 1427 845 Q 1433 847 1435 844 L 1437 844 Q 1436 841 1439 842 L 1440 841 L 1440 832 L 1434 827 L 1387 825 L 1381 823 L 1372 823 L 1368 821 L 1359 820 L 1335 812 L 1314 799 L 1306 796 Z M 1167 802 L 1139 820 L 1126 826 L 1113 829 L 1110 831 L 1104 831 L 1100 833 L 1087 834 L 1081 836 L 1037 836 L 1035 837 L 1031 844 L 1033 851 L 1037 853 L 1061 853 L 1062 854 L 1065 853 L 1087 853 L 1099 850 L 1106 850 L 1114 847 L 1118 847 L 1121 845 L 1125 845 L 1151 834 L 1174 819 L 1177 815 Q 1178 808 1175 806 Q 1173 801 1167 802 Z M 1210 873 L 1203 878 L 1203 882 L 1208 892 L 1208 896 L 1211 900 L 1211 905 L 1213 908 L 1214 918 L 1216 923 L 1216 992 L 1215 993 L 1216 999 L 1221 1002 L 1226 1001 L 1230 997 L 1230 956 L 1231 955 L 1230 916 L 1228 913 L 1228 907 L 1225 901 L 1225 896 L 1222 891 L 1222 887 L 1217 877 L 1214 874 L 1212 874 L 1210 873 Z M 1110 897 L 1101 901 L 1094 908 L 1094 911 L 1091 915 L 1091 933 L 1097 944 L 1110 950 L 1118 950 L 1127 946 L 1132 941 L 1135 934 L 1135 916 L 1129 905 L 1120 898 L 1110 897 Z M 1364 897 Q 1354 899 1349 906 Q 1350 908 1347 907 L 1344 914 L 1344 922 L 1343 923 L 1344 935 L 1349 943 L 1356 948 L 1363 950 L 1370 950 L 1379 946 L 1384 941 L 1387 935 Q 1386 929 1388 928 L 1387 914 L 1384 908 Q 1378 898 1364 897 Z M 1207 1070 L 1205 1071 L 1203 1073 L 1203 1082 L 1213 1087 L 1222 1089 L 1234 1095 L 1246 1095 L 1258 1089 L 1261 1089 L 1274 1084 L 1277 1080 Q 1278 1072 1273 1070 L 1266 1070 L 1241 1080 L 1214 1070 L 1207 1070 Z M 1364 1154 L 1362 1155 L 1359 1159 L 1360 1164 Q 1370 1173 1376 1188 L 1380 1204 L 1380 1212 L 1383 1217 Q 1390 1219 1392 1215 L 1392 1197 L 1390 1194 L 1389 1186 L 1384 1176 Q 1385 1172 1382 1173 L 1381 1170 Q 1382 1167 1379 1168 L 1379 1166 L 1373 1158 L 1367 1154 L 1364 1154 Z M 1119 1155 L 1117 1156 L 1110 1163 L 1102 1177 Q 1103 1183 1099 1185 L 1099 1190 L 1097 1193 L 1097 1203 L 1096 1204 L 1097 1218 Q 1099 1221 1105 1220 L 1108 1217 L 1108 1200 L 1110 1197 L 1113 1184 L 1116 1180 Q 1115 1175 1118 1176 L 1119 1173 L 1127 1163 L 1127 1159 Q 1126 1154 1119 1155 Z M 1219 1171 L 1206 1174 L 1199 1174 L 1195 1176 L 1187 1177 L 1184 1179 L 1179 1179 L 1151 1191 L 1146 1198 L 1147 1204 L 1152 1207 L 1160 1206 L 1175 1198 L 1178 1198 L 1191 1193 L 1196 1193 L 1204 1190 L 1211 1190 L 1216 1188 L 1226 1188 L 1227 1187 L 1264 1187 L 1265 1188 L 1274 1188 L 1279 1190 L 1287 1190 L 1311 1198 L 1327 1208 L 1333 1208 L 1336 1206 L 1337 1204 L 1337 1198 L 1334 1192 L 1317 1182 L 1309 1179 L 1305 1179 L 1299 1176 L 1294 1176 L 1291 1174 L 1285 1174 L 1272 1171 L 1219 1171 Z M 1237 1220 L 1215 1224 L 1205 1229 Q 1201 1231 1203 1238 L 1208 1241 L 1220 1238 L 1226 1235 L 1232 1235 L 1238 1233 L 1248 1233 L 1254 1235 L 1259 1235 L 1269 1238 L 1274 1241 Q 1279 1242 1281 1240 L 1281 1238 L 1283 1238 L 1283 1231 L 1278 1227 L 1264 1222 L 1250 1221 L 1249 1220 L 1237 1220 Z M 583 1707 L 579 1708 L 573 1715 L 579 1735 L 579 1739 L 581 1741 L 581 1746 L 584 1751 L 584 1755 L 589 1768 L 589 1773 L 592 1778 L 592 1784 L 594 1786 L 595 1794 L 597 1796 L 597 1802 L 600 1807 L 600 1813 L 605 1827 L 605 1832 L 608 1838 L 608 1844 L 610 1848 L 611 1858 L 613 1861 L 613 1868 L 616 1875 L 616 1882 L 618 1885 L 619 1895 L 621 1898 L 621 1906 L 624 1914 L 624 1921 L 626 1924 L 627 1934 L 629 1937 L 629 1945 L 632 1953 L 632 1960 L 634 1963 L 635 1975 L 637 1978 L 637 1986 L 640 1995 L 640 2003 L 642 2006 L 642 2014 L 645 2022 L 645 2031 L 648 2040 Q 647 2048 650 2052 L 650 2061 L 653 2071 L 653 2082 L 656 2092 L 656 2102 L 658 2106 L 658 2117 L 661 2128 L 661 2140 L 663 2145 L 664 2163 L 666 2167 L 666 2179 L 667 2180 L 668 2181 L 685 2181 L 683 2173 L 683 2161 L 680 2150 L 680 2138 L 678 2133 L 677 2116 L 675 2112 L 675 2100 L 672 2090 L 672 2080 L 670 2076 L 669 2062 L 667 2058 L 667 2048 L 664 2039 L 664 2030 L 662 2026 L 662 2018 L 659 2009 L 659 2000 L 656 1992 L 656 1984 L 654 1980 L 653 1968 L 651 1965 L 651 1956 L 648 1948 L 646 1930 L 643 1923 L 643 1916 L 640 1908 L 638 1892 L 635 1885 L 635 1878 L 633 1875 L 632 1865 L 630 1862 L 630 1856 L 627 1850 L 627 1843 L 625 1840 L 624 1831 L 622 1828 L 622 1822 L 619 1816 L 619 1811 L 617 1808 L 616 1799 L 614 1797 L 614 1791 L 611 1786 L 611 1780 L 606 1767 L 606 1762 L 603 1757 L 603 1752 L 601 1749 L 598 1735 L 595 1729 L 595 1725 L 590 1711 L 587 1708 L 585 1708 L 583 1707 Z M 1896 1708 L 1891 1714 L 1891 1719 L 1889 1721 L 1888 1729 L 1886 1731 L 1886 1737 L 1883 1742 L 1883 1747 Q 1879 1749 1880 1757 L 1878 1759 L 1878 1764 L 1875 1769 L 1875 1774 Q 1871 1777 1872 1785 L 1870 1787 L 1870 1793 L 1867 1799 L 1867 1805 L 1865 1807 L 1864 1816 L 1862 1819 L 1862 1825 L 1859 1831 L 1859 1837 L 1857 1840 L 1856 1849 L 1854 1852 L 1854 1859 L 1851 1866 L 1851 1872 L 1849 1875 L 1848 1885 L 1846 1888 L 1846 1896 L 1843 1903 L 1843 1910 L 1841 1913 L 1840 1925 L 1838 1928 L 1838 1936 L 1836 1939 L 1835 1950 L 1833 1953 L 1832 1965 L 1830 1968 L 1830 1977 L 1827 1985 L 1827 1993 L 1825 1997 L 1825 2005 L 1822 2014 L 1822 2024 L 1820 2028 L 1819 2041 L 1817 2045 L 1817 2054 L 1814 2063 L 1814 2073 L 1812 2077 L 1811 2093 L 1809 2097 L 1809 2107 L 1806 2117 L 1806 2130 L 1804 2134 L 1803 2151 L 1801 2155 L 1801 2168 L 1798 2180 L 1799 2181 L 1817 2181 L 1818 2163 L 1820 2158 L 1820 2146 L 1823 2135 L 1823 2123 L 1825 2119 L 1826 2104 L 1828 2099 L 1828 2088 L 1831 2079 L 1831 2070 Q 1834 2066 1833 2058 L 1836 2049 L 1836 2039 L 1838 2035 L 1839 2021 L 1841 2017 L 1842 2005 L 1844 2001 L 1844 1992 L 1847 1984 L 1847 1976 L 1849 1973 L 1849 1965 L 1852 1957 L 1852 1949 L 1855 1940 L 1855 1934 L 1857 1931 L 1857 1924 L 1860 1916 L 1860 1909 L 1865 1892 L 1865 1886 L 1868 1879 L 1868 1872 L 1870 1869 L 1871 1859 L 1873 1856 L 1873 1850 L 1876 1844 L 1876 1838 L 1878 1835 L 1879 1826 L 1881 1823 L 1881 1817 L 1884 1811 L 1884 1805 L 1887 1798 L 1887 1793 L 1889 1791 L 1889 1785 L 1892 1780 L 1892 1775 Q 1896 1771 1895 1764 L 1897 1762 L 1897 1757 L 1900 1751 L 1900 1746 L 1902 1744 Q 1902 1737 1905 1734 L 1905 1729 L 1908 1724 Q 1906 1717 1909 1716 L 1908 1712 Q 1906 1706 1896 1708 Z " /><path fill="rgb(0,0,0)" stroke="rgb(0,0,0)" stroke-width="1" opacity="0" d="M 738.5 347 Q 749.1 345.4 754 349.5 L 754 351 L 756 351.5 L 756 357.5 L 751 370 Q 748.3 368.9 749 371.5 L 746 375.5 L 746 378 Q 743.3 376.9 744 379.5 L 735 392 Q 732.3 390.9 733 393.5 L 725 403 L 711 414.5 Q 711.8 416.8 709.5 416 L 685.5 435 L 664.5 448 L 643.5 459 L 616.5 470 L 614 469 L 614 463.5 L 616 461.5 L 617 454.5 L 619 452.5 L 619 448.5 L 627 432.5 L 638 416.5 L 638 414 Q 640.7 415.1 640 412.5 L 643 407 Q 645.7 408.1 645 405.5 L 651 397 L 654 395.5 L 670.5 378 L 685.5 367 L 705.5 356 L 719.5 351 L 738.5 347 Z " /><path fill="rgb(0,0,0)" stroke="rgb(0,0,0)" stroke-width="1" opacity="0" d="M 765.5 452 Q 771.2 450.2 769 456.5 L 764 464 Q 761.3 462.9 762 465.5 L 759 470 Q 756.3 468.9 757 471.5 L 754 473 L 750.5 478 L 747.5 480 L 728.5 496 L 720.5 501 L 717 501 L 717 495.5 Q 721 494.1 720 489 Q 722.7 490.1 722 487.5 L 738.5 468 L 753.5 457 L 765.5 452 Z " /><path fill="rgb(0,0,0)" stroke="rgb(0,0,0)" stroke-width="1" opacity="0" d="M 1425.5 1288 L 1428 1289.5 L 1427 1294.5 L 1427 1316.5 L 1426 1317.5 L 1426 1371.5 Q 1422.8 1373.3 1423 1378.5 L 1410 1398 Q 1407.3 1396.9 1408 1399.5 L 1402 1407 Q 1399.3 1405.9 1400 1408.5 L 1389 1419.5 L 1389 1421 L 1373 1434 Q 1374.1 1436.7 1371.5 1436 L 1356.5 1450 L 1298.5 1495 L 1255.5 1524 L 1244.5 1531 L 1240.5 1532 L 1199.5 1505 L 1156 1473 Q 1157.1 1470.3 1154.5 1471 L 1121 1445 Q 1122.1 1442.3 1119.5 1443 L 1111 1436 L 1109.5 1433 L 1106.5 1431 L 1081 1405.5 L 1081 1404 Q 1078.3 1405.1 1079 1402.5 L 1068 1389.5 L 1068 1387 Q 1065.3 1388.1 1066 1385.5 L 1060 1376.5 Q 1060.8 1370.2 1058 1367.5 L 1058 1336.5 L 1057 1335.5 L 1057 1317.5 L 1055 1309.5 L 1055 1294.5 L 1058.5 1293 L 1068.5 1303 L 1070 1303 Q 1068.9 1305.7 1071.5 1305 L 1081 1313 Q 1079.9 1315.7 1082.5 1315 L 1096 1326 Q 1094.9 1328.7 1097.5 1328 L 1142.5 1363 L 1161.5 1373 L 1171.5 1376 L 1176.5 1379 L 1180.5 1379 L 1183.5 1381 L 1192.5 1382 L 1196.5 1384 L 1204.5 1384 L 1219.5 1387 L 1259.5 1387 L 1293.5 1381 L 1321.5 1371 L 1338.5 1361 L 1364.5 1342 L 1400 1313 L 1401.5 1310 L 1404.5 1308 L 1422 1290.5 L 1422 1289 L 1425.5 1288 Z " /><path fill="rgb(0,0,0)" stroke="rgb(0,0,0)" stroke-width="1" opacity="0" d="M 1040.5 1381 Q 1043.8 1379.9 1043 1382.5 L 1057 1406 Q 1059.7 1404.9 1059 1407.5 L 1073 1422.5 L 1073 1424 Q 1075.7 1422.9 1075 1425.5 L 1095.5 1446 L 1097 1446 Q 1095.9 1448.7 1098.5 1448 Q 1113.3 1463.7 1131 1475 Q 1129.9 1477.7 1132.5 1477 L 1171.5 1507 L 1219 1539.5 Q 1220.5 1543.9 1217.5 1543 L 1192.5 1561 L 1159.5 1593 L 1158 1593 L 1156.5 1596 L 1153.5 1598 L 1152 1601 L 1150 1601 Q 1151.1 1603.7 1148.5 1603 L 1147 1606 Q 1144.3 1604.9 1145 1607.5 L 1142 1609 L 1127.5 1627 Q 1125.3 1626.3 1126 1628.5 L 1120 1636 Q 1117.3 1634.9 1118 1637.5 L 1107 1651 Q 1104.3 1649.9 1105 1652.5 L 1102 1657 Q 1099.3 1655.9 1100 1658.5 L 1096 1664 Q 1093.3 1662.9 1094 1665.5 L 1091 1670 Q 1088.3 1668.9 1089 1671.5 L 1083 1680.5 L 1087.5 1688 L 1093.5 1690 L 1100 1687 Q 1098.9 1684.3 1101.5 1685 L 1103 1682 Q 1105.7 1683.1 1105 1680.5 L 1114 1669 Q 1116.7 1670.1 1116 1667.5 L 1130 1650 Q 1132.7 1651.1 1132 1648.5 L 1154.5 1624 Q 1158.9 1622.5 1158 1625.5 L 1163 1634.5 L 1166 1645.5 L 1171 1654.5 L 1171 1658.5 L 1174 1662.5 L 1174 1665.5 L 1179 1674.5 L 1179 1677.5 L 1182 1681.5 L 1182 1684.5 L 1184 1686.5 L 1185 1692.5 L 1192 1706.5 L 1192 1709.5 L 1195 1713.5 L 1195 1726.5 L 1192 1733.5 L 1190 1748.5 L 1187 1755.5 L 1187 1763.5 L 1184 1770.5 Q 1185.2 1777.2 1182 1779.5 L 1182 1786.5 L 1179 1793.5 L 1179 1800.5 L 1176 1808.5 L 1176 1815.5 L 1174 1818.5 L 1174 1826.5 L 1171 1833.5 L 1171 1842.5 L 1169 1845.5 L 1168 1858.5 L 1166 1862.5 L 1166 1872.5 L 1163 1881.5 L 1163 1891.5 L 1160 1900.5 Q 1161.3 1908.8 1158 1912.5 L 1158 1923.5 L 1155 1932.5 L 1155 1942.5 L 1153 1946.5 L 1152 1963.5 L 1150 1968.5 L 1150 1982.5 L 1147.5 1985 L 1144 1982.5 L 1143 1973.5 L 1137 1956.5 L 1137 1950.5 L 1132 1936.5 L 1132 1931.5 L 1129 1925.5 L 1129 1920.5 L 1127 1918.5 L 1127 1912.5 L 1124 1906.5 L 1124 1899.5 L 1121 1893.5 L 1121 1887.5 L 1119 1884.5 L 1118 1875.5 L 1116 1873.5 L 1116 1866.5 L 1114 1863.5 L 1113 1854.5 L 1111 1851.5 L 1111 1845.5 L 1108 1839.5 L 1108 1833.5 L 1106 1830.5 L 1105 1821.5 L 1103 1818.5 L 1103 1812.5 L 1100 1806.5 L 1100 1799.5 Q 1096.1 1795.4 1097 1786.5 L 1095 1784.5 L 1095 1777.5 L 1092 1771.5 L 1092 1764.5 L 1090 1762.5 L 1089 1752.5 L 1087 1749.5 L 1087 1743.5 L 1084 1736.5 L 1084 1729.5 L 1082 1726.5 L 1081 1716.5 L 1079 1713.5 L 1079 1706.5 L 1076 1699.5 L 1076 1692.5 L 1074 1689.5 L 1073 1679.5 L 1071 1676.5 L 1071 1669.5 L 1068 1662.5 L 1068 1655.5 L 1066 1651.5 L 1065 1641.5 L 1063 1638.5 L 1063 1630.5 L 1060 1623.5 L 1060 1615.5 L 1058 1612.5 L 1057 1601.5 L 1055 1598.5 L 1055 1589.5 L 1052 1582.5 L 1052 1574.5 L 1050 1571.5 L 1050 1564.5 L 1047 1556.5 L 1047 1547.5 L 1044 1539.5 L 1044 1531.5 L 1042 1527.5 L 1041 1514.5 L 1039 1511.5 L 1039 1501.5 L 1036 1493.5 Q 1037.5 1484.5 1034 1480.5 L 1034 1470.5 L 1031 1460.5 L 1030 1425.5 L 1031 1424.5 L 1031 1414.5 L 1034 1407.5 L 1034 1401.5 L 1036 1399.5 L 1036 1393.5 L 1040.5 1381 Z " /><path fill="rgb(0,0,0)" stroke="rgb(0,0,0)" stroke-width="1" opacity="0" d="M 1442.5 1382 Q 1445.8 1383.7 1445 1389.5 L 1447 1391.5 L 1448 1399.5 L 1450 1401.5 L 1450 1407.5 L 1453 1414.5 Q 1452.1 1421.9 1455 1425.5 L 1455 1441.5 L 1453 1446.5 L 1453 1458.5 L 1450 1469.5 L 1450 1479.5 L 1448 1483.5 L 1447 1496.5 L 1445 1500.5 L 1445 1509.5 L 1442 1518.5 L 1442 1527.5 L 1440 1530.5 L 1439 1543.5 L 1437 1546.5 L 1437 1554.5 L 1434 1562.5 L 1434 1571.5 L 1432 1574.5 L 1431 1585.5 L 1429 1589.5 L 1429 1597.5 L 1426 1605.5 L 1426 1613.5 L 1424 1616.5 L 1423 1626.5 L 1421 1630.5 L 1421 1637.5 L 1418 1644.5 L 1418 1652.5 L 1416 1655.5 L 1415 1666.5 L 1413 1669.5 L 1413 1677.5 L 1410 1683.5 L 1410 1690.5 L 1408 1693.5 L 1407 1704.5 L 1405 1707.5 L 1405 1714.5 L 1402 1721.5 L 1402 1727.5 L 1400 1730.5 L 1399 1740.5 L 1397 1743.5 L 1397 1750.5 L 1395 1753.5 L 1394 1762.5 L 1392 1765.5 L 1392 1770.5 L 1389 1778.5 L 1389 1785.5 L 1386 1791.5 L 1386 1798.5 L 1384 1800.5 Q 1384.9 1809.4 1381 1813.5 L 1381 1820.5 L 1379 1823.5 L 1378 1833.5 L 1376 1836.5 L 1376 1841.5 L 1373 1848.5 L 1373 1854.5 L 1371 1857.5 L 1370 1866.5 L 1368 1869.5 L 1368 1874.5 L 1365 1880.5 L 1365 1886.5 L 1362 1892.5 L 1362 1897.5 L 1360 1900.5 L 1360 1906.5 L 1357 1912.5 L 1357 1918.5 L 1355 1920.5 L 1354 1929.5 L 1352 1932.5 L 1352 1937.5 L 1349 1943.5 L 1349 1949.5 L 1344 1963.5 L 1344 1969.5 L 1341 1975.5 L 1341 1982.5 L 1337.5 1987 L 1334 1985.5 L 1334 1971.5 L 1331 1960.5 L 1331 1949.5 L 1329 1945.5 L 1328 1929.5 L 1326 1925.5 L 1326 1914.5 L 1323 1905.5 L 1323 1895.5 L 1321 1891.5 L 1320 1878.5 L 1318 1874.5 L 1318 1865.5 L 1315 1856.5 L 1315 1848.5 L 1313 1845.5 L 1313 1837.5 L 1310 1829.5 L 1310 1821.5 L 1307 1813.5 L 1307 1806.5 L 1305 1803.5 Q 1306 1794 1302 1789.5 L 1302 1781.5 L 1299 1773.5 L 1299 1767.5 L 1297 1764.5 L 1297 1757.5 L 1294 1750.5 L 1294 1743.5 L 1292 1740.5 L 1291 1729.5 L 1289 1726.5 L 1288 1717.5 L 1291 1707.5 L 1294 1703.5 L 1294 1699.5 L 1297 1695.5 L 1299 1687.5 L 1305 1676.5 L 1305 1673.5 L 1310 1664.5 L 1310 1661.5 L 1315 1651.5 L 1315 1648.5 L 1318 1644.5 L 1321 1634.5 L 1323 1632.5 Q 1322.3 1626.3 1325.5 1624 Q 1330.9 1622.1 1330 1625.5 L 1344 1639.5 L 1344 1641 Q 1346.7 1639.9 1346 1642.5 L 1357 1656 L 1360 1657.5 L 1384.5 1687 Q 1386.8 1690.8 1393.5 1690 L 1400 1684.5 L 1400 1678.5 L 1398 1674.5 L 1387 1662.5 L 1384 1657 Q 1381.3 1658.1 1382 1655.5 L 1379 1651 Q 1376.3 1652.1 1377 1649.5 L 1373 1644 Q 1370.3 1645.1 1371 1642.5 L 1368 1638 Q 1365.3 1639.1 1366 1636.5 L 1356.5 1626 Q 1354.3 1626.8 1355 1624.5 L 1331 1599.5 L 1331 1598 L 1326 1594.5 Q 1326.8 1592.3 1324.5 1593 L 1323 1590 Q 1320.3 1591.1 1321 1588.5 L 1318 1587 Q 1319.1 1584.3 1316.5 1585 L 1300.5 1569 L 1299 1569 Q 1300.1 1566.3 1297.5 1567 L 1291 1562 Q 1292.1 1559.3 1289.5 1560 L 1283.5 1554 L 1265 1541.5 Q 1264.5 1537.5 1267.5 1537 L 1296.5 1517 L 1299 1517 Q 1297.9 1514.3 1300.5 1515 L 1363 1469 Q 1361.9 1466.3 1364.5 1467 L 1382 1453 Q 1380.9 1450.3 1383.5 1451 L 1411 1423.5 L 1411 1422 L 1414 1420.5 L 1416 1417.5 L 1419 1413 Q 1421.7 1414.1 1421 1411.5 L 1435 1393.5 L 1438 1385.5 L 1440.5 1383 L 1442.5 1382 Z " /><path fill="rgb(0,0,0)" stroke="rgb(0,0,0)" stroke-width="1" opacity="0" d="M 1240.5 1549 L 1259.5 1559 L 1285 1579 Q 1283.9 1581.7 1286.5 1581 L 1288 1584 L 1289.5 1584 L 1310.5 1605 L 1312 1605 L 1312 1611.5 L 1309 1615.5 L 1309 1618.5 L 1304 1628.5 L 1304 1631.5 L 1301 1635.5 L 1301 1638.5 L 1299 1640.5 L 1299 1643.5 L 1288 1668.5 L 1288 1671.5 L 1280 1686.5 L 1280 1690.5 L 1272.5 1705 L 1210.5 1705 L 1209 1703.5 L 1206 1693.5 L 1204 1691.5 L 1204 1688.5 L 1201 1684.5 L 1201 1680.5 L 1198 1676.5 L 1198 1673.5 L 1196 1671.5 L 1196 1668.5 L 1193 1664.5 L 1190 1653.5 L 1188 1651.5 L 1188 1648.5 L 1185 1644.5 L 1185 1641.5 L 1183 1639.5 L 1182 1634.5 L 1177 1624.5 L 1177 1621.5 L 1172 1612.5 L 1171 1606.5 L 1188 1590.5 Q 1187.3 1588.3 1189.5 1589 L 1218.5 1563 L 1240.5 1549 Z " /></svg>