<svg width="2480" height="2480" version="1.1" xmlns="http://www.w3.org/2000/svg" desc="Created with imagetracer.js version 1.2.6" ><path fill="rgb(1,2,2)" stroke="rgb(1,2,2)" stroke-width="1" opacity="0.9686274509803922" d="M 1207.5 349 L 1259.5 349 L 1260.5 350 L 1276.5 350 Q 1280.1 352.9 1287.5 352 L 1295.5 355 L 1309 366.5 L 1315.5 376 L 1365.5 391 L 1390.5 401 L 1414.5 413 Q 1439.5 427 1461.5 444 L 1487 466.5 L 1491 471.5 L 1494 473 L 1494 475 Q 1496.7 473.9 1496 476.5 Q 1517.8 498.2 1535 524.5 L 1554 556.5 L 1573 598.5 L 1576 609.5 L 1578 611.5 L 1583 630.5 L 1585 633.5 L 1590 651.5 L 1590 655.5 L 1595 670.5 L 1595 676.5 L 1597 680.5 L 1598 690.5 L 1600 695.5 L 1600 702.5 L 1602 706.5 L 1602 713.5 L 1605 725.5 L 1605 734.5 L 1607 741.5 L 1607 751.5 L 1609 758.5 L 1612 793.5 L 1617 802.5 Q 1629.1 811.4 1637 824.5 L 1641 833.5 L 1643 844.5 L 1643 852.5 L 1639 867.5 Q 1633.2 878.7 1623.5 886 L 1609.5 895 L 1599.5 900 L 1596.5 900 L 1594.5 902 L 1568.5 910 L 1553.5 912 L 1552 913.5 Q 1551.3 917.3 1553.5 918 Q 1567.9 922.6 1576 933.5 L 1585 949.5 L 1590 967.5 L 1590 976.5 L 1591 977.5 L 1591 1006.5 L 1590 1007.5 L 1590 1017.5 Q 1587.3 1020.8 1588 1027.5 L 1583 1041.5 L 1583 1045.5 L 1576 1062.5 L 1559 1089.5 L 1544.5 1104 L 1531.5 1113 L 1517 1119.5 L 1503 1169.5 L 1493 1194.5 L 1484 1211.5 Q 1458.9 1252.9 1424.5 1285 L 1407 1300.5 Q 1404.5 1304 1406 1311.5 L 1404 1317.5 L 1404 1329.5 L 1403 1330.5 L 1402 1350.5 L 1401 1351.5 L 1401 1382.5 L 1403.5 1386 Q 1429.8 1388.7 1442 1405.5 L 1469 1457.5 L 1479 1481.5 L 1499.5 1521 L 1502.5 1521 L 1507.5 1517 L 1517.5 1515 L 1548.5 1527 L 1557.5 1529 L 1562.5 1532 L 1565.5 1532 L 1567.5 1534 L 1570.5 1534 L 1581.5 1539 L 1598.5 1544 L 1600.5 1546 L 1603.5 1546 L 1632.5 1558 L 1635.5 1558 L 1645.5 1563 L 1648.5 1563 L 1677.5 1575 L 1680.5 1575 L 1685.5 1578 L 1693.5 1580 L 1735.5 1597 L 1738.5 1597 L 1740.5 1599 L 1763.5 1608 L 1769 1612.5 L 1772 1618.5 Q 1770.9 1626.7 1773 1630 L 1788.5 1636 L 1821.5 1653 L 1841.5 1667 L 1862 1684 L 1862 1686 Q 1864.7 1684.9 1864 1687.5 Q 1876.7 1698.8 1886 1713.5 L 1900 1739.5 L 1900 1742.5 L 1903 1747.5 L 1903 1750.5 L 1910 1767.5 L 1910 1771.5 L 1912 1774.5 L 1915 1789.5 L 1917 1792.5 L 1918 1801.5 L 1920 1805.5 L 1920 1810.5 L 1922 1814.5 L 1922 1821.5 L 1924 1825.5 L 1924 1831.5 L 1927 1843.5 L 1927 1851.5 L 1929 1857.5 L 1929 1866.5 L 1932 1880.5 L 1932 1891.5 L 1934 1897.5 L 1934 1909.5 L 1937 1926.5 L 1937 1936.5 L 1939 1944.5 L 1939 1958.5 L 1941 1967.5 L 1942 1991.5 L 1944 2001.5 L 1944 2019.5 L 1946 2030.5 L 1946 2047.5 L 1947 2048.5 L 1948 2071.5 L 1949 2072.5 L 1949 2093.5 L 1950 2094.5 L 1950 2104.5 L 1951 2105.5 L 1951 2125.5 L 1952 2126.5 L 1952 2136.5 L 1953 2137.5 L 1953 2153.5 L 1954 2154.5 L 1955 2179.5 L 1952.5 2184 Q 1950.8 2186.8 1945.5 2186 L 1940 2182.5 L 1938 2174.5 L 1938 2160.5 L 1936 2149.5 L 1936 2128.5 L 1935 2127.5 L 1935 2117.5 L 1934 2116.5 L 1934 2097.5 L 1933 2096.5 L 1933 2082.5 L 1932 2081.5 L 1932 2071.5 L 1931 2070.5 L 1931 2051.5 L 1929 2042.5 L 1929 2023.5 L 1928 2022.5 L 1928 2012.5 L 1927 2011.5 L 1927 2001.5 L 1926 2000.5 L 1926 1985.5 L 1924 1977.5 L 1924 1962.5 L 1923 1961.5 L 1921 1935.5 L 1919 1927.5 L 1919 1914.5 L 1917 1908.5 L 1917 1896.5 L 1914 1880.5 L 1914 1870.5 L 1912 1864.5 L 1912 1855.5 L 1910 1849.5 L 1909 1836.5 L 1907 1831.5 L 1907 1824.5 L 1905 1819.5 L 1905 1814.5 L 1902 1805.5 L 1902 1801.5 L 1900 1797.5 L 1900 1793.5 L 1897 1785.5 L 1897 1781.5 L 1895 1778.5 L 1890 1760.5 L 1888 1758.5 L 1888 1755.5 L 1880 1737.5 Q 1866.9 1710.1 1844.5 1692 L 1828.5 1679 L 1800.5 1661 L 1781.5 1651 L 1772 1649 L 1772 1660.5 L 1771 1661.5 L 1771 1683.5 L 1770 1684.5 L 1769 1760.5 L 1768 1761.5 L 1768 1798.5 L 1767 1799.5 L 1767 1895.5 L 1768 1896.5 L 1769 1951.5 L 1770 1952.5 L 1770 1968.5 L 1771 1969.5 L 1771 1981.5 L 1772 1982.5 L 1772 2006.5 L 1773 2007.5 L 1773 2018.5 L 1774 2019.5 L 1774 2040.5 L 1775 2041.5 L 1775 2056.5 L 1776 2057.5 L 1777 2090.5 L 1776 2091.5 L 1776 2114.5 L 1775 2115.5 L 1775 2127.5 L 1774 2128.5 L 1774 2142.5 L 1772 2149.5 L 1772 2158.5 L 1770 2164.5 L 1769 2176.5 L 1765.5 2184 L 1758.5 2186 L 1752 2181.5 L 1752 2170.5 L 1754 2165.5 L 1754 2158.5 L 1757 2145.5 L 1757 2133.5 L 1759 2123.5 L 1760 2080.5 L 1759 2079.5 L 1759 2047.5 L 1758 2046.5 L 1758 2036.5 L 1757 2035.5 L 1757 2012.5 L 1756 2011.5 L 1755 1979.5 L 1754 1978.5 L 1754 1958.5 L 1753 1957.5 L 1753 1945.5 L 1752 1944.5 L 1751 1864.5 L 1750 1863.5 L 1750 1816.5 L 1751 1815.5 L 1751 1775.5 L 1752 1774.5 L 1752 1717.5 L 1753 1716.5 L 1753 1699.5 L 1754 1698.5 L 1754 1662.5 L 1755 1661.5 L 1755 1632.5 Q 1757.5 1631 1756 1625.5 L 1753.5 1621 L 1722.5 1610 L 1721 1611.5 L 1721 1616.5 L 1719 1622.5 L 1719 1629.5 L 1716 1641.5 L 1716 1648.5 L 1714 1653.5 L 1714 1662.5 L 1711 1673.5 L 1711 1681.5 L 1709 1685.5 L 1709 1694.5 L 1707 1699.5 L 1706 1711.5 L 1704 1716.5 L 1704 1723.5 L 1702 1728.5 L 1702 1735.5 L 1699 1746.5 L 1699 1753.5 L 1697 1758.5 L 1697 1766.5 L 1692 1788.5 L 1692 1796.5 L 1690 1800.5 L 1689 1812.5 L 1687 1817.5 L 1687 1824.5 L 1685 1828.5 L 1685 1835.5 L 1682 1845.5 L 1682 1852.5 L 1680 1857.5 L 1677 1880.5 L 1675 1884.5 L 1675 1892.5 L 1673 1897.5 L 1672 1909.5 L 1668 1925.5 L 1668 1932.5 L 1663 1953.5 L 1663 1960.5 L 1661 1964.5 L 1660 1976.5 L 1658 1981.5 L 1658 1988.5 L 1656 1993.5 L 1653 2016.5 L 1648 2038.5 L 1648 2044.5 L 1646 2048.5 L 1646 2055.5 L 1644 2060.5 L 1643 2071.5 L 1641 2075.5 L 1641 2082.5 L 1636 2103.5 L 1636 2110.5 L 1634 2114.5 L 1634 2121.5 L 1632 2126.5 L 1631 2137.5 L 1629 2142.5 L 1629 2148.5 L 1624 2168.5 L 1624 2174.5 L 1622 2181.5 L 1619.5 2184 L 1614.5 2186 L 1607 2181.5 L 1607 2169.5 Q 1610 2165.5 1609 2157.5 L 1614 2137.5 L 1616 2119.5 L 1619 2110.5 L 1619 2103.5 L 1624 2082.5 L 1626 2065.5 L 1628 2061.5 L 1628 2056.5 L 1631 2046.5 L 1631 2039.5 L 1636 2018.5 L 1636 2010.5 L 1638 2006.5 L 1638 1999.5 L 1643 1977.5 L 1643 1970.5 L 1648 1948.5 L 1648 1941.5 L 1650 1936.5 L 1653 1913.5 L 1655 1909.5 L 1655 1901.5 L 1657 1896.5 L 1658 1885.5 L 1660 1880.5 L 1660 1873.5 L 1662 1868.5 L 1662 1862.5 L 1665 1852.5 L 1665 1845.5 L 1667 1841.5 L 1670 1818.5 L 1672 1813.5 L 1672 1806.5 L 1677 1784.5 L 1677 1776.5 L 1679 1771.5 L 1679 1764.5 L 1682 1753.5 L 1682 1746.5 L 1684 1741.5 L 1684 1733.5 L 1689 1711.5 L 1689 1703.5 L 1691 1699.5 L 1691 1692.5 L 1694 1682.5 L 1694 1674.5 L 1696 1669.5 L 1696 1661.5 L 1699 1649.5 L 1699 1642.5 L 1701 1636.5 L 1701 1628.5 L 1703 1623.5 L 1705 1603 L 1673.5 1590 L 1670.5 1590 L 1654.5 1583 L 1651.5 1583 L 1641.5 1578 L 1638.5 1578 L 1622.5 1571 L 1619.5 1571 L 1590.5 1559 L 1573.5 1554 L 1563.5 1549 L 1560.5 1549 L 1559 1550.5 L 1556 1569.5 L 1554 1574.5 L 1554 1581.5 L 1552 1586.5 L 1551 1597.5 L 1549 1601.5 L 1549 1607.5 L 1544 1628.5 L 1544 1634.5 L 1539 1655.5 L 1539 1661.5 L 1537 1665.5 L 1537 1671.5 L 1532 1691.5 L 1532 1698.5 L 1530 1702.5 L 1530 1707.5 L 1527 1717.5 L 1527 1724.5 L 1525 1728.5 L 1525 1735.5 L 1520 1754.5 L 1520 1761.5 L 1518 1765.5 L 1518 1771.5 L 1515 1781.5 L 1515 1787.5 L 1513 1791.5 L 1513 1797.5 L 1510 1806.5 L 1510 1812.5 L 1508 1816.5 L 1508 1823.5 L 1506 1827.5 L 1505 1838.5 L 1503 1843.5 L 1503 1849.5 L 1501 1853.5 L 1501 1858.5 L 1498 1869.5 L 1498 1875.5 L 1496 1879.5 L 1496 1885.5 Q 1492.7 1891.2 1493 1900.5 L 1491 1904.5 L 1491 1911.5 Q 1487.7 1917.2 1488 1926.5 L 1486 1930.5 L 1486 1936.5 L 1484 1940.5 L 1484 1946.5 L 1481 1955.5 L 1481 1961.5 L 1479 1965.5 L 1479 1972.5 L 1476 1981.5 L 1474 1996.5 L 1469 2015.5 L 1469 2021.5 L 1467 2025.5 L 1467 2031.5 L 1464 2041.5 L 1464 2046.5 L 1462 2050.5 L 1462 2056.5 L 1460 2060.5 L 1460 2065.5 L 1457 2075.5 L 1455 2090.5 L 1452 2099.5 L 1450 2114.5 L 1445 2132.5 L 1445 2138.5 L 1443 2142.5 L 1443 2147.5 L 1440 2157.5 L 1440 2163.5 L 1438 2167.5 L 1437 2178.5 L 1433.5 2184 L 1426.5 2186 L 1421 2183 Q 1418.8 2179.4 1420 2170.5 L 1423 2161.5 L 1425 2146.5 L 1427 2142.5 L 1430 2123.5 L 1432 2119.5 L 1432 2114.5 L 1437 2096.5 L 1437 2090.5 L 1439 2086.5 L 1440 2076.5 L 1442 2072.5 L 1442 2066.5 L 1444 2062.5 L 1444 2057.5 L 1447 2047.5 L 1447 2041.5 L 1449 2037.5 L 1449 2030.5 L 1451 2026.5 L 1452 2015.5 L 1454 2011.5 L 1454 2005.5 L 1456 2001.5 L 1456 1996.5 L 1459 1986.5 L 1459 1980.5 L 1461 1976.5 L 1461 1971.5 L 1464 1961.5 L 1464 1955.5 L 1466 1951.5 L 1466 1945.5 Q 1469.3 1939.8 1469 1930.5 L 1471 1926.5 L 1471 1920.5 L 1476 1901.5 L 1478 1885.5 L 1481 1876.5 L 1481 1870.5 L 1483 1865.5 L 1483 1859.5 L 1488 1838.5 L 1488 1832.5 L 1490 1827.5 L 1490 1822.5 L 1493 1812.5 L 1493 1806.5 L 1495 1802.5 L 1495 1796.5 L 1500 1776.5 L 1500 1770.5 L 1505 1750.5 L 1505 1743.5 L 1507 1739.5 L 1507 1733.5 L 1510 1724.5 L 1510 1718.5 L 1512 1714.5 L 1512 1708.5 L 1517 1688.5 L 1517 1681.5 L 1519 1677.5 L 1520 1666.5 L 1522 1661.5 L 1522 1654.5 L 1524 1650.5 L 1524 1644.5 L 1527 1634.5 L 1529 1617.5 L 1534 1596.5 L 1534 1589.5 L 1536 1585.5 L 1536 1580.5 L 1539 1570.5 L 1539 1564.5 L 1543 1549.5 L 1543 1543.5 L 1537.5 1540 L 1516.5 1533 L 1513 1537.5 Q 1506.1 1561.6 1496 1582.5 L 1496 1585.5 L 1491 1595.5 L 1491 1598.5 L 1489 1600.5 L 1488 1605.5 L 1479 1625.5 L 1479 1628.5 L 1474 1637.5 L 1474 1640.5 L 1472 1642.5 L 1459 1675.5 L 1399 1800.5 L 1360 1873.5 L 1329 1925.5 L 1329 1927.5 L 1285 1999.5 L 1249 2053.5 L 1249 2179.5 L 1244.5 2185 L 1238.5 2186 L 1233 2181.5 L 1232 2175.5 L 1233 2173.5 L 1232 2172.5 L 1232 2053.5 L 1226 2042.5 L 1190 1989.5 L 1190 1987.5 L 1139 1904.5 L 1078 1790 L 1072 1791 L 1062 1803.5 L 1055 1815.5 L 1055 1818.5 L 1043 1847.5 L 1043 1851.5 L 1044.5 1853 L 1073.5 1853 L 1078 1856.5 Q 1080.7 1860.3 1079 1868.5 L 1077 1871.5 L 1077 1876.5 L 1072 1889.5 L 1072 1893.5 L 1070 1896.5 L 1067 1909.5 L 1062 1921.5 L 1060 1932.5 L 1055 1944.5 L 1055 1948.5 L 1053 1951.5 L 1048 1971.5 L 1043 1983.5 L 1043 1987.5 L 1038 2000.5 L 1038 2003.5 L 1036 2006.5 L 1034 2015.5 L 1033 2031.5 L 1034 2032.5 L 1036 2052.5 L 1038 2057.5 L 1038 2064.5 L 1040 2068.5 L 1045 2099.5 L 1048 2107.5 L 1050 2123.5 L 1052 2127.5 L 1053 2137.5 L 1055 2141.5 Q 1054.1 2148.9 1057 2152.5 L 1057 2157.5 L 1060 2166.5 L 1061 2180.5 L 1058.5 2184 Q 1056.8 2186.8 1051.5 2186 L 1045 2180.5 L 1042 2161.5 L 1040 2157.5 L 1040 2151.5 L 1035 2133.5 L 1035 2127.5 L 1033 2123.5 L 1033 2118.5 L 1030 2109.5 L 1030 2105.5 L 1028.5 2104 L 1026 2105.5 L 1021 2121.5 L 1019 2133.5 L 1009 2164.5 L 1009 2168.5 L 1004 2181.5 L 1000.5 2185 L 995.5 2186 L 989 2181.5 L 989 2172.5 L 999 2141.5 L 1001 2130.5 L 1003 2127.5 L 1006 2112.5 L 1008 2109.5 L 1008 2105.5 L 1011 2097.5 L 1011 2092.5 L 1013 2088.5 L 1013 2083.5 L 1016 2073.5 L 1016 2064.5 L 1018 2057.5 L 1018 2024.5 L 1017 2021.5 L 1018 2020.5 L 1018 2009.5 Q 1021 2005.5 1021 1998.5 L 1028 1979.5 L 1030 1968.5 L 1033 1962.5 L 1045 1920.5 L 1052 1902.5 L 1052 1898.5 L 1059 1878.5 L 1060 1870 L 1054.5 1869 L 1053.5 1870 L 1043.5 1870 L 1042.5 1869 L 1027.5 1869 L 1015.5 1866 L 1008.5 1866 L 1004.5 1864 L 997.5 1864 L 974.5 1857 L 949.5 1847 L 930.5 1835 L 928.5 1835 L 907.5 1820 L 878 1792.5 L 870 1781 Q 865.4 1779.8 864 1782.5 L 861 1791.5 L 803 1907.5 Q 795.3 1922.3 782.5 1932 L 762 1949 Q 763.1 1951.7 760.5 1951 L 749 1964.5 L 728 1997.5 L 728 1999.5 L 716 2018.5 L 716 2020.5 L 624.5 2184 L 617.5 2186 L 611 2181.5 L 611 2173.5 L 616 2163.5 L 628 2144.5 L 640 2120.5 L 710 1995.5 L 712 1955.5 L 713 1954.5 L 713 1914.5 L 714 1913.5 L 714 1881.5 L 715 1880.5 L 715 1804.5 L 714 1803.5 L 714 1773.5 L 713 1772.5 L 713 1716.5 L 712 1715.5 L 712 1697.5 L 711 1696.5 L 711 1651.5 L 710 1649 L 705.5 1649 L 703.5 1651 L 696.5 1653 L 661.5 1673 Q 640.4 1686.4 624 1704.5 Q 604 1726.5 593 1757.5 L 588 1771.5 L 585 1786.5 L 583 1789.5 L 583 1793.5 L 581 1797.5 L 580 1806.5 L 578 1810.5 L 578 1815.5 L 575 1825.5 L 575 1830.5 L 573 1835.5 L 573 1843.5 L 571 1848.5 L 571 1856.5 L 568 1869.5 L 568 1879.5 L 566 1885.5 L 566 1896.5 L 563 1912.5 L 563 1923.5 L 561 1930.5 L 561 1943.5 L 559 1950.5 L 558 1971.5 L 556 1980.5 L 556 1997.5 L 554 2006.5 L 554 2022.5 L 553 2023.5 L 553 2033.5 L 552 2034.5 L 552 2044.5 L 551 2045.5 L 551 2063.5 L 549 2073.5 L 549 2093.5 L 548 2094.5 L 547 2121.5 L 546 2122.5 L 546 2140.5 L 544 2150.5 L 544 2168.5 L 543 2169.5 L 543 2178.5 L 538.5 2185 L 532.5 2186 L 527 2181.5 L 526 2174.5 L 527 2173.5 L 527 2158.5 L 529 2147.5 L 529 2126.5 L 531 2116.5 L 531 2095.5 L 532 2094.5 L 532 2082.5 L 533 2081.5 L 533 2070.5 L 534 2069.5 L 534 2051.5 L 536 2042.5 L 536 2024.5 L 538 2013.5 L 539 1988.5 L 541 1979.5 L 541 1964.5 L 543 1956.5 L 544 1937.5 L 546 1929.5 L 546 1918.5 L 548 1910.5 L 548 1899.5 L 551 1883.5 L 551 1872.5 L 553 1866.5 L 553 1856.5 L 555 1850.5 L 556 1836.5 L 558 1831.5 L 558 1824.5 L 560 1819.5 L 561 1809.5 L 563 1805.5 L 563 1799.5 L 575 1756.5 L 587 1728.5 Q 601.8 1699.3 625.5 1679 L 657.5 1655 L 693.5 1636 L 708 1631 L 709 1628.5 L 710 1617.5 L 717.5 1608 L 774.5 1585 L 785.5 1582 L 787.5 1580 L 790.5 1580 L 819.5 1568 L 822.5 1568 L 851.5 1556 L 854.5 1556 L 883.5 1544 L 886.5 1544 L 896.5 1539 L 907.5 1536 L 909.5 1534 L 920.5 1531 L 924 1528.5 L 926 1517.5 L 926 1495.5 L 928 1485.5 L 929 1454.5 L 931 1445.5 L 931 1434.5 L 933 1427.5 L 933 1420.5 L 936 1410.5 L 948 1390 Q 950.7 1391.1 950 1388.5 L 962.5 1377 L 1019.5 1333 L 1044.5 1311 L 1059 1301 L 1059 1295.5 L 1057.5 1295 Q 1041.2 1283.3 1028 1268.5 Q 1001.9 1241.1 982 1207.5 L 965 1169.5 L 965 1165.5 L 963 1162.5 L 958 1142.5 L 955 1135.5 L 953 1123.5 L 948.5 1117 Q 925 1108.5 911 1090.5 L 897 1069.5 L 890 1055.5 L 890 1052.5 L 887 1047.5 L 885 1037.5 L 883 1034.5 L 878 1005.5 L 878 973.5 Q 881 969.5 880 961.5 L 885 947.5 Q 890.4 934.4 900.5 926 L 916 916.5 L 915 913 L 905.5 910 L 900.5 910 L 892.5 907 L 888.5 907 L 885.5 905 L 881.5 905 L 870.5 900 L 867.5 900 L 850.5 891 L 833 875.5 Q 826.8 867.8 824 856.5 L 824 837.5 L 827 827.5 L 834 816.5 L 851 799.5 L 855 791.5 L 856 786.5 L 856 770.5 L 858 763.5 L 858 752.5 L 861 737.5 L 861 727.5 L 863 721.5 L 863 713.5 L 865 707.5 L 866 695.5 L 868 690.5 L 868 684.5 L 870 680.5 L 870 675.5 L 873 667.5 L 873 662.5 L 880 639.5 L 880 635.5 L 893 598.5 L 902 576.5 L 922 538.5 L 940 511.5 L 967 478 Q 969.7 479.1 969 476.5 Q 1002.6 441.1 1046.5 416 L 1087.5 396 L 1090.5 396 L 1095.5 393 Q 1107.3 391.3 1115.5 386 Q 1125.5 385 1132.5 381 L 1136.5 381 L 1139.5 379 L 1143.5 379 L 1153 374.5 Q 1156.6 365.6 1163.5 360 L 1178.5 352 L 1184.5 352 L 1190.5 350 L 1206.5 350 L 1207.5 349 Z M 1211 365 L 1201 367 L 1187 367 L 1176 372 L 1169 379 L 1164 390 L 1154 394 L 1148 394 L 1145 396 L 1140 396 L 1127 401 L 1123 401 L 1084 416 L 1040 440 L 1002 469 Q 973 494 951 526 L 939 544 L 924 571 L 912 597 L 912 600 L 908 607 L 900 633 L 898 636 L 895 650 L 893 653 L 893 658 L 890 666 L 890 670 L 888 673 L 888 678 L 883 697 L 883 704 L 881 708 L 881 715 L 878 727 L 878 736 L 876 742 L 876 753 L 873 770 L 873 781 L 871 788 L 871 798 L 864 812 L 856 819 Q 844 827 840 843 L 840 851 L 842 858 L 847 866 Q 858 878 876 885 L 908 895 Q 912 896 913 893 L 911 874 L 909 868 L 909 858 L 907 852 L 907 841 L 906 838 L 900 839 L 880 849 L 873 849 L 868 844 L 869 838 L 882 829 L 929 810 L 932 810 L 960 800 L 964 800 L 967 798 L 983 795 L 987 793 L 992 793 L 1008 788 L 1024 786 L 1033 783 L 1040 783 L 1044 781 L 1052 781 L 1064 778 L 1071 778 L 1076 776 L 1084 776 L 1113 771 Q 1124 772 1132 769 L 1147 769 L 1158 767 L 1167 767 L 1168 766 L 1192 766 L 1193 765 L 1207 765 L 1208 764 L 1264 764 L 1265 765 L 1278 765 L 1279 766 L 1303 766 L 1314 768 L 1323 768 L 1324 769 L 1338 769 L 1346 771 L 1358 771 L 1365 773 L 1381 774 L 1387 776 L 1395 776 L 1401 778 L 1409 778 L 1420 781 L 1438 783 L 1456 788 L 1462 788 L 1466 790 L 1474 791 L 1478 793 L 1483 793 L 1486 795 L 1502 798 L 1522 805 L 1526 805 L 1580 827 L 1594 834 L 1598 839 Q 1599 847 1595 849 L 1586 849 L 1567 839 L 1562 838 L 1559 845 L 1559 856 L 1556 869 L 1556 879 L 1554 884 L 1554 894 L 1556 895 L 1571 892 L 1589 885 L 1592 885 L 1602 880 L 1616 870 L 1621 864 L 1626 852 L 1626 842 L 1624 837 Q 1619 827 1611 820 L 1608 818 L 1597 803 L 1595 792 L 1594 772 L 1592 765 L 1592 754 L 1590 747 L 1590 738 L 1587 727 L 1585 706 L 1582 697 L 1582 692 L 1578 678 L 1578 673 L 1575 665 L 1575 661 L 1573 658 L 1573 653 L 1568 640 L 1568 636 L 1565 630 L 1565 627 L 1563 624 L 1563 621 L 1561 618 L 1561 615 L 1546 579 L 1527 544 L 1515 526 L 1492 497 L 1453 459 Q 1450 460 1451 457 L 1419 435 L 1417 435 L 1407 428 L 1388 418 L 1343 401 L 1339 401 L 1327 396 L 1312 394 L 1305 391 Q 1298 386 1296 378 Q 1291 370 1281 367 L 1270 367 L 1259 365 L 1211 365 Z M 1198 781 L 1197 782 L 1167 783 L 1166 784 L 1148 784 L 1139 786 L 1125 786 L 1124 787 L 1111 788 L 1110 789 L 1101 789 L 1096 791 L 1086 791 L 1080 793 L 1070 794 L 1060 805 Q 1061 807 1058 806 L 1052 815 Q 1036 832 1017 847 Q 999 861 986 881 L 980 893 L 980 896 L 975 909 L 975 915 L 973 919 L 973 928 L 972 929 L 973 957 L 975 967 L 975 987 L 977 997 L 978 1023 L 980 1031 L 980 1046 L 982 1054 L 982 1065 L 985 1080 L 985 1092 L 987 1098 L 987 1107 L 989 1113 L 990 1127 L 992 1131 L 992 1138 L 994 1143 L 994 1148 L 997 1158 L 997 1163 L 999 1166 L 999 1170 L 1007 1192 L 1026 1227 L 1060 1271 L 1077 1287 L 1093 1280 Q 1098 1282 1100 1279 L 1115 1280 Q 1116 1283 1121 1282 L 1136 1292 Q 1165 1319 1188 1353 L 1193 1356 L 1206 1360 Q 1212 1359 1216 1362 L 1234 1363 L 1235 1364 L 1263 1362 L 1281 1357 L 1285 1357 L 1303 1350 L 1323 1340 L 1359 1316 Q 1379 1301 1397 1282 L 1398 1282 L 1398 1281 L 1425 1251 L 1439 1232 L 1461 1193 L 1469 1171 L 1469 1167 L 1471 1164 L 1471 1159 L 1473 1155 Q 1473 1145 1476 1140 Q 1475 1131 1478 1127 L 1478 1118 L 1481 1105 L 1481 1095 L 1483 1089 L 1483 1078 L 1485 1069 L 1485 1059 L 1486 1058 L 1486 1046 L 1488 1037 L 1488 1022 L 1490 1014 L 1490 1001 L 1491 1000 L 1492 981 L 1493 980 L 1493 963 L 1495 953 L 1495 919 L 1488 902 L 1478 888 Q 1479 885 1476 886 L 1475 883 Q 1472 884 1473 881 L 1471 881 L 1453 860 L 1434 834 Q 1422 817 1414 797 L 1404 794 L 1391 793 L 1385 791 L 1376 791 L 1370 789 L 1352 788 L 1344 786 L 1331 786 L 1323 784 L 1304 784 L 1293 782 L 1277 782 L 1276 781 L 1198 781 Z M 1034 800 L 1006 806 L 1002 808 L 996 808 L 993 810 L 976 813 L 973 815 L 968 815 L 965 818 L 965 837 L 966 838 L 966 852 L 967 853 L 967 872 L 968 873 Q 967 875 971 874 L 984 856 L 1024 819 Q 1026 820 1025 817 L 1028 816 Q 1027 813 1030 814 L 1030 812 L 1032 812 L 1039 804 Q 1041 797 1034 800 Z M 1436 801 L 1438 808 L 1452 830 L 1473 858 L 1482 867 Q 1481 869 1484 868 L 1493 880 Q 1494 882 1498 882 L 1499 881 Q 1497 874 1500 873 L 1500 852 L 1501 851 L 1501 840 L 1502 839 L 1502 824 L 1503 823 L 1502 816 L 1494 813 L 1490 813 L 1487 811 L 1479 810 L 1475 808 L 1470 808 L 1467 806 L 1462 806 L 1454 803 L 1447 803 L 1443 801 L 1436 801 Z M 945 822 L 923 830 L 922 833 L 924 842 L 924 852 L 927 866 L 927 875 L 929 881 L 929 893 L 931 898 L 932 913 L 934 919 L 934 928 L 936 934 L 936 942 L 939 954 L 939 963 L 941 968 L 941 977 L 944 989 L 944 996 L 946 1001 L 946 1010 L 951 1032 L 951 1040 L 953 1045 L 953 1052 L 956 1062 L 956 1068 L 958 1072 L 958 1078 L 963 1095 L 963 1101 Q 966 1104 965 1111 L 968 1118 L 968 1123 L 971 1129 Q 969 1135 974 1133 L 974 1122 L 972 1118 L 972 1108 L 970 1103 L 970 1094 L 967 1082 L 967 1070 L 965 1063 L 965 1047 L 963 1038 L 962 1013 L 960 1004 L 960 986 L 958 976 L 958 963 L 957 962 L 956 942 L 955 941 L 955 917 L 953 907 L 953 887 L 952 886 L 952 875 L 951 874 L 950 841 L 949 840 L 948 824 L 945 822 Z M 1520 823 L 1518 825 L 1518 852 L 1517 853 L 1516 876 L 1515 877 L 1515 900 L 1514 901 L 1514 911 L 1513 912 L 1513 932 L 1511 942 L 1511 953 L 1510 954 L 1510 972 L 1508 981 L 1508 996 L 1506 1006 L 1505 1032 L 1503 1040 L 1503 1056 L 1501 1065 L 1501 1077 L 1498 1092 L 1498 1101 L 1496 1107 L 1496 1115 L 1493 1127 L 1496 1133 L 1500 1123 L 1500 1117 L 1503 1109 L 1505 1093 L 1507 1089 L 1507 1084 L 1510 1075 L 1510 1069 L 1512 1065 L 1512 1059 L 1515 1049 L 1515 1043 L 1517 1038 L 1517 1030 L 1519 1025 L 1520 1011 L 1522 1006 L 1522 997 L 1524 991 L 1524 983 L 1527 970 L 1527 961 L 1529 955 L 1529 945 L 1531 939 L 1532 924 L 1534 918 L 1534 909 L 1536 903 L 1536 895 L 1539 881 L 1539 870 L 1541 865 L 1541 855 L 1544 842 L 1544 832 L 1537 827 L 1528 825 L 1525 823 L 1520 823 Z M 1551 934 L 1549 935 L 1547 937 L 1546 952 L 1544 958 L 1544 968 L 1542 974 L 1542 984 L 1537 1009 L 1537 1018 L 1535 1023 L 1534 1036 L 1532 1041 L 1532 1049 L 1530 1053 L 1530 1060 L 1525 1079 L 1525 1085 L 1522 1093 L 1524 1096 L 1527 1096 L 1535 1090 Q 1552 1074 1563 1051 L 1563 1048 L 1565 1046 Q 1565 1039 1568 1037 L 1568 1033 L 1570 1030 L 1575 1003 L 1575 980 Q 1572 976 1573 968 L 1568 953 L 1563 945 L 1551 934 Z M 917 936 L 911 940 Q 902 948 898 961 Q 898 967 895 972 L 895 982 L 894 983 L 895 1011 L 900 1029 L 900 1034 L 912 1062 Q 918 1073 927 1082 L 929 1085 L 942 1096 L 946 1096 Q 947 1089 943 1085 L 943 1079 L 941 1075 L 941 1069 L 938 1060 L 938 1054 L 936 1050 L 936 1043 L 933 1033 L 933 1027 L 931 1022 L 931 1013 L 929 1009 L 928 995 L 926 990 L 926 981 L 924 975 L 924 966 L 921 953 L 920 939 L 917 936 Z M 1102 1295 L 1094 1297 L 1074 1310 L 973 1392 L 970 1394 L 954 1412 L 951 1418 L 948 1432 L 948 1441 L 946 1449 L 946 1468 L 944 1479 L 943 1508 L 942 1509 L 942 1520 L 941 1521 L 941 1544 L 940 1545 L 940 1555 L 939 1556 L 939 1576 L 938 1577 L 938 1589 L 937 1590 L 937 1604 L 936 1605 L 936 1628 L 935 1629 L 935 1639 L 934 1640 L 934 1661 L 932 1671 L 931 1689 L 929 1694 L 929 1702 L 915 1750 L 912 1755 L 912 1758 L 907 1770 L 905 1772 L 905 1775 L 898 1786 L 899 1790 Q 928 1819 968 1837 L 971 1837 L 973 1839 L 976 1839 L 988 1844 L 992 1844 L 1008 1849 L 1015 1849 Q 1017 1852 1024 1851 L 1026 1848 L 1033 1829 L 1033 1826 L 1045 1799 Q 1054 1785 1066 1775 L 1068 1772 L 1073 1768 L 1073 1767 L 1088 1751 L 1098 1734 L 1105 1716 L 1110 1694 L 1110 1645 L 1108 1638 L 1108 1623 L 1106 1613 L 1106 1590 Q 1109 1586 1108 1580 L 1115 1567 L 1125 1558 L 1145 1549 L 1154 1547 L 1160 1548 L 1164 1554 L 1163 1560 L 1157 1564 L 1146 1566 L 1133 1573 L 1125 1583 L 1123 1588 L 1123 1596 L 1122 1597 L 1123 1602 L 1129 1604 L 1139 1602 L 1163 1592 L 1166 1592 L 1184 1583 L 1188 1578 L 1192 1565 Q 1192 1555 1195 1549 L 1195 1541 L 1197 1536 L 1197 1523 L 1198 1522 L 1197 1512 L 1195 1508 Q 1190 1500 1180 1498 L 1166 1498 L 1151 1501 L 1144 1501 L 1140 1503 L 1132 1503 L 1127 1505 L 1114 1506 L 1109 1508 L 1100 1508 L 1094 1510 L 1086 1510 L 1076 1513 L 1069 1511 L 1065 1505 L 1066 1500 L 1073 1495 L 1084 1495 Q 1089 1492 1099 1493 L 1110 1490 L 1118 1490 L 1123 1488 L 1131 1488 L 1136 1486 L 1149 1485 L 1154 1483 L 1165 1483 L 1166 1482 L 1180 1482 L 1196 1486 L 1198 1484 L 1200 1478 L 1200 1471 L 1202 1463 Q 1202 1453 1198 1448 L 1191 1440 L 1181 1437 L 1159 1438 L 1154 1440 L 1146 1440 L 1141 1442 L 1128 1443 L 1123 1445 L 1114 1445 L 1109 1447 L 1102 1447 L 1091 1450 L 1083 1450 L 1078 1452 L 1069 1452 L 1058 1455 L 1051 1455 L 1046 1457 Q 1037 1459 1035 1455 L 1032 1450 L 1033 1445 L 1040 1440 L 1055 1439 L 1061 1437 L 1069 1437 L 1092 1432 L 1099 1432 L 1104 1430 L 1112 1430 L 1122 1427 L 1128 1427 L 1133 1425 L 1141 1425 L 1146 1423 L 1154 1423 L 1170 1420 L 1185 1420 L 1186 1419 L 1185 1405 L 1178 1388 Q 1173 1381 1163 1379 L 1145 1379 Q 1143 1382 1137 1380 L 1133 1382 L 1126 1382 L 1123 1384 L 1118 1384 L 1111 1387 L 1106 1387 L 1103 1389 L 1098 1389 L 1091 1392 L 1086 1392 L 1083 1394 L 1078 1394 L 1064 1399 L 1059 1399 L 1044 1404 L 1030 1406 L 1027 1408 L 1014 1411 L 1008 1410 L 1003 1405 L 1004 1399 L 1011 1394 Q 1017 1394 1022 1391 L 1027 1391 L 1041 1386 L 1046 1386 L 1050 1384 L 1055 1384 L 1059 1382 L 1067 1381 L 1070 1379 L 1075 1379 L 1081 1376 L 1106 1352 L 1112 1352 L 1115 1354 Q 1117 1357 1116 1366 L 1118 1367 L 1124 1367 L 1147 1362 L 1161 1362 L 1173 1366 L 1175 1365 L 1175 1362 L 1166 1350 L 1141 1322 L 1121 1302 L 1113 1297 L 1102 1295 Z M 1385 1317 Q 1352 1345 1311 1365 L 1292 1372 L 1288 1372 L 1281 1375 L 1276 1375 L 1272 1377 L 1263 1377 L 1257 1379 L 1244 1379 L 1243 1380 L 1221 1379 Q 1216 1376 1207 1377 L 1198 1374 Q 1194 1373 1193 1376 L 1193 1382 L 1198 1390 L 1203 1408 L 1203 1429 L 1213 1441 L 1217 1452 L 1217 1477 Q 1214 1479 1215 1486 L 1210 1496 L 1210 1502 L 1212 1505 L 1214 1514 L 1214 1528 L 1212 1536 L 1212 1545 L 1210 1550 L 1210 1557 L 1209 1558 L 1210 1562 L 1220 1572 L 1222 1576 L 1237 1623 L 1237 1627 L 1239 1630 L 1239 1631 L 1243 1631 L 1251 1600 L 1253 1598 L 1253 1594 L 1258 1582 L 1258 1579 L 1263 1570 L 1311 1534 L 1339 1509 Q 1341 1510 1340 1507 L 1342 1507 L 1374 1475 Q 1373 1472 1376 1473 L 1390 1456 L 1389 1440 L 1386 1423 L 1385 1384 L 1384 1383 L 1386 1332 L 1388 1324 L 1388 1317 L 1385 1317 Z M 1402 1403 L 1403 1426 L 1405 1427 L 1410 1426 L 1417 1427 L 1420 1432 L 1420 1437 L 1416 1447 L 1399 1472 Q 1378 1498 1353 1520 Q 1350 1519 1351 1522 L 1314 1553 L 1284 1574 Q 1275 1580 1271 1592 L 1268 1606 L 1266 1609 L 1266 1613 L 1261 1625 L 1261 1629 L 1258 1635 L 1256 1645 L 1250 1662 L 1251 1671 L 1258 1689 L 1268 1725 L 1269 1751 L 1270 1752 L 1270 1949 L 1268 1953 L 1263 1955 L 1258 1954 L 1253 1950 L 1253 1738 L 1251 1731 L 1251 1723 L 1248 1716 L 1248 1712 L 1246 1710 L 1246 1706 L 1243 1700 L 1243 1697 L 1241 1694 L 1241 1690 L 1238 1684 L 1238 1681 L 1236 1678 L 1234 1668 L 1224 1641 L 1208 1586 Q 1207 1583 1203 1584 L 1202 1589 L 1190 1600 L 1198 1612 L 1198 1621 Q 1196 1626 1188 1624 L 1181 1616 Q 1180 1613 1176 1614 L 1169 1623 L 1147 1665 L 1120 1721 L 1115 1738 L 1108 1752 L 1091 1774 L 1091 1779 L 1106 1809 L 1125 1842 L 1142 1876 L 1206 1983 L 1237 2031 L 1242 2034 L 1277 1981 L 1289 1959 L 1311 1925 L 1311 1923 L 1328 1896 L 1369 1821 L 1374 1809 L 1384 1792 L 1408 1744 L 1432 1691 L 1437 1683 L 1437 1680 L 1447 1660 L 1447 1657 L 1449 1655 L 1461 1624 L 1466 1615 L 1466 1612 L 1473 1598 L 1473 1593 L 1470 1594 L 1470 1597 L 1467 1600 L 1457 1620 L 1430 1666 L 1401 1710 L 1387 1728 L 1378 1735 Q 1372 1736 1370 1733 L 1365 1729 L 1321 1639 L 1308 1617 L 1305 1614 L 1302 1615 L 1295 1624 Q 1285 1626 1283 1621 Q 1282 1608 1289 1604 L 1298 1597 Q 1302 1598 1304 1596 L 1311 1597 L 1316 1600 L 1324 1610 L 1343 1644 L 1370 1699 L 1370 1702 L 1374 1710 L 1378 1711 L 1392 1693 L 1432 1630 L 1437 1619 L 1454 1591 L 1466 1566 L 1471 1559 L 1484 1532 L 1484 1527 L 1428 1416 L 1416 1406 L 1408 1403 L 1402 1403 Z M 919 1549 L 890 1561 L 873 1566 L 849 1576 L 840 1578 L 830 1583 L 827 1583 L 812 1590 L 809 1590 L 799 1595 L 796 1595 L 779 1602 L 776 1606 L 779 1621 L 779 1630 L 781 1635 L 781 1643 L 784 1655 L 784 1663 L 786 1667 L 786 1675 L 789 1686 L 789 1693 L 791 1697 L 791 1706 L 793 1710 L 793 1717 L 798 1739 L 798 1746 L 803 1768 L 803 1776 L 805 1780 L 806 1792 L 808 1797 L 808 1805 L 810 1809 L 811 1821 L 813 1827 L 813 1837 Q 814 1839 818 1838 L 824 1828 L 858 1759 L 863 1755 Q 869 1754 872 1757 L 880 1769 L 886 1773 L 890 1767 L 895 1753 L 897 1751 L 904 1727 L 907 1721 Q 906 1715 909 1714 L 909 1709 L 912 1701 L 912 1696 L 914 1692 L 914 1683 L 916 1677 L 916 1665 L 917 1664 L 917 1650 L 918 1649 L 919 1607 L 920 1606 L 920 1596 L 921 1595 L 921 1570 L 922 1569 L 922 1557 L 923 1556 L 922 1550 L 919 1549 Z M 758 1610 L 741 1617 L 738 1617 L 736 1619 L 733 1619 L 726 1624 L 726 1644 L 727 1645 L 727 1662 L 728 1663 L 728 1703 L 729 1704 L 729 1727 L 730 1728 L 730 1773 L 731 1774 L 731 1913 L 730 1914 L 730 1946 L 729 1947 L 729 1958 L 733 1958 L 744 1944 L 770 1921 L 785 1906 L 793 1891 L 793 1888 L 803 1871 Q 803 1861 800 1856 L 800 1849 L 798 1844 L 798 1838 L 795 1828 L 795 1821 L 793 1816 L 793 1809 L 791 1804 L 790 1792 L 788 1787 L 788 1780 L 786 1775 L 786 1768 L 783 1758 L 783 1750 Q 780 1746 781 1738 L 776 1716 L 776 1709 L 771 1687 L 771 1679 L 769 1674 L 769 1666 L 766 1655 L 766 1647 L 764 1642 L 764 1634 L 762 1628 L 761 1615 L 758 1610 Z M 1151 1614 L 1137 1619 L 1126 1619 L 1123 1622 L 1127 1660 L 1130 1661 L 1132 1659 L 1147 1628 L 1154 1618 L 1154 1615 L 1151 1614 Z " /><path fill="rgb(1,2,2)" stroke="rgb(1,2,2)" stroke-width="1" opacity="0.9686274509803922" d="M 1150.5 415 L 1155.5 415 L 1162 420.5 L 1162 425.5 L 1159 437.5 L 1159 445.5 L 1157 450.5 L 1157 457.5 L 1152 479.5 L 1152 487.5 L 1147 509.5 L 1147 517.5 L 1145 522.5 L 1144 534.5 L 1142 539.5 L 1142 546.5 L 1140 551.5 L 1140 558.5 L 1137 568.5 L 1137 574.5 L 1135 579.5 L 1135 586.5 L 1133 591.5 L 1132 604.5 L 1130 609.5 L 1130 617.5 L 1128 622.5 L 1128 628.5 L 1125 638.5 L 1125 645.5 L 1123 650.5 L 1121 669.5 L 1120 674.5 L 1116.5 679 L 1109.5 680 L 1105 676.5 L 1104 666.5 L 1105 665.5 L 1106 652.5 L 1108 647.5 L 1108 639.5 L 1110 635.5 L 1110 627.5 L 1115 606.5 L 1115 598.5 L 1117 594.5 L 1117 587.5 L 1120 577.5 L 1120 569.5 L 1122 565.5 L 1122 558.5 L 1127 538.5 L 1127 530.5 L 1132 508.5 L 1132 500.5 L 1137 479.5 L 1137 471.5 L 1139 466.5 L 1139 459.5 L 1142 447.5 L 1142 440.5 L 1144 435.5 L 1144 426.5 L 1146 419.5 L 1150.5 415 Z " /><path fill="rgb(1,2,2)" stroke="rgb(1,2,2)" stroke-width="1" opacity="0.9686274509803922" d="M 1310.5 415 Q 1316.7 414.4 1319 417 L 1321 421.5 L 1322 433.5 L 1324 438.5 L 1326 459.5 L 1329 469.5 L 1329 476.5 L 1331 481.5 L 1331 488.5 L 1336 510.5 L 1336 518.5 Q 1338.9 522.1 1338 529.5 L 1341 539.5 L 1341 546.5 L 1343 551.5 L 1343 558.5 L 1345 563.5 L 1346 575.5 L 1348 580.5 L 1348 587.5 L 1353 609.5 L 1353 617.5 L 1355 622.5 L 1355 629.5 L 1360 650.5 L 1360 658.5 L 1363 668.5 L 1363 674.5 L 1357.5 680 L 1351.5 680 L 1347 676.5 L 1345 672.5 L 1345 663.5 L 1343 658.5 L 1343 651.5 L 1340 640.5 L 1340 633.5 L 1338 628.5 L 1338 620.5 L 1336 615.5 L 1335 602.5 L 1333 597.5 L 1333 590.5 L 1331 585.5 L 1331 579.5 L 1328 567.5 L 1328 560.5 L 1326 555.5 L 1326 548.5 L 1323 537.5 L 1323 530.5 L 1321 525.5 L 1321 518.5 L 1319 513.5 L 1318 501.5 L 1316 497.5 L 1316 489.5 L 1311 468.5 L 1311 460.5 L 1309 455.5 L 1309 448.5 L 1306 438.5 L 1306 431.5 L 1304 421.5 L 1307.5 417 L 1310.5 415 Z " /><path fill="rgb(1,2,2)" stroke="rgb(1,2,2)" stroke-width="1" opacity="0.9686274509803922" d="M 613.5 538 L 627.5 538 L 628.5 539 L 637.5 539 Q 639.8 541.7 645.5 541 Q 660.5 546 670 556.5 L 675 563.5 L 682 579.5 L 683 607.5 L 680 623.5 L 675 637.5 L 668 650.5 L 668 653.5 L 686 669.5 L 692 681.5 L 693 700.5 L 689 718.5 L 679 740.5 L 675 745.5 L 675 748.5 L 676 751 L 680 753.5 L 684 759.5 L 687 768.5 L 687 776.5 L 682 792.5 L 672 812.5 L 672 819.5 L 681.5 830 Q 690.3 833.7 696 840.5 L 697 844.5 L 694 851 L 688.5 853 L 682.5 851 L 664 837 L 657 826.5 L 656 811.5 L 660 798.5 L 669 780.5 L 670 770.5 L 666.5 764 Q 661.8 763.3 661 766.5 L 646.5 782 L 624.5 796 L 609.5 800 L 601.5 800 Q 593.9 798.1 590 792.5 Q 587 788.5 588 780.5 Q 591.5 767 600.5 759 Q 612.2 747.7 629.5 742 Q 636.2 742.7 639.5 740 L 654.5 740 L 658.5 741 L 662 737.5 L 674 711.5 L 674 707.5 L 677 698.5 L 677 688.5 Q 674.4 677.1 665.5 672 Q 663.6 668.4 657.5 669 L 641 692 Q 638.3 690.9 639 693.5 L 618.5 714 L 581.5 740 L 559.5 750 Q 554.2 749.2 552.5 752 L 533.5 754 L 523.5 752 L 517.5 749 L 511 742.5 Q 506.5 737 508 725.5 L 515 708.5 L 529.5 691 L 532.5 689 L 546.5 677 L 580.5 658 L 597.5 652 L 604.5 650 L 610.5 650 L 614.5 648 L 641.5 647 L 642.5 648 L 650.5 648 L 660 630.5 L 665 616.5 Q 664.4 610.4 667 607.5 L 667 588.5 L 664 578.5 L 657 566 L 650.5 561 L 639.5 556 L 632.5 556 L 625.5 554 L 615.5 554 L 606.5 556 L 598.5 556 L 594.5 558 L 578.5 561 L 575.5 563 L 563.5 566 L 561.5 568 L 558.5 568 L 533.5 580 L 490.5 608 L 457 639.5 Q 445 652 437 668.5 L 432 683.5 L 432 698.5 L 438 708.5 L 438 713.5 L 433.5 719 L 428.5 720 Q 422.4 718.6 420 713.5 L 415 700.5 L 415 681.5 L 420 665.5 L 434 641.5 Q 447.8 623.3 464.5 608 Q 494.8 580.3 533.5 561 L 571.5 546 L 575.5 546 L 591.5 541 Q 598.9 541.9 602.5 539 L 612.5 539 L 613.5 538 Z M 628 663 L 622 665 L 614 665 Q 612 668 607 667 L 579 677 Q 558 687 544 702 Q 541 701 542 704 L 539 706 Q 540 708 537 707 L 537 709 L 535 709 L 527 721 L 524 729 L 524 733 L 531 737 L 546 737 L 574 725 L 600 708 L 626 683 Q 625 680 628 681 L 638 669 L 638 665 L 637 663 L 628 663 Z M 636 757 Q 623 761 615 769 L 606 779 L 605 783 L 612 783 L 627 776 L 639 766 Q 641 767 640 764 L 645 761 L 645 757 L 636 757 Z " /><path fill="rgb(1,2,2)" stroke="rgb(1,2,2)" stroke-width="1" opacity="0.9686274509803922" d="M 1205.5 703 L 1262.5 703 L 1263.5 704 L 1279.5 704 L 1280.5 705 L 1292.5 705 L 1293.5 706 L 1310.5 706 L 1318.5 708 L 1330.5 708 L 1337.5 710 L 1353.5 711 L 1359.5 713 L 1367.5 713 Q 1371.5 716 1379.5 715 L 1389.5 718 L 1396.5 718 L 1400.5 720 L 1406.5 720 L 1414.5 723 L 1428.5 725 L 1442.5 730 L 1453.5 732 L 1459.5 735 L 1469.5 737 L 1474.5 740 L 1489.5 744 L 1494.5 747 L 1497.5 747 L 1527.5 759 L 1538.5 764 L 1542 767.5 Q 1544 777 1538.5 779 L 1533.5 780 L 1528.5 779 L 1520.5 774 L 1498.5 765 L 1470.5 755 L 1467.5 755 L 1462.5 752 L 1458.5 752 L 1438.5 745 L 1433.5 745 L 1418.5 740 L 1404.5 738 L 1387.5 733 L 1380.5 733 L 1375.5 731 L 1362.5 730 L 1356.5 728 L 1347.5 728 L 1341.5 726 L 1332.5 726 L 1316.5 723 L 1302.5 723 L 1293.5 721 L 1267.5 721 L 1266.5 720 L 1194.5 720 L 1193.5 721 L 1172.5 721 L 1162.5 723 L 1147.5 723 L 1140.5 725 L 1123.5 726 L 1117.5 728 L 1108.5 728 L 1103.5 730 L 1097.5 730 L 1086.5 733 L 1079.5 733 L 1075.5 735 L 1069.5 735 L 1061.5 738 L 1056.5 738 L 1052.5 740 L 1047.5 740 Q 1043.5 743 1036.5 743 L 1033.5 745 L 1028.5 745 L 1025.5 747 L 1010.5 750 L 1007.5 752 L 1003.5 752 Q 1000.5 755 994.5 755 L 992.5 757 L 988.5 757 L 986.5 759 L 975.5 762 L 965.5 767 L 962.5 767 L 960.5 769 L 957.5 769 L 937.5 779 L 930.5 780 L 924 775.5 Q 922.5 766.5 927.5 764 L 962.5 749 L 965.5 749 L 967.5 747 L 970.5 747 L 1008.5 733 L 1015.5 732 L 1018.5 730 L 1022.5 730 L 1037.5 725 L 1042.5 725 L 1059.5 720 L 1064.5 720 L 1068.5 718 L 1075.5 718 L 1085.5 715 L 1092.5 715 L 1097.5 713 L 1106.5 713 L 1112.5 711 L 1120.5 711 L 1135.5 708 L 1148.5 708 L 1156.5 706 L 1173.5 706 L 1174.5 705 L 1204.5 704 L 1205.5 703 Z " /><path fill="rgb(1,2,2)" stroke="rgb(1,2,2)" stroke-width="1" opacity="0.9686274509803922" d="M 1268.5 827 Q 1276.2 825.2 1278 829.5 L 1280 836.5 L 1280 847.5 L 1287 860.5 L 1287 864.5 L 1283.5 869 L 1276.5 870 L 1270 864.5 L 1265 853.5 L 1263 833.5 L 1266.5 828 L 1268.5 827 Z " /><path fill="rgb(1,2,2)" stroke="rgb(1,2,2)" stroke-width="1" opacity="0.9686274509803922" d="M 1307.5 838 L 1315.5 839 L 1334.5 853 L 1353.5 861 L 1377.5 866 L 1400.5 867 L 1401.5 866 L 1424.5 866 Q 1429.8 867.8 1428 876.5 L 1426 880 L 1407.5 883 L 1385.5 883 L 1384.5 882 L 1369.5 881 L 1359.5 878 L 1354.5 878 L 1351.5 876 L 1347.5 876 L 1339.5 873 Q 1317.9 865.1 1303 850.5 L 1302 842.5 L 1307.5 838 Z " /><path fill="rgb(1,2,2)" stroke="rgb(1,2,2)" stroke-width="1" opacity="0.9686274509803922" d="M 1156.5 847 L 1164 851.5 L 1165 856.5 Q 1163.4 863.4 1157.5 866 Q 1139.2 880.2 1114.5 888 L 1110.5 888 L 1107.5 890 L 1102.5 890 L 1093.5 893 L 1059.5 895 L 1058.5 894 L 1043.5 893 L 1041 890.5 L 1040 882.5 L 1043 878 L 1079.5 878 L 1093.5 875 L 1099.5 875 L 1102.5 873 L 1106.5 873 L 1118.5 868 L 1121.5 868 L 1123.5 866 L 1132.5 863 Q 1142.1 858.6 1148.5 851 L 1156.5 847 Z " /><path fill="rgb(1,2,2)" stroke="rgb(1,2,2)" stroke-width="1" opacity="0.9686274509803922" d="M 1109.5 940 L 1119.5 941 L 1130 948.5 L 1135 959.5 L 1135 973.5 Q 1132.6 983.6 1125.5 989 Q 1119.7 994.2 1106.5 992 Q 1097.8 988.8 1093 981.5 L 1089 970.5 L 1089 962.5 L 1091 954.5 L 1096 946 L 1104.5 941 L 1109.5 940 Z " /><path fill="rgb(1,2,2)" stroke="rgb(1,2,2)" stroke-width="1" opacity="0.9686274509803922" d="M 1356.5 940 Q 1373.5 938.5 1379 948.5 L 1384 960.5 L 1384 972.5 Q 1381.6 983.6 1373.5 989 L 1366.5 992 L 1355.5 992 Q 1347.4 989.1 1343 982.5 L 1340 977.5 L 1338 962.5 L 1342 950.5 L 1347.5 944 L 1356.5 940 Z " /><path fill="rgb(1,2,2)" stroke="rgb(1,2,2)" stroke-width="1" opacity="0.9686274509803922" d="M 1218.5 1094 L 1222.5 1094 L 1231.5 1098 L 1241.5 1099 Q 1242.7 1096.8 1247.5 1098 L 1256.5 1094 L 1260.5 1094 L 1264 1096.5 L 1265 1103.5 L 1257.5 1110 L 1248.5 1113 L 1229.5 1113 L 1217.5 1108 L 1214 1104.5 Q 1212.2 1096.8 1216.5 1095 L 1218.5 1094 Z " /><path fill="rgb(1,2,2)" stroke="rgb(1,2,2)" stroke-width="1" opacity="0.9686274509803922" d="M 1234.5 1192 L 1254.5 1193 L 1260.5 1195 L 1268.5 1195 Q 1270.8 1197.7 1276.5 1197 L 1291.5 1202 L 1305.5 1209 L 1311 1213.5 L 1313 1219.5 L 1310.5 1225 Q 1308.5 1228 1302.5 1227 L 1285.5 1217 L 1260.5 1210 L 1229.5 1209 L 1228.5 1210 L 1219.5 1210 L 1215.5 1212 L 1210.5 1212 L 1203.5 1215 L 1199.5 1215 L 1175.5 1227 L 1171.5 1227 L 1166 1221.5 L 1166 1216.5 L 1171.5 1210 L 1187.5 1202 L 1190.5 1202 L 1203.5 1197 L 1223.5 1193 L 1233.5 1193 L 1234.5 1192 Z " /><path fill="rgb(1,2,2)" stroke="rgb(1,2,2)" stroke-width="1" opacity="0.9686274509803922" d="M 813.5 1936 L 820.5 1936 L 835 1948 Q 833.9 1950.7 836.5 1950 L 847.5 1960 L 871.5 1977 L 893.5 1989 L 910.5 1996 L 937.5 2004 L 943.5 2004 L 947.5 2006 L 955.5 2006 L 964.5 2008 L 980.5 2008 Q 982.3 2010.7 988.5 2009 L 990 2010.5 Q 993.4 2013.1 992 2020.5 Q 987.8 2027.3 974.5 2025 L 973.5 2024 L 954.5 2024 L 943.5 2021 L 937.5 2021 L 933.5 2019 L 928.5 2019 L 911.5 2014 L 886.5 2004 L 860.5 1990 L 842.5 1978 L 810 1948.5 L 809 1942.5 L 813.5 1936 Z " /><path fill="rgb(0,0,0)" stroke="rgb(0,0,0)" stroke-width="1" opacity="0" d="M 0 0 L 2480 0 L 2480 2480 L 0 2480 L 0 0 Z M 1208 349 L 1207 350 L 1191 350 L 1185 352 L 1179 352 L 1164 360 Q 1157 366 1153 375 L 1144 379 L 1140 379 L 1137 381 L 1133 381 Q 1125 385 1116 386 Q 1107 391 1096 393 L 1091 396 L 1088 396 L 1047 416 Q 1003 441 969 477 Q 970 479 967 478 L 940 512 L 922 539 L 902 577 L 893 599 L 880 636 L 880 640 L 873 663 L 873 668 L 870 676 L 870 681 L 868 685 L 868 691 L 866 696 L 865 708 L 863 714 L 863 722 L 861 728 L 861 738 L 858 753 L 858 764 L 856 771 L 856 787 L 855 792 L 851 800 L 834 817 L 827 828 L 824 838 L 824 857 Q 827 868 833 876 L 851 891 L 868 900 L 871 900 L 882 905 L 886 905 L 889 907 L 893 907 L 901 910 L 906 910 L 915 913 L 916 917 L 901 926 Q 890 934 885 948 L 880 962 Q 881 970 878 974 L 878 1006 L 883 1035 L 885 1038 L 887 1048 L 890 1053 L 890 1056 L 897 1070 L 911 1091 Q 925 1109 949 1117 L 953 1124 L 955 1136 L 958 1143 L 963 1163 L 965 1166 L 965 1170 L 982 1208 Q 1002 1241 1028 1269 Q 1041 1283 1058 1295 L 1059 1296 L 1059 1301 L 1045 1311 L 1020 1333 L 963 1377 L 950 1389 Q 951 1391 948 1390 L 936 1411 L 933 1421 L 933 1428 L 931 1435 L 931 1446 L 929 1455 L 928 1486 L 926 1496 L 926 1518 L 924 1529 L 921 1531 L 910 1534 L 908 1536 L 897 1539 L 887 1544 L 884 1544 L 855 1556 L 852 1556 L 823 1568 L 820 1568 L 791 1580 L 788 1580 L 786 1582 L 775 1585 L 718 1608 L 710 1618 L 709 1629 L 708 1631 L 694 1636 L 658 1655 L 626 1679 Q 602 1699 587 1729 L 575 1757 L 563 1800 L 563 1806 L 561 1810 L 560 1820 L 558 1825 L 558 1832 L 556 1837 L 555 1851 L 553 1857 L 553 1867 L 551 1873 L 551 1884 L 548 1900 L 548 1911 L 546 1919 L 546 1930 L 544 1938 L 543 1957 L 541 1965 L 541 1980 L 539 1989 L 538 2014 L 536 2025 L 536 2043 L 534 2052 L 534 2070 L 533 2071 L 533 2082 L 532 2083 L 532 2095 L 531 2096 L 531 2117 L 529 2127 L 529 2148 L 527 2159 L 527 2174 L 526 2175 L 527 2182 L 533 2186 L 539 2185 L 543 2179 L 543 2170 L 544 2169 L 544 2151 L 546 2141 L 546 2123 L 547 2122 L 548 2095 L 549 2094 L 549 2074 L 551 2064 L 551 2046 L 552 2045 L 552 2035 L 553 2034 L 553 2024 L 554 2023 L 554 2007 L 556 1998 L 556 1981 L 558 1972 L 559 1951 L 561 1944 L 561 1931 L 563 1924 L 563 1913 L 566 1897 L 566 1886 L 568 1880 L 568 1870 L 571 1857 L 571 1849 L 573 1844 L 573 1836 L 575 1831 L 575 1826 L 578 1816 L 578 1811 L 580 1807 L 581 1798 L 583 1794 L 583 1790 L 585 1787 L 588 1772 L 593 1758 Q 604 1727 624 1705 Q 640 1686 662 1673 L 697 1653 L 704 1651 L 706 1649 L 710 1649 L 711 1652 L 711 1697 L 712 1698 L 712 1716 L 713 1717 L 713 1773 L 714 1774 L 714 1804 L 715 1805 L 715 1881 L 714 1882 L 714 1914 L 713 1915 L 713 1955 L 712 1956 L 710 1996 L 640 2121 L 628 2145 L 616 2164 L 611 2174 L 611 2182 L 618 2186 L 625 2184 L 716 2021 L 716 2019 L 728 2000 L 728 1998 L 749 1965 L 761 1951 Q 763 1952 762 1949 L 783 1932 Q 795 1922 803 1908 L 861 1792 L 864 1783 Q 865 1780 870 1781 L 878 1793 L 908 1820 L 929 1835 L 931 1835 L 950 1847 L 975 1857 L 998 1864 L 1005 1864 L 1009 1866 L 1016 1866 L 1028 1869 L 1043 1869 L 1044 1870 L 1054 1870 L 1055 1869 L 1060 1870 L 1059 1879 L 1052 1899 L 1052 1903 L 1045 1921 L 1033 1963 L 1030 1969 L 1028 1980 L 1021 1999 Q 1021 2005 1018 2010 L 1018 2021 L 1017 2022 L 1018 2025 L 1018 2058 L 1016 2065 L 1016 2074 L 1013 2084 L 1013 2089 L 1011 2093 L 1011 2098 L 1008 2106 L 1008 2110 L 1006 2113 L 1003 2128 L 1001 2131 L 999 2142 L 989 2173 L 989 2182 L 996 2186 L 1001 2185 L 1004 2182 L 1009 2169 L 1009 2165 L 1019 2134 L 1021 2122 L 1026 2106 L 1029 2104 L 1030 2106 L 1030 2110 L 1033 2119 L 1033 2124 L 1035 2128 L 1035 2134 L 1040 2152 L 1040 2158 L 1042 2162 L 1045 2181 L 1052 2186 Q 1057 2187 1059 2184 L 1061 2181 L 1060 2167 L 1057 2158 L 1057 2153 Q 1054 2149 1055 2142 L 1053 2138 L 1052 2128 L 1050 2124 L 1048 2108 L 1045 2100 L 1040 2069 L 1038 2065 L 1038 2058 L 1036 2053 L 1034 2033 L 1033 2032 L 1034 2016 L 1036 2007 L 1038 2004 L 1038 2001 L 1043 1988 L 1043 1984 L 1048 1972 L 1053 1952 L 1055 1949 L 1055 1945 L 1060 1933 L 1062 1922 L 1067 1910 L 1070 1897 L 1072 1894 L 1072 1890 L 1077 1877 L 1077 1872 L 1079 1869 Q 1081 1860 1078 1857 L 1074 1853 L 1045 1853 L 1043 1852 L 1043 1848 L 1055 1819 L 1055 1816 L 1062 1804 L 1072 1791 L 1078 1790 L 1139 1905 L 1190 1988 L 1190 1990 L 1226 2043 L 1232 2054 L 1232 2173 L 1233 2174 L 1232 2176 L 1233 2182 L 1239 2186 L 1245 2185 L 1249 2180 L 1249 2054 L 1285 2000 L 1329 1928 L 1329 1926 L 1360 1874 L 1399 1801 L 1459 1676 L 1472 1643 L 1474 1641 L 1474 1638 L 1479 1629 L 1479 1626 L 1488 1606 L 1489 1601 L 1491 1599 L 1491 1596 L 1496 1586 L 1496 1583 Q 1506 1562 1513 1538 L 1517 1533 L 1538 1540 L 1543 1544 L 1543 1550 L 1539 1565 L 1539 1571 L 1536 1581 L 1536 1586 L 1534 1590 L 1534 1597 L 1529 1618 L 1527 1635 L 1524 1645 L 1524 1651 L 1522 1655 L 1522 1662 L 1520 1667 L 1519 1678 L 1517 1682 L 1517 1689 L 1512 1709 L 1512 1715 L 1510 1719 L 1510 1725 L 1507 1734 L 1507 1740 L 1505 1744 L 1505 1751 L 1500 1771 L 1500 1777 L 1495 1797 L 1495 1803 L 1493 1807 L 1493 1813 L 1490 1823 L 1490 1828 L 1488 1833 L 1488 1839 L 1483 1860 L 1483 1866 L 1481 1871 L 1481 1877 L 1478 1886 L 1476 1902 L 1471 1921 L 1471 1927 L 1469 1931 Q 1469 1940 1466 1946 L 1466 1952 L 1464 1956 L 1464 1962 L 1461 1972 L 1461 1977 L 1459 1981 L 1459 1987 L 1456 1997 L 1456 2002 L 1454 2006 L 1454 2012 L 1452 2016 L 1451 2027 L 1449 2031 L 1449 2038 L 1447 2042 L 1447 2048 L 1444 2058 L 1444 2063 L 1442 2067 L 1442 2073 L 1440 2077 L 1439 2087 L 1437 2091 L 1437 2097 L 1432 2115 L 1432 2120 L 1430 2124 L 1427 2143 L 1425 2147 L 1423 2162 L 1420 2171 Q 1419 2179 1421 2183 L 1427 2186 L 1434 2184 L 1437 2179 L 1438 2168 L 1440 2164 L 1440 2158 L 1443 2148 L 1443 2143 L 1445 2139 L 1445 2133 L 1450 2115 L 1452 2100 L 1455 2091 L 1457 2076 L 1460 2066 L 1460 2061 L 1462 2057 L 1462 2051 L 1464 2047 L 1464 2042 L 1467 2032 L 1467 2026 L 1469 2022 L 1469 2016 L 1474 1997 L 1476 1982 L 1479 1973 L 1479 1966 L 1481 1962 L 1481 1956 L 1484 1947 L 1484 1941 L 1486 1937 L 1486 1931 L 1488 1927 Q 1488 1917 1491 1912 L 1491 1905 L 1493 1901 Q 1493 1891 1496 1886 L 1496 1880 L 1498 1876 L 1498 1870 L 1501 1859 L 1501 1854 L 1503 1850 L 1503 1844 L 1505 1839 L 1506 1828 L 1508 1824 L 1508 1817 L 1510 1813 L 1510 1807 L 1513 1798 L 1513 1792 L 1515 1788 L 1515 1782 L 1518 1772 L 1518 1766 L 1520 1762 L 1520 1755 L 1525 1736 L 1525 1729 L 1527 1725 L 1527 1718 L 1530 1708 L 1530 1703 L 1532 1699 L 1532 1692 L 1537 1672 L 1537 1666 L 1539 1662 L 1539 1656 L 1544 1635 L 1544 1629 L 1549 1608 L 1549 1602 L 1551 1598 L 1552 1587 L 1554 1582 L 1554 1575 L 1556 1570 L 1559 1551 L 1561 1549 L 1564 1549 L 1574 1554 L 1591 1559 L 1620 1571 L 1623 1571 L 1639 1578 L 1642 1578 L 1652 1583 L 1655 1583 L 1671 1590 L 1674 1590 L 1705 1603 L 1703 1624 L 1701 1629 L 1701 1637 L 1699 1643 L 1699 1650 L 1696 1662 L 1696 1670 L 1694 1675 L 1694 1683 L 1691 1693 L 1691 1700 L 1689 1704 L 1689 1712 L 1684 1734 L 1684 1742 L 1682 1747 L 1682 1754 L 1679 1765 L 1679 1772 L 1677 1777 L 1677 1785 L 1672 1807 L 1672 1814 L 1670 1819 L 1667 1842 L 1665 1846 L 1665 1853 L 1662 1863 L 1662 1869 L 1660 1874 L 1660 1881 L 1658 1886 L 1657 1897 L 1655 1902 L 1655 1910 L 1653 1914 L 1650 1937 L 1648 1942 L 1648 1949 L 1643 1971 L 1643 1978 L 1638 2000 L 1638 2007 L 1636 2011 L 1636 2019 L 1631 2040 L 1631 2047 L 1628 2057 L 1628 2062 L 1626 2066 L 1624 2083 L 1619 2104 L 1619 2111 L 1616 2120 L 1614 2138 L 1609 2158 Q 1610 2166 1607 2170 L 1607 2182 L 1615 2186 L 1620 2184 L 1622 2182 L 1624 2175 L 1624 2169 L 1629 2149 L 1629 2143 L 1631 2138 L 1632 2127 L 1634 2122 L 1634 2115 L 1636 2111 L 1636 2104 L 1641 2083 L 1641 2076 L 1643 2072 L 1644 2061 L 1646 2056 L 1646 2049 L 1648 2045 L 1648 2039 L 1653 2017 L 1656 1994 L 1658 1989 L 1658 1982 L 1660 1977 L 1661 1965 L 1663 1961 L 1663 1954 L 1668 1933 L 1668 1926 L 1672 1910 L 1673 1898 L 1675 1893 L 1675 1885 L 1677 1881 L 1680 1858 L 1682 1853 L 1682 1846 L 1685 1836 L 1685 1829 L 1687 1825 L 1687 1818 L 1689 1813 L 1690 1801 L 1692 1797 L 1692 1789 L 1697 1767 L 1697 1759 L 1699 1754 L 1699 1747 L 1702 1736 L 1702 1729 L 1704 1724 L 1704 1717 L 1706 1712 L 1707 1700 L 1709 1695 L 1709 1686 L 1711 1682 L 1711 1674 L 1714 1663 L 1714 1654 L 1716 1649 L 1716 1642 L 1719 1630 L 1719 1623 L 1721 1617 L 1721 1612 L 1723 1610 L 1754 1621 L 1756 1626 Q 1758 1631 1755 1633 L 1755 1662 L 1754 1663 L 1754 1699 L 1753 1700 L 1753 1717 L 1752 1718 L 1752 1775 L 1751 1776 L 1751 1816 L 1750 1817 L 1750 1864 L 1751 1865 L 1752 1945 L 1753 1946 L 1753 1958 L 1754 1959 L 1754 1979 L 1755 1980 L 1756 2012 L 1757 2013 L 1757 2036 L 1758 2037 L 1758 2047 L 1759 2048 L 1759 2080 L 1760 2081 L 1759 2124 L 1757 2134 L 1757 2146 L 1754 2159 L 1754 2166 L 1752 2171 L 1752 2182 L 1759 2186 L 1766 2184 L 1769 2177 L 1770 2165 L 1772 2159 L 1772 2150 L 1774 2143 L 1774 2129 L 1775 2128 L 1775 2116 L 1776 2115 L 1776 2092 L 1777 2091 L 1776 2058 L 1775 2057 L 1775 2042 L 1774 2041 L 1774 2020 L 1773 2019 L 1773 2008 L 1772 2007 L 1772 1983 L 1771 1982 L 1771 1970 L 1770 1969 L 1770 1953 L 1769 1952 L 1768 1897 L 1767 1896 L 1767 1800 L 1768 1799 L 1768 1762 L 1769 1761 L 1770 1685 L 1771 1684 L 1771 1662 L 1772 1661 L 1772 1649 L 1782 1651 L 1801 1661 L 1829 1679 L 1845 1692 Q 1867 1710 1880 1738 L 1888 1756 L 1888 1759 L 1890 1761 L 1895 1779 L 1897 1782 L 1897 1786 L 1900 1794 L 1900 1798 L 1902 1802 L 1902 1806 L 1905 1815 L 1905 1820 L 1907 1825 L 1907 1832 L 1909 1837 L 1910 1850 L 1912 1856 L 1912 1865 L 1914 1871 L 1914 1881 L 1917 1897 L 1917 1909 L 1919 1915 L 1919 1928 L 1921 1936 L 1923 1962 L 1924 1963 L 1924 1978 L 1926 1986 L 1926 2001 L 1927 2002 L 1927 2012 L 1928 2013 L 1928 2023 L 1929 2024 L 1929 2043 L 1931 2052 L 1931 2071 L 1932 2072 L 1932 2082 L 1933 2083 L 1933 2097 L 1934 2098 L 1934 2117 L 1935 2118 L 1935 2128 L 1936 2129 L 1936 2150 L 1938 2161 L 1938 2175 L 1940 2183 L 1946 2186 Q 1951 2187 1953 2184 L 1955 2180 L 1954 2155 L 1953 2154 L 1953 2138 L 1952 2137 L 1952 2127 L 1951 2126 L 1951 2106 L 1950 2105 L 1950 2095 L 1949 2094 L 1949 2073 L 1948 2072 L 1947 2049 L 1946 2048 L 1946 2031 L 1944 2020 L 1944 2002 L 1942 1992 L 1941 1968 L 1939 1959 L 1939 1945 L 1937 1937 L 1937 1927 L 1934 1910 L 1934 1898 L 1932 1892 L 1932 1881 L 1929 1867 L 1929 1858 L 1927 1852 L 1927 1844 L 1924 1832 L 1924 1826 L 1922 1822 L 1922 1815 L 1920 1811 L 1920 1806 L 1918 1802 L 1917 1793 L 1915 1790 L 1912 1775 L 1910 1772 L 1910 1768 L 1903 1751 L 1903 1748 L 1900 1743 L 1900 1740 L 1886 1714 Q 1877 1699 1864 1688 Q 1865 1685 1862 1686 L 1862 1684 L 1842 1667 L 1822 1653 L 1789 1636 L 1773 1630 Q 1771 1627 1772 1619 L 1769 1613 L 1764 1608 L 1741 1599 L 1739 1597 L 1736 1597 L 1694 1580 L 1686 1578 L 1681 1575 L 1678 1575 L 1649 1563 L 1646 1563 L 1636 1558 L 1633 1558 L 1604 1546 L 1601 1546 L 1599 1544 L 1582 1539 L 1571 1534 L 1568 1534 L 1566 1532 L 1563 1532 L 1558 1529 L 1549 1527 L 1518 1515 L 1508 1517 L 1503 1521 L 1500 1521 L 1479 1482 L 1469 1458 L 1442 1406 Q 1430 1389 1404 1386 L 1401 1383 L 1401 1352 L 1402 1351 L 1403 1331 L 1404 1330 L 1404 1318 L 1406 1312 Q 1405 1304 1407 1301 L 1425 1285 Q 1459 1253 1484 1212 L 1493 1195 L 1503 1170 L 1517 1120 L 1532 1113 L 1545 1104 L 1559 1090 L 1576 1063 L 1583 1046 L 1583 1042 L 1588 1028 Q 1587 1021 1590 1018 L 1590 1008 L 1591 1007 L 1591 978 L 1590 977 L 1590 968 L 1585 950 L 1576 934 Q 1568 923 1554 918 Q 1551 917 1552 914 L 1554 912 L 1569 910 L 1595 902 L 1597 900 L 1600 900 L 1610 895 L 1624 886 Q 1633 879 1639 868 L 1643 853 L 1643 845 L 1641 834 L 1637 825 Q 1629 811 1617 803 L 1612 794 L 1609 759 L 1607 752 L 1607 742 L 1605 735 L 1605 726 L 1602 714 L 1602 707 L 1600 703 L 1600 696 L 1598 691 L 1597 681 L 1595 677 L 1595 671 L 1590 656 L 1590 652 L 1585 634 L 1583 631 L 1578 612 L 1576 610 L 1573 599 L 1554 557 L 1535 525 Q 1518 498 1496 477 Q 1497 474 1494 475 L 1494 473 L 1491 472 L 1487 467 L 1462 444 Q 1439 427 1415 413 L 1391 401 L 1366 391 L 1316 376 L 1309 367 L 1296 355 L 1288 352 Q 1280 353 1277 350 L 1261 350 L 1260 349 L 1208 349 Z M 614 538 L 613 539 L 603 539 Q 599 542 592 541 L 576 546 L 572 546 L 534 561 Q 495 580 465 608 Q 448 623 434 642 L 420 666 L 415 682 L 415 701 L 420 714 Q 422 719 429 720 L 434 719 L 438 714 L 438 709 L 432 699 L 432 684 L 437 669 Q 445 652 457 640 L 491 608 L 534 580 L 559 568 L 562 568 L 564 566 L 576 563 L 579 561 L 595 558 L 599 556 L 607 556 L 616 554 L 626 554 L 633 556 L 640 556 L 651 561 L 657 566 L 664 579 L 667 589 L 667 608 Q 664 610 665 617 L 660 631 L 651 648 L 643 648 L 642 647 L 615 648 L 611 650 L 605 650 L 598 652 L 581 658 L 547 677 L 533 689 L 530 691 L 515 709 L 508 726 Q 507 737 511 743 L 518 749 L 524 752 L 534 754 L 553 752 Q 554 749 560 750 L 582 740 L 619 714 L 639 694 Q 638 691 641 692 L 658 669 Q 664 668 666 672 Q 674 677 677 689 L 677 699 L 674 708 L 674 712 L 662 738 L 659 741 L 655 740 L 640 740 Q 636 743 630 742 Q 612 748 601 759 Q 591 767 588 781 Q 587 789 590 793 Q 594 798 602 800 L 610 800 L 625 796 L 647 782 L 661 767 Q 662 763 667 764 L 670 771 L 669 781 L 660 799 L 656 812 L 657 827 L 664 837 L 683 851 L 689 853 L 694 851 L 697 845 L 696 841 Q 690 834 682 830 L 672 820 L 672 813 L 682 793 L 687 777 L 687 769 L 684 760 L 680 754 L 676 751 L 675 749 L 675 746 L 679 741 L 689 719 L 693 701 L 692 682 L 686 670 L 668 654 L 668 651 L 675 638 L 680 624 L 683 608 L 682 580 L 675 564 L 670 557 Q 660 546 646 541 Q 640 542 638 539 L 629 539 L 628 538 L 614 538 Z M 814 1936 L 809 1943 L 810 1949 L 843 1978 L 861 1990 L 887 2004 L 912 2014 L 929 2019 L 934 2019 L 938 2021 L 944 2021 L 955 2024 L 974 2024 L 975 2025 Q 988 2027 992 2021 Q 993 2013 990 2011 L 989 2009 Q 982 2011 981 2008 L 965 2008 L 956 2006 L 948 2006 L 944 2004 L 938 2004 L 911 1996 L 894 1989 L 872 1977 L 848 1960 L 837 1950 Q 834 1951 835 1948 L 821 1936 L 814 1936 Z " /><path fill="rgb(0,0,0)" stroke="rgb(0,0,0)" stroke-width="1" opacity="0" d="M 1210.5 365 L 1258.5 365 L 1269.5 367 L 1280.5 367 Q 1290.8 369.8 1296 377.5 Q 1298.1 386.4 1304.5 391 L 1311.5 394 L 1326.5 396 L 1338.5 401 L 1342.5 401 L 1387.5 418 L 1406.5 428 L 1416.5 435 L 1418.5 435 L 1451 457 Q 1449.9 459.7 1452.5 459 L 1492 496.5 L 1515 525.5 L 1527 543.5 L 1546 578.5 L 1561 614.5 L 1561 617.5 L 1563 620.5 L 1563 623.5 L 1565 626.5 L 1565 629.5 L 1568 635.5 L 1568 639.5 L 1573 652.5 L 1573 657.5 L 1575 660.5 L 1575 664.5 L 1578 672.5 L 1578 677.5 L 1582 691.5 L 1582 696.5 L 1585 705.5 L 1587 726.5 L 1590 737.5 L 1590 746.5 L 1592 753.5 L 1592 764.5 L 1594 771.5 L 1595 791.5 L 1597 802.5 L 1607.5 818 L 1610.5 820 Q 1619 826.5 1624 836.5 L 1626 841.5 L 1626 851.5 L 1621 863.5 L 1616 870 L 1601.5 880 L 1591.5 885 L 1588.5 885 L 1570.5 892 L 1555.5 895 L 1554 893.5 L 1554 883.5 L 1556 878.5 L 1556 868.5 L 1559 855.5 L 1559 844.5 L 1561.5 838 L 1566.5 839 L 1585.5 849 L 1594.5 849 Q 1599.3 846.8 1598 838.5 L 1593.5 834 L 1579.5 827 L 1525.5 805 L 1521.5 805 L 1501.5 798 L 1485.5 795 L 1482.5 793 L 1477.5 793 L 1473.5 791 L 1465.5 790 L 1461.5 788 L 1455.5 788 L 1437.5 783 L 1419.5 781 L 1408.5 778 L 1400.5 778 L 1394.5 776 L 1386.5 776 L 1380.5 774 L 1364.5 773 L 1357.5 771 L 1345.5 771 L 1337.5 769 L 1323.5 769 L 1322.5 768 L 1313.5 768 L 1302.5 766 L 1278.5 766 L 1277.5 765 L 1264.5 765 L 1263.5 764 L 1207.5 764 L 1206.5 765 L 1192.5 765 L 1191.5 766 L 1167.5 766 L 1166.5 767 L 1157.5 767 L 1146.5 769 L 1131.5 769 Q 1124.3 772.3 1112.5 771 L 1083.5 776 L 1075.5 776 L 1070.5 778 L 1063.5 778 L 1051.5 781 L 1043.5 781 L 1039.5 783 L 1032.5 783 L 1023.5 786 L 1007.5 788 L 991.5 793 L 986.5 793 L 982.5 795 L 966.5 798 L 963.5 800 L 959.5 800 L 931.5 810 L 928.5 810 L 881.5 829 L 869 837.5 L 868 843.5 L 872.5 849 L 879.5 849 L 899.5 839 L 906 838 L 907 840.5 L 907 851.5 L 909 857.5 L 909 867.5 L 911 873.5 L 913 892.5 Q 912.3 895.8 907.5 895 L 875.5 885 Q 858.4 878.1 847 865.5 L 842 857.5 L 840 850.5 L 840 842.5 Q 843.6 826.6 855.5 819 L 864 811.5 L 871 797.5 L 871 787.5 L 873 780.5 L 873 769.5 L 876 752.5 L 876 741.5 L 878 735.5 L 878 726.5 L 881 714.5 L 881 707.5 L 883 703.5 L 883 696.5 L 888 677.5 L 888 672.5 L 890 669.5 L 890 665.5 L 893 657.5 L 893 652.5 L 895 649.5 L 898 635.5 L 900 632.5 L 908 606.5 L 912 599.5 L 912 596.5 L 924 570.5 L 939 543.5 L 951 525.5 Q 973.3 494.3 1001.5 469 L 1039.5 440 L 1083.5 416 L 1122.5 401 L 1126.5 401 L 1139.5 396 L 1144.5 396 L 1147.5 394 L 1153.5 394 L 1164 390 L 1169 378.5 L 1175.5 372 L 1186.5 367 L 1200.5 367 L 1210.5 365 Z M 1151 415 L 1146 420 L 1144 427 L 1144 436 L 1142 441 L 1142 448 L 1139 460 L 1139 467 L 1137 472 L 1137 480 L 1132 501 L 1132 509 L 1127 531 L 1127 539 L 1122 559 L 1122 566 L 1120 570 L 1120 578 L 1117 588 L 1117 595 L 1115 599 L 1115 607 L 1110 628 L 1110 636 L 1108 640 L 1108 648 L 1106 653 L 1105 666 L 1104 667 L 1105 677 L 1110 680 L 1117 679 L 1120 675 L 1121 670 L 1123 651 L 1125 646 L 1125 639 L 1128 629 L 1128 623 L 1130 618 L 1130 610 L 1132 605 L 1133 592 L 1135 587 L 1135 580 L 1137 575 L 1137 569 L 1140 559 L 1140 552 L 1142 547 L 1142 540 L 1144 535 L 1145 523 L 1147 518 L 1147 510 L 1152 488 L 1152 480 L 1157 458 L 1157 451 L 1159 446 L 1159 438 L 1162 426 L 1162 421 L 1156 415 L 1151 415 Z M 1311 415 L 1308 417 L 1304 422 L 1306 432 L 1306 439 L 1309 449 L 1309 456 L 1311 461 L 1311 469 L 1316 490 L 1316 498 L 1318 502 L 1319 514 L 1321 519 L 1321 526 L 1323 531 L 1323 538 L 1326 549 L 1326 556 L 1328 561 L 1328 568 L 1331 580 L 1331 586 L 1333 591 L 1333 598 L 1335 603 L 1336 616 L 1338 621 L 1338 629 L 1340 634 L 1340 641 L 1343 652 L 1343 659 L 1345 664 L 1345 673 L 1347 677 L 1352 680 L 1358 680 L 1363 675 L 1363 669 L 1360 659 L 1360 651 L 1355 630 L 1355 623 L 1353 618 L 1353 610 L 1348 588 L 1348 581 L 1346 576 L 1345 564 L 1343 559 L 1343 552 L 1341 547 L 1341 540 L 1338 530 Q 1339 522 1336 519 L 1336 511 L 1331 489 L 1331 482 L 1329 477 L 1329 470 L 1326 460 L 1324 439 L 1322 434 L 1321 422 L 1319 417 Q 1317 414 1311 415 Z M 1206 703 L 1205 704 L 1175 705 L 1174 706 L 1157 706 L 1149 708 L 1136 708 L 1121 711 L 1113 711 L 1107 713 L 1098 713 L 1093 715 L 1086 715 L 1076 718 L 1069 718 L 1065 720 L 1060 720 L 1043 725 L 1038 725 L 1023 730 L 1019 730 L 1016 732 L 1009 733 L 971 747 L 968 747 L 966 749 L 963 749 L 928 764 Q 922 766 924 776 L 931 780 L 938 779 L 958 769 L 961 769 L 963 767 L 966 767 L 976 762 L 987 759 L 989 757 L 993 757 L 995 755 Q 1001 755 1004 752 L 1008 752 L 1011 750 L 1026 747 L 1029 745 L 1034 745 L 1037 743 Q 1043 743 1048 740 L 1053 740 L 1057 738 L 1062 738 L 1070 735 L 1076 735 L 1080 733 L 1087 733 L 1098 730 L 1104 730 L 1109 728 L 1118 728 L 1124 726 L 1141 725 L 1148 723 L 1163 723 L 1173 721 L 1194 721 L 1195 720 L 1267 720 L 1268 721 L 1294 721 L 1303 723 L 1317 723 L 1333 726 L 1342 726 L 1348 728 L 1357 728 L 1363 730 L 1376 731 L 1381 733 L 1388 733 L 1405 738 L 1419 740 L 1434 745 L 1439 745 L 1459 752 L 1463 752 L 1468 755 L 1471 755 L 1499 765 L 1521 774 L 1529 779 L 1534 780 L 1539 779 Q 1544 777 1542 768 L 1539 764 L 1528 759 L 1498 747 L 1495 747 L 1490 744 L 1475 740 L 1470 737 L 1460 735 L 1454 732 L 1443 730 L 1429 725 L 1415 723 L 1407 720 L 1401 720 L 1397 718 L 1390 718 L 1380 715 Q 1372 716 1368 713 L 1360 713 L 1354 711 L 1338 710 L 1331 708 L 1319 708 L 1311 706 L 1294 706 L 1293 705 L 1281 705 L 1280 704 L 1264 704 L 1263 703 L 1206 703 Z " /><path fill="rgb(0,0,0)" stroke="rgb(0,0,0)" stroke-width="1" opacity="0" d="M 627.5 663 L 636.5 663 L 638 664.5 L 638 668.5 L 628 681 Q 625.3 679.9 626 682.5 L 599.5 708 L 573.5 725 L 545.5 737 L 530.5 737 L 524 732.5 L 524 728.5 L 527 720.5 L 535 709 L 537 709 L 537 707 Q 539.7 708.1 539 705.5 L 542 704 Q 540.9 701.3 543.5 702 Q 558.3 686.8 578.5 677 L 606.5 667 Q 611.8 667.8 613.5 665 L 621.5 665 L 627.5 663 Z " /><path fill="rgb(0,0,0)" stroke="rgb(0,0,0)" stroke-width="1" opacity="0" d="M 635.5 757 L 645 757 L 645 760.5 L 640 764 Q 641.1 766.7 638.5 766 L 626.5 776 L 611.5 783 L 605 783 L 606 778.5 L 614.5 769 Q 623.1 761.1 635.5 757 Z " /><path fill="rgb(0,0,0)" stroke="rgb(0,0,0)" stroke-width="1" opacity="0" d="M 1197.5 781 L 1275.5 781 L 1276.5 782 L 1292.5 782 L 1303.5 784 L 1322.5 784 L 1330.5 786 L 1343.5 786 L 1351.5 788 L 1369.5 789 L 1375.5 791 L 1384.5 791 L 1390.5 793 L 1403.5 794 L 1414 797 Q 1421.8 816.8 1434 833.5 L 1453 859.5 L 1471 881 L 1473 881 Q 1471.9 883.7 1474.5 883 L 1476 886 Q 1478.7 884.9 1478 887.5 L 1488 901.5 L 1495 918.5 L 1495 952.5 L 1493 962.5 L 1493 979.5 L 1492 980.5 L 1491 999.5 L 1490 1000.5 L 1490 1013.5 L 1488 1021.5 L 1488 1036.5 L 1486 1045.5 L 1486 1057.5 L 1485 1058.5 L 1485 1068.5 L 1483 1077.5 L 1483 1088.5 L 1481 1094.5 L 1481 1104.5 L 1478 1117.5 L 1478 1126.5 Q 1474.9 1130.9 1476 1139.5 Q 1472.7 1145.2 1473 1154.5 L 1471 1158.5 L 1471 1163.5 L 1469 1166.5 L 1469 1170.5 L 1461 1192.5 L 1439 1231.5 L 1425 1250.5 L 1398 1280.5 L 1398 1282 L 1396.5 1282 Q 1379.3 1300.8 1358.5 1316 L 1322.5 1340 L 1302.5 1350 L 1284.5 1357 L 1280.5 1357 L 1262.5 1362 L 1234.5 1364 L 1233.5 1363 L 1215.5 1362 Q 1212.2 1359.3 1205.5 1360 L 1192.5 1356 L 1188 1352.5 Q 1165.2 1318.8 1135.5 1292 L 1120.5 1282 Q 1115.9 1282.6 1114.5 1280 L 1099.5 1279 Q 1098 1281.5 1092.5 1280 L 1076.5 1287 L 1060 1270.5 L 1026 1226.5 L 1007 1191.5 L 999 1169.5 L 999 1165.5 L 997 1162.5 L 997 1157.5 L 994 1147.5 L 994 1142.5 L 992 1137.5 L 992 1130.5 L 990 1126.5 L 989 1112.5 L 987 1106.5 L 987 1097.5 L 985 1091.5 L 985 1079.5 L 982 1064.5 L 982 1053.5 L 980 1045.5 L 980 1030.5 L 978 1022.5 L 977 996.5 L 975 986.5 L 975 966.5 L 973 956.5 L 972 928.5 L 973 927.5 L 973 918.5 L 975 914.5 L 975 908.5 L 980 895.5 L 980 892.5 L 986 880.5 Q 998.7 861.2 1016.5 847 Q 1035.8 832.3 1052 814.5 L 1058 806 Q 1060.7 807.1 1060 804.5 L 1069.5 794 L 1079.5 793 L 1085.5 791 L 1095.5 791 L 1100.5 789 L 1109.5 789 L 1110.5 788 L 1123.5 787 L 1124.5 786 L 1138.5 786 L 1147.5 784 L 1165.5 784 L 1166.5 783 L 1196.5 782 L 1197.5 781 Z M 1269 827 L 1267 828 L 1263 834 L 1265 854 L 1270 865 L 1277 870 L 1284 869 L 1287 865 L 1287 861 L 1280 848 L 1280 837 L 1278 830 Q 1276 825 1269 827 Z M 1308 838 L 1302 843 L 1303 851 Q 1318 865 1340 873 L 1348 876 L 1352 876 L 1355 878 L 1360 878 L 1370 881 L 1385 882 L 1386 883 L 1408 883 L 1426 880 L 1428 877 Q 1430 868 1425 866 L 1402 866 L 1401 867 L 1378 866 L 1354 861 L 1335 853 L 1316 839 L 1308 838 Z M 1157 847 L 1149 851 Q 1142 859 1133 863 L 1124 866 L 1122 868 L 1119 868 L 1107 873 L 1103 873 L 1100 875 L 1094 875 L 1080 878 L 1043 878 L 1040 883 L 1041 891 L 1044 893 L 1059 894 L 1060 895 L 1094 893 L 1103 890 L 1108 890 L 1111 888 L 1115 888 Q 1139 880 1158 866 Q 1163 863 1165 857 L 1164 852 L 1157 847 Z M 1110 940 L 1105 941 L 1096 946 L 1091 955 L 1089 963 L 1089 971 L 1093 982 Q 1098 989 1107 992 Q 1120 994 1126 989 Q 1133 984 1135 974 L 1135 960 L 1130 949 L 1120 941 L 1110 940 Z M 1357 940 L 1348 944 L 1342 951 L 1338 963 L 1340 978 L 1343 983 Q 1347 989 1356 992 L 1367 992 L 1374 989 Q 1382 984 1384 973 L 1384 961 L 1379 949 Q 1373 939 1357 940 Z M 1219 1094 L 1217 1095 Q 1212 1097 1214 1105 L 1218 1108 L 1230 1113 L 1249 1113 L 1258 1110 L 1265 1104 L 1264 1097 L 1261 1094 L 1257 1094 L 1248 1098 Q 1243 1097 1242 1099 L 1232 1098 L 1223 1094 L 1219 1094 Z M 1235 1192 L 1234 1193 L 1224 1193 L 1204 1197 L 1191 1202 L 1188 1202 L 1172 1210 L 1166 1217 L 1166 1222 L 1172 1227 L 1176 1227 L 1200 1215 L 1204 1215 L 1211 1212 L 1216 1212 L 1220 1210 L 1229 1210 L 1230 1209 L 1261 1210 L 1286 1217 L 1303 1227 Q 1309 1228 1311 1225 L 1313 1220 L 1311 1214 L 1306 1209 L 1292 1202 L 1277 1197 Q 1271 1198 1269 1195 L 1261 1195 L 1255 1193 L 1235 1192 Z " /><path fill="rgb(0,0,0)" stroke="rgb(0,0,0)" stroke-width="1" opacity="0" d="M 1033.5 800 Q 1040.8 797.4 1039 803.5 L 1032 812 L 1030 812 L 1030 814 Q 1027.3 812.9 1028 815.5 L 1025 817 Q 1026.1 819.7 1023.5 819 L 984 855.5 L 970.5 874 Q 967.2 875.1 968 872.5 L 967 871.5 L 967 852.5 L 966 851.5 L 966 837.5 L 965 836.5 L 965 817.5 L 967.5 815 L 972.5 815 L 975.5 813 L 992.5 810 L 995.5 808 L 1001.5 808 L 1005.5 806 L 1033.5 800 Z " /><path fill="rgb(0,0,0)" stroke="rgb(0,0,0)" stroke-width="1" opacity="0" d="M 1436 801 L 1442.5 801 L 1446.5 803 L 1453.5 803 L 1461.5 806 L 1466.5 806 L 1469.5 808 L 1474.5 808 L 1478.5 810 L 1486.5 811 L 1489.5 813 L 1493.5 813 L 1502 816 L 1503 822.5 L 1502 823.5 L 1502 838.5 L 1501 839.5 L 1501 850.5 L 1500 851.5 L 1500 872.5 Q 1497.3 874.2 1499 880.5 L 1497.5 882 Q 1493.5 882.5 1493 879.5 L 1484 868 Q 1481.3 869.1 1482 866.5 L 1473 857.5 L 1452 829.5 L 1438 807.5 L 1436 801 Z " /><path fill="rgb(0,0,0)" stroke="rgb(0,0,0)" stroke-width="1" opacity="0" d="M 944.5 822 L 948 823.5 L 949 839.5 L 950 840.5 L 951 873.5 L 952 874.5 L 952 885.5 L 953 886.5 L 953 906.5 L 955 916.5 L 955 940.5 L 956 941.5 L 957 961.5 L 958 962.5 L 958 975.5 L 960 985.5 L 960 1003.5 L 962 1012.5 L 963 1037.5 L 965 1046.5 L 965 1062.5 L 967 1069.5 L 967 1081.5 L 970 1093.5 L 970 1102.5 L 972 1107.5 L 972 1117.5 L 974 1121.5 L 974 1133 Q 969.1 1134.8 971 1128.5 L 968 1122.5 L 968 1117.5 L 965 1110.5 Q 966 1103.5 963 1100.5 L 963 1094.5 L 958 1077.5 L 958 1071.5 L 956 1067.5 L 956 1061.5 L 953 1051.5 L 953 1044.5 L 951 1039.5 L 951 1031.5 L 946 1009.5 L 946 1000.5 L 944 995.5 L 944 988.5 L 941 976.5 L 941 967.5 L 939 962.5 L 939 953.5 L 936 941.5 L 936 933.5 L 934 927.5 L 934 918.5 L 932 912.5 L 931 897.5 L 929 892.5 L 929 880.5 L 927 874.5 L 927 865.5 L 924 851.5 L 924 841.5 L 922 832.5 L 923 830 L 944.5 822 Z " /><path fill="rgb(0,0,0)" stroke="rgb(0,0,0)" stroke-width="1" opacity="0" d="M 1519.5 823 L 1524.5 823 L 1527.5 825 L 1536.5 827 L 1544 831.5 L 1544 841.5 L 1541 854.5 L 1541 864.5 L 1539 869.5 L 1539 880.5 L 1536 894.5 L 1536 902.5 L 1534 908.5 L 1534 917.5 L 1532 923.5 L 1531 938.5 L 1529 944.5 L 1529 954.5 L 1527 960.5 L 1527 969.5 L 1524 982.5 L 1524 990.5 L 1522 996.5 L 1522 1005.5 L 1520 1010.5 L 1519 1024.5 L 1517 1029.5 L 1517 1037.5 L 1515 1042.5 L 1515 1048.5 L 1512 1058.5 L 1512 1064.5 L 1510 1068.5 L 1510 1074.5 L 1507 1083.5 L 1507 1088.5 L 1505 1092.5 L 1503 1108.5 L 1500 1116.5 L 1500 1122.5 L 1495.5 1133 L 1493 1126.5 L 1496 1114.5 L 1496 1106.5 L 1498 1100.5 L 1498 1091.5 L 1501 1076.5 L 1501 1064.5 L 1503 1055.5 L 1503 1039.5 L 1505 1031.5 L 1506 1005.5 L 1508 995.5 L 1508 980.5 L 1510 971.5 L 1510 953.5 L 1511 952.5 L 1511 941.5 L 1513 931.5 L 1513 911.5 L 1514 910.5 L 1514 900.5 L 1515 899.5 L 1515 876.5 L 1516 875.5 L 1517 852.5 L 1518 851.5 L 1518 824.5 L 1519.5 823 Z " /><path fill="rgb(0,0,0)" stroke="rgb(0,0,0)" stroke-width="1" opacity="0" d="M 1550.5 934 L 1563 944.5 L 1568 952.5 L 1573 967.5 Q 1572 975.5 1575 979.5 L 1575 1002.5 L 1570 1029.5 L 1568 1032.5 L 1568 1036.5 Q 1565 1039.5 1565 1045.5 L 1563 1047.5 L 1563 1050.5 Q 1552.4 1073.9 1534.5 1090 L 1526.5 1096 L 1523.5 1096 L 1522 1092.5 L 1525 1084.5 L 1525 1078.5 L 1530 1059.5 L 1530 1052.5 L 1532 1048.5 L 1532 1040.5 L 1534 1035.5 L 1535 1022.5 L 1537 1017.5 L 1537 1008.5 L 1542 983.5 L 1542 973.5 L 1544 967.5 L 1544 957.5 L 1546 951.5 L 1547 936.5 L 1548.5 935 L 1550.5 934 Z " /><path fill="rgb(0,0,0)" stroke="rgb(0,0,0)" stroke-width="1" opacity="0" d="M 916.5 936 L 920 938.5 L 921 952.5 L 924 965.5 L 924 974.5 L 926 980.5 L 926 989.5 L 928 994.5 L 929 1008.5 L 931 1012.5 L 931 1021.5 L 933 1026.5 L 933 1032.5 L 936 1042.5 L 936 1049.5 L 938 1053.5 L 938 1059.5 L 941 1068.5 L 941 1074.5 L 943 1078.5 L 943 1084.5 Q 946.8 1088.8 946 1096 L 941.5 1096 L 929 1084.5 L 927 1081.5 Q 917.7 1073.3 912 1061.5 L 900 1033.5 L 900 1028.5 L 895 1010.5 L 894 982.5 L 895 981.5 L 895 971.5 Q 898 967.5 898 960.5 Q 902.1 948.1 910.5 940 L 916.5 936 Z " /><path fill="rgb(0,0,0)" stroke="rgb(0,0,0)" stroke-width="1" opacity="0" d="M 1101.5 1295 L 1112.5 1297 L 1120.5 1302 L 1141 1321.5 L 1166 1349.5 L 1175 1361.5 L 1175 1364.5 L 1172.5 1366 L 1160.5 1362 L 1146.5 1362 L 1123.5 1367 L 1117.5 1367 L 1116 1365.5 Q 1117.1 1357.3 1115 1354 L 1111.5 1352 L 1105.5 1352 L 1080.5 1376 L 1074.5 1379 L 1069.5 1379 L 1066.5 1381 L 1058.5 1382 L 1054.5 1384 L 1049.5 1384 L 1045.5 1386 L 1040.5 1386 L 1026.5 1391 L 1021.5 1391 Q 1017.5 1394 1010.5 1394 L 1004 1398.5 L 1003 1404.5 L 1007.5 1410 L 1013.5 1411 L 1026.5 1408 L 1029.5 1406 L 1043.5 1404 L 1058.5 1399 L 1063.5 1399 L 1077.5 1394 L 1082.5 1394 L 1085.5 1392 L 1090.5 1392 L 1097.5 1389 L 1102.5 1389 L 1105.5 1387 L 1110.5 1387 L 1117.5 1384 L 1122.5 1384 L 1125.5 1382 L 1132.5 1382 L 1136.5 1380 Q 1142.8 1381.8 1144.5 1379 L 1162.5 1379 Q 1172.8 1380.8 1178 1387.5 L 1185 1404.5 L 1186 1418.5 L 1184.5 1420 L 1169.5 1420 L 1153.5 1423 L 1145.5 1423 L 1140.5 1425 L 1132.5 1425 L 1127.5 1427 L 1121.5 1427 L 1111.5 1430 L 1103.5 1430 L 1098.5 1432 L 1091.5 1432 L 1068.5 1437 L 1060.5 1437 L 1054.5 1439 L 1039.5 1440 L 1033 1444.5 L 1032 1449.5 L 1034.5 1455 Q 1037.4 1458.6 1045.5 1457 L 1050.5 1455 L 1057.5 1455 L 1068.5 1452 L 1077.5 1452 L 1082.5 1450 L 1090.5 1450 L 1101.5 1447 L 1108.5 1447 L 1113.5 1445 L 1122.5 1445 L 1127.5 1443 L 1140.5 1442 L 1145.5 1440 L 1153.5 1440 L 1158.5 1438 L 1180.5 1437 L 1190.5 1440 L 1198 1447.5 Q 1201.8 1453.2 1202 1462.5 L 1200 1470.5 L 1200 1477.5 L 1198 1483.5 L 1195.5 1486 L 1179.5 1482 L 1165.5 1482 L 1164.5 1483 L 1153.5 1483 L 1148.5 1485 L 1135.5 1486 L 1130.5 1488 L 1122.5 1488 L 1117.5 1490 L 1109.5 1490 L 1098.5 1493 Q 1088.9 1491.9 1083.5 1495 L 1072.5 1495 L 1066 1499.5 L 1065 1504.5 L 1068.5 1511 L 1075.5 1513 L 1085.5 1510 L 1093.5 1510 L 1099.5 1508 L 1108.5 1508 L 1113.5 1506 L 1126.5 1505 L 1131.5 1503 L 1139.5 1503 L 1143.5 1501 L 1150.5 1501 L 1165.5 1498 L 1179.5 1498 Q 1190.4 1499.6 1195 1507.5 L 1197 1511.5 L 1198 1521.5 L 1197 1522.5 L 1197 1535.5 L 1195 1540.5 L 1195 1548.5 Q 1192 1555 1192 1564.5 L 1188 1577.5 L 1183.5 1583 L 1165.5 1592 L 1162.5 1592 L 1138.5 1602 L 1128.5 1604 L 1123 1602 L 1122 1596.5 L 1123 1595.5 L 1123 1587.5 L 1125 1582.5 L 1132.5 1573 L 1145.5 1566 L 1156.5 1564 L 1163 1559.5 L 1164 1553.5 L 1159.5 1548 L 1153.5 1547 L 1144.5 1549 L 1124.5 1558 L 1115 1566.5 L 1108 1579.5 Q 1108.7 1586.2 1106 1589.5 L 1106 1612.5 L 1108 1622.5 L 1108 1637.5 L 1110 1644.5 L 1110 1693.5 L 1105 1715.5 L 1098 1733.5 L 1088 1750.5 L 1073 1766.5 L 1073 1768 L 1068 1771.5 L 1066 1774.5 Q 1053.5 1784.5 1045 1798.5 L 1033 1825.5 L 1033 1828.5 L 1026 1847.5 L 1023.5 1851 Q 1017.2 1851.8 1014.5 1849 L 1007.5 1849 L 991.5 1844 L 987.5 1844 L 975.5 1839 L 972.5 1839 L 970.5 1837 L 967.5 1837 Q 927.8 1818.7 899 1789.5 L 898 1785.5 L 905 1774.5 L 905 1771.5 L 907 1769.5 L 912 1757.5 L 912 1754.5 L 915 1749.5 L 929 1701.5 L 929 1693.5 L 931 1688.5 L 932 1670.5 L 934 1660.5 L 934 1639.5 L 935 1638.5 L 935 1628.5 L 936 1627.5 L 936 1604.5 L 937 1603.5 L 937 1589.5 L 938 1588.5 L 938 1576.5 L 939 1575.5 L 939 1555.5 L 940 1554.5 L 940 1544.5 L 941 1543.5 L 941 1520.5 L 942 1519.5 L 942 1508.5 L 943 1507.5 L 944 1478.5 L 946 1467.5 L 946 1448.5 L 948 1440.5 L 948 1431.5 L 951 1417.5 L 954 1411.5 L 969.5 1394 L 972.5 1392 L 1073.5 1310 L 1093.5 1297 L 1101.5 1295 Z " /><path fill="rgb(0,0,0)" stroke="rgb(0,0,0)" stroke-width="1" opacity="0" d="M 1384.5 1317 L 1388 1317 L 1388 1323.5 L 1386 1331.5 L 1384 1382.5 L 1385 1383.5 L 1386 1422.5 L 1389 1439.5 L 1390 1455.5 L 1376 1473 Q 1373.3 1471.9 1374 1474.5 L 1341.5 1507 L 1340 1507 Q 1341.1 1509.7 1338.5 1509 L 1310.5 1534 L 1263 1569.5 L 1258 1578.5 L 1258 1581.5 L 1253 1593.5 L 1253 1597.5 L 1251 1599.5 L 1243 1631 L 1239 1631 L 1239 1629.5 L 1237 1626.5 L 1237 1622.5 L 1222 1575.5 L 1220 1571.5 L 1210 1561.5 L 1209 1557.5 L 1210 1556.5 L 1210 1549.5 L 1212 1544.5 L 1212 1535.5 L 1214 1527.5 L 1214 1513.5 L 1212 1504.5 L 1210 1501.5 L 1210 1495.5 L 1215 1485.5 Q 1214.4 1479.4 1217 1476.5 L 1217 1451.5 L 1213 1440.5 L 1203 1428.5 L 1203 1407.5 L 1198 1389.5 L 1193 1381.5 L 1193 1375.5 Q 1193.8 1373.3 1197.5 1374 L 1206.5 1377 Q 1215.5 1376 1220.5 1379 L 1242.5 1380 L 1243.5 1379 L 1256.5 1379 L 1262.5 1377 L 1271.5 1377 L 1275.5 1375 L 1280.5 1375 L 1287.5 1372 L 1291.5 1372 L 1310.5 1365 Q 1351.6 1345.1 1384.5 1317 Z " /><path fill="rgb(0,0,0)" stroke="rgb(0,0,0)" stroke-width="1" opacity="0" d="M 1402 1403 L 1407.5 1403 L 1415.5 1406 L 1428 1415.5 L 1484 1526.5 L 1484 1531.5 L 1471 1558.5 L 1466 1565.5 L 1454 1590.5 L 1437 1618.5 L 1432 1629.5 L 1392 1692.5 L 1377.5 1711 L 1374 1709.5 L 1370 1701.5 L 1370 1698.5 L 1343 1643.5 L 1324 1609.5 L 1315.5 1600 L 1310.5 1597 L 1303.5 1596 Q 1302.3 1598.2 1297.5 1597 L 1289 1603.5 Q 1282.3 1608.3 1283 1620.5 Q 1285 1626 1294.5 1624 L 1301.5 1615 L 1304.5 1614 L 1308 1616.5 L 1321 1638.5 L 1365 1728.5 L 1369.5 1733 Q 1371.8 1735.7 1377.5 1735 L 1387 1727.5 L 1401 1709.5 L 1430 1665.5 L 1457 1619.5 L 1467 1599.5 L 1470 1596.5 L 1470 1594 L 1472.5 1593 L 1473 1597.5 L 1466 1611.5 L 1466 1614.5 L 1461 1623.5 L 1449 1654.5 L 1447 1656.5 L 1447 1659.5 L 1437 1679.5 L 1437 1682.5 L 1432 1690.5 L 1408 1743.5 L 1384 1791.5 L 1374 1808.5 L 1369 1820.5 L 1328 1895.5 L 1311 1922.5 L 1311 1924.5 L 1289 1958.5 L 1277 1980.5 L 1241.5 2034 L 1237 2030.5 L 1206 1982.5 L 1142 1875.5 L 1125 1841.5 L 1106 1808.5 L 1091 1778.5 L 1091 1773.5 L 1108 1751.5 L 1115 1737.5 L 1120 1720.5 L 1147 1664.5 L 1169 1622.5 L 1175.5 1614 Q 1180 1613 1181 1615.5 L 1187.5 1624 Q 1196.3 1625.8 1198 1620.5 L 1198 1611.5 L 1190 1599.5 L 1202 1588.5 L 1203 1584 Q 1206.8 1583 1208 1585.5 L 1224 1640.5 L 1234 1667.5 L 1236 1677.5 L 1238 1680.5 L 1238 1683.5 L 1241 1689.5 L 1241 1693.5 L 1243 1696.5 L 1243 1699.5 L 1246 1705.5 L 1246 1709.5 L 1248 1711.5 L 1248 1715.5 L 1251 1722.5 L 1251 1730.5 L 1253 1737.5 L 1253 1949.5 L 1257.5 1954 L 1262.5 1955 L 1268 1953 L 1270 1948.5 L 1270 1751.5 L 1269 1750.5 L 1268 1724.5 L 1258 1688.5 L 1251 1670.5 L 1250 1661.5 L 1256 1644.5 L 1258 1634.5 L 1261 1628.5 L 1261 1624.5 L 1266 1612.5 L 1266 1608.5 L 1268 1605.5 L 1271 1591.5 Q 1274.8 1580.3 1283.5 1574 L 1313.5 1553 L 1351 1522 Q 1349.9 1519.3 1352.5 1520 Q 1377.6 1497.6 1399 1471.5 L 1416 1446.5 L 1420 1436.5 L 1420 1431.5 L 1416.5 1427 L 1409.5 1426 L 1404.5 1427 L 1403 1425.5 L 1402 1403 Z " /><path fill="rgb(0,0,0)" stroke="rgb(0,0,0)" stroke-width="1" opacity="0" d="M 918.5 1549 L 922 1550 L 923 1555.5 L 922 1556.5 L 922 1568.5 L 921 1569.5 L 921 1594.5 L 920 1595.5 L 920 1605.5 L 919 1606.5 L 918 1648.5 L 917 1649.5 L 917 1663.5 L 916 1664.5 L 916 1676.5 L 914 1682.5 L 914 1691.5 L 912 1695.5 L 912 1700.5 L 909 1708.5 L 909 1713.5 Q 906.2 1715.2 907 1720.5 L 904 1726.5 L 897 1750.5 L 895 1752.5 L 890 1766.5 L 885.5 1773 L 880 1768.5 L 871.5 1757 Q 869.2 1753.8 862.5 1755 L 858 1758.5 L 824 1827.5 L 817.5 1838 Q 813.8 1838.8 813 1836.5 L 813 1826.5 L 811 1820.5 L 810 1808.5 L 808 1804.5 L 808 1796.5 L 806 1791.5 L 805 1779.5 L 803 1775.5 L 803 1767.5 L 798 1745.5 L 798 1738.5 L 793 1716.5 L 793 1709.5 L 791 1705.5 L 791 1696.5 L 789 1692.5 L 789 1685.5 L 786 1674.5 L 786 1666.5 L 784 1662.5 L 784 1654.5 L 781 1642.5 L 781 1634.5 L 779 1629.5 L 779 1620.5 L 776 1605.5 L 778.5 1602 L 795.5 1595 L 798.5 1595 L 808.5 1590 L 811.5 1590 L 826.5 1583 L 829.5 1583 L 839.5 1578 L 848.5 1576 L 872.5 1566 L 889.5 1561 L 918.5 1549 Z " /><path fill="rgb(0,0,0)" stroke="rgb(0,0,0)" stroke-width="1" opacity="0" d="M 757.5 1610 L 761 1614.5 L 762 1627.5 L 764 1633.5 L 764 1641.5 L 766 1646.5 L 766 1654.5 L 769 1665.5 L 769 1673.5 L 771 1678.5 L 771 1686.5 L 776 1708.5 L 776 1715.5 L 781 1737.5 Q 780 1745.5 783 1749.5 L 783 1757.5 L 786 1767.5 L 786 1774.5 L 788 1779.5 L 788 1786.5 L 790 1791.5 L 791 1803.5 L 793 1808.5 L 793 1815.5 L 795 1820.5 L 795 1827.5 L 798 1837.5 L 798 1843.5 L 800 1848.5 L 800 1855.5 Q 803.3 1861.2 803 1870.5 L 793 1887.5 L 793 1890.5 L 785 1905.5 L 769.5 1921 L 744 1943.5 L 732.5 1958 L 729 1957.5 L 729 1946.5 L 730 1945.5 L 730 1913.5 L 731 1912.5 L 731 1773.5 L 730 1772.5 L 730 1727.5 L 729 1726.5 L 729 1703.5 L 728 1702.5 L 728 1662.5 L 727 1661.5 L 727 1644.5 L 726 1643.5 L 726 1623.5 L 732.5 1619 L 735.5 1619 L 737.5 1617 L 740.5 1617 L 757.5 1610 Z " /><path fill="rgb(0,0,0)" stroke="rgb(0,0,0)" stroke-width="1" opacity="0" d="M 1150.5 1614 L 1154 1615 L 1154 1617.5 L 1147 1627.5 L 1132 1658.5 L 1129.5 1661 L 1127 1660 L 1123 1621.5 L 1125.5 1619 L 1136.5 1619 L 1150.5 1614 Z " /></svg>